<?xml version="1.0" encoding="UTF-8" standalone="no"?>
<svg
   width="297mm"
   height="210mm"
   viewBox="0 0 297 210"
   version="1.1"
   id="svg17"
   sodipodi:docname="A4_TOLERY.svg"
   xml:space="preserve"
   xmlns:inkscape="http://www.inkscape.org/namespaces/inkscape"
   xmlns:sodipodi="http://sodipodi.sourceforge.net/DTD/sodipodi-0.dtd"
   xmlns="http://www.w3.org/2000/svg"
   xmlns:svg="http://www.w3.org/2000/svg"><defs
     id="defs17"><clipPath
       id="clip0_2385_1450"><rect
         width="2249"
         height="206"
         fill="#ffffff"
         id="rect10"
         x="0"
         y="0" /></clipPath></defs><sodipodi:namedview
     id="namedview17"
     pagecolor="#ffffff"
     bordercolor="#000000"
     borderopacity="0.25"
     inkscape:showpageshadow="2"
     inkscape:pageopacity="0.0"
     inkscape:pagecheckerboard="0"
     inkscape:deskcolor="#d1d1d1"
     inkscape:document-units="mm"><inkscape:page
       x="0"
       y="0"
       width="297"
       height="210"
       id="page2"
       margin="0"
       bleed="0" /></sodipodi:namedview><!-- Khung viền ngoài --><rect
     x="10"
     y="10"
     width="277"
     height="190"
     fill="none"
     stroke="#000000"
     stroke-width="0.5"
     id="rect1" /><!-- Khung title block chính --><rect
     x="117"
     y="146"
     width="170"
     height="54"
     fill="none"
     stroke="#000000"
     stroke-width="0.5"
     id="rect2" /><!-- Hàng 1: DESSINATEUR và TOLERYCAD --><rect
     x="117"
     y="146"
     width="55"
     height="32"
     fill="none"
     stroke="#000000"
     stroke-width="0.3"
     id="rect3" /><line
     x1="117"
     y1="151"
     x2="172"
     y2="151"
     stroke="#000000"
     stroke-width="0.3"
     id="line3" /><!-- Hàng 2: DATE và TITRE --><line
     x1="117"
     y1="162"
     x2="287"
     y2="162"
     stroke="#000000"
     stroke-width="0.3"
     id="line4" /><line
     x1="117"
     y1="167"
     x2="172"
     y2="167"
     stroke="#000000"
     stroke-width="0.3"
     id="line5" /><!-- Hàng 3: Projection symbols và REV --><line
     x1="117"
     y1="178"
     x2="287"
     y2="178"
     stroke="#000000"
     stroke-width="0.3"
     id="line6" /><line
     x1="155"
     y1="178"
     x2="155"
     y2="200"
     stroke="#000000"
     stroke-width="0.3"
     id="line7" /><!-- Hàng 4: ECHELLE --><line
     x1="155"
     y1="190"
     x2="287"
     y2="190"
     stroke="#000000"
     stroke-width="0.3"
     id="line8" /><line
     x1="117"
     y1="200"
     x2="287"
     y2="200"
     stroke="#000000"
     stroke-width="0.3"
     id="line9" /><line
     x1="265"
     y1="178"
     x2="265"
     y2="190"
     stroke="#000000"
     stroke-width="0.3"
     id="line10" /><line
     x1="185"
     y1="190"
     x2="185"
     y2="200"
     stroke="#000000"
     stroke-width="0.3"
     id="line11" /><!-- Text labels --><text
     x="136"
     y="149.5"
     font-size="3px"
     font-family="Roboto"
     id="text11">DESSINATEUR</text><text
     x="141"
     y="165.5"
     font-size="3px"
     font-family="Roboto"
     id="text12">DATE</text><text
     x="173"
     y="165.5"
     font-size="3px"
     font-family="Roboto"
     id="text13">TITRE</text><text
     x="266"
     y="181.5"
     font-size="3px"
     font-family="Roboto"
     id="text14">REV.</text><text
     x="156"
     y="193.5"
     font-size="3px"
     font-family="Roboto"
     id="text15">ECHELLE</text><!-- Biểu tượng chiếu (first angle projection) --><!-- Hình côn (truncated cone) --><polygon
     points="125,188 133,187 133,193 125,192 "
     fill="none"
     stroke="#000000"
     stroke-width="0.3"
     id="polygon15" /><line
     x1="125"
     y1="190"
     x2="133"
     y2="190"
     stroke="#000000"
     stroke-width="0.3"
     stroke-dasharray="1, 1"
     id="line15" /><!-- Hình tròn với tâm và trục --><circle
     cx="145"
     cy="190"
     r="4"
     fill="none"
     stroke="#000000"
     stroke-width="0.3"
     id="circle15" /><circle
     cx="145"
     cy="190"
     r="0.5"
     fill="#000000"
     id="circle16" /><line
     x1="145"
     y1="186"
     x2="145"
     y2="194"
     stroke="#000000"
     stroke-width="0.3"
     id="line16" /><line
     x1="141"
     y1="190"
     x2="149"
     y2="190"
     stroke="#000000"
     stroke-width="0.3"
     id="line17" /><g
     style="fill:none"
     id="g17"
     transform="matrix(0.04746597,0,0,0.04746597,175.89785,148.65974)"><g
       clip-path="url(#clip0_2385_1450)"
       id="g10"><path
         d="m 1661.55,135.953 c -0.81,1.251 -1.99,2.889 -3.57,4.686 -1.33,1.502 -4,4.254 -8.02,6.893 -1.71,1.115 -3.5,2.116 -5.37,2.958 -5.13,2.32 -10.75,3.503 -16.71,3.503 -5.97,0 -11.59,-1.16 -16.81,-3.48 -5.22,-2.321 -9.73,-5.642 -13.46,-9.897 -3.66,-4.163 -6.55,-9.213 -8.63,-14.946 -2.05,-5.688 -3.09,-12.035 -3.09,-18.837 0,-6.802 1.04,-12.8539 3.09,-18.4504 2.08,-5.6874 5.02,-10.5559 8.7,-14.4916 3.72,-3.9357 8.22,-7.0525 13.41,-9.2592 10.39,-4.4135 23.2,-4.4135 33.41,0 5.08,2.2295 9.57,5.3235 13.35,9.2137 1.62,1.6835 3.07,3.5717 4.38,5.5964 l 30.31,-18.6548 20.44,-11.2157 c -3.48,-4.8457 -7.41,-9.3047 -11.79,-13.2859 -9.13,-8.3265 -20.06,-14.8329 -32.48,-19.3602 -12.49,-4.5499 -26.24,-6.8477 -40.86,-6.8477 -14.61,0 -28.34,2.2978 -40.85,6.8477 -12.43,4.5273 -23.31,11.0337 -32.35,19.3602 -8.99,8.3037 -16.19,18.5184 -21.34,30.3938 -5.15,11.8754 -7.77,25.3888 -7.77,40.1987 0,14.81 2.62,28.506 7.79,40.654 5.15,12.126 12.36,22.636 21.37,31.213 9.05,8.577 19.92,15.311 32.34,19.997 12.47,4.709 26.2,7.098 40.81,7.098 14.62,0 28.32,-2.389 40.79,-7.098 12.42,-4.686 23.33,-11.42 32.5,-20.02 0.59,-0.568 4.93,-4.982 10.37,-10.965 0.65,-0.728 1.2,-1.32 1.51,-1.684 -17.16,-10.01 -34.33,-20.042 -51.49,-30.052 z"
         fill="#222529"
         id="path1" /><path
         d="m 420.723,36.2176 c -9.124,-8.3264 -20.056,-14.8329 -32.478,-19.3601 -12.49,-4.55 -26.244,-6.8477 -40.857,-6.8477 -14.613,0 -28.345,2.2977 -40.857,6.8477 -12.422,4.5272 -23.309,11.0337 -32.343,19.3601 -8.989,8.3037 -16.194,18.5184 -21.343,30.3938 -5.15,11.8754 -7.77,25.3889 -7.77,40.1986 0,14.811 2.62,28.506 7.792,40.654 5.15,12.126 12.355,22.637 21.366,31.213 9.057,8.577 19.921,15.311 32.343,19.997 12.467,4.71 26.199,7.098 40.812,7.098 14.613,0 28.322,-2.388 40.789,-7.098 12.422,-4.686 23.354,-11.42 32.501,-20.02 9.102,-8.576 16.329,-19.064 21.501,-31.19 5.172,-12.148 7.792,-25.843 7.792,-40.654 0,-14.8097 -2.62,-28.3232 -7.792,-40.1986 -5.149,-11.8527 -12.376,-22.0673 -21.478,-30.371 m -34.443,89.3846 c -2.056,5.733 -5.014,10.783 -8.786,14.992 -3.795,4.231 -8.312,7.53 -13.393,9.85 -5.127,2.321 -10.751,3.504 -16.714,3.504 -5.962,0 -11.586,-1.16 -16.803,-3.481 -5.218,-2.32 -9.735,-5.642 -13.461,-9.896 -3.659,-4.186 -6.55,-9.214 -8.628,-14.947 -2.055,-5.687 -3.094,-12.034 -3.094,-18.837 0,-6.802 1.039,-12.8533 3.094,-18.4497 2.078,-5.6875 5.014,-10.5559 8.695,-14.4917 3.727,-3.9357 8.222,-7.0524 13.416,-9.2592 10.39,-4.4134 23.196,-4.4134 33.404,0 5.082,2.2295 9.577,5.3235 13.348,9.2137 3.817,3.9585 6.799,8.8497 8.876,14.5372 2.056,5.6192 3.095,11.8297 3.095,18.4497 0,6.621 -1.039,13.15 -3.095,18.86"
         fill="#222529"
         id="path2" /><path
         d="M 624.941,10.0776 H 564.818 V 205.681 h 127.428 v -50.459 h -67.305 z"
         fill="#222529"
         id="path3" /><path
         d="m 849.239,129.514 h 70.738 V 84.8109 H 849.239 V 58.5348 h 75.323 V 10.0776 H 793.679 V 205.681 H 929.44 v -48.434 h -80.201 z"
         fill="#222529"
         id="path4" /><path
         d="m 1165.82,123.259 c 10.59,-4.823 18.81,-11.716 24.44,-20.475 5.6,-8.7586 8.44,-19.087 8.44,-30.6895 0,-11.6024 -2.21,-22.1811 -6.61,-30.0525 -4.41,-7.8942 -10.26,-14.2869 -17.37,-18.9734 -7.25,-4.7775 -15.61,-8.1445 -24.85,-10.0555 -9.5,-1.9564 -19.17,-2.9574 -28.79,-2.9574 h -83.05 V 205.659 h 57.55 v -73.004 h 8.87 l 38.85,73.004 h 67.96 l -49.96,-80.375 4.52,-2.048 z m -28.5,-36.9003 c -1.99,2.73 -4.5,4.914 -7.46,6.4837 -2.77,1.4788 -5.82,2.457 -9.08,2.912 -2.95,0.4095 -5.66,0.6142 -8.13,0.6142 h -17.66 V 54.7819 h 20.51 c 2.24,0 4.67,0.1592 7.32,0.455 2.96,0.3412 5.73,1.183 8.26,2.457 2.78,1.3877 5.06,3.5262 6.82,6.3244 1.77,2.821 2.67,6.5065 2.67,10.9655 0,4.4589 -1.09,8.3947 -3.25,11.3749 z"
         fill="#222529"
         id="path5" /><path
         d="m 1261.13,10.1021 76.59,114.9099 v 80.648 h 59.47 V 127.491 L 1330.63,10.1021 Z"
         fill="#222529"
         id="path6" /><path
         d="m 1428.36,4.88281e-4 c -14.84,0 -26.86,12.125711719 -26.86,27.095111719 0,14.9694 12.02,27.0951 26.86,27.0951 14.83,0 26.85,-12.1257 26.85,-27.0951 0,-14.9694 -12.02,-27.095111719 -26.85,-27.095111719 z"
         fill="#7b46e4"
         id="path7" /><path
         d="M 159.228,59.3993 V 10.0776 H -2.44141e-4 V 59.3993 H 49.846 V 205.681 h 59.536 0.022 L 109.382,59.3993 Z"
         fill="#222529"
         id="path8" /><path
         d="m 2241.23,66.908 c -5.15,-11.8527 -12.38,-22.0674 -21.48,-30.3711 -9.12,-8.3264 -20.05,-14.8329 -32.48,-19.3601 -12.44,-4.5272 -26.13,-6.8249 -40.69,-6.8477 l -8.93,0.0683 h -60.12 V 206.001 h 69.05 c 14.54,0 28.23,-2.321 40.65,-7.03 12.42,-4.687 23.35,-11.42 32.5,-20.02 9.1,-8.577 16.33,-19.064 21.5,-31.19 5.17,-12.148 7.79,-25.844 7.79,-40.654 0,-14.8101 -2.62,-28.3236 -7.79,-40.199 z m -55.92,59.036 c -2.06,5.733 -5.01,10.783 -8.79,14.992 -3.79,4.232 -8.31,7.53 -13.39,9.851 -5.08,2.297 -10.66,3.48 -16.55,3.48 h -8.93 V 61.5845 h 8.93 c 5.73,0 11.42,1.1148 16.48,3.3215 5.08,2.2295 9.58,5.3235 13.35,9.2137 3.82,3.9585 6.8,8.8497 8.88,14.5372 2.05,5.6192 3.09,11.8301 3.09,18.4501 0,6.62 -1.04,13.149 -3.09,18.86 z"
         fill="#222529"
         id="path9" /><path
         d="m 1918.78,205.453 62.58,0.228 -54.27,-195.6034 h -84.43 l -54.27,195.6034 62.59,-0.228 5.94,-29.233 h 55.92 z m -33.9,-168.7808 19.1,95.5038 -38.21,0.046 z"
         fill="#222529"
         id="path10" /></g></g></svg>
