<?xml version='1.0' encoding='utf-8'?>
<svg xmlns="http://www.w3.org/2000/svg" xmlns:ns1="http://sodipodi.sourceforge.net/DTD/sodipodi-0.dtd" xmlns:ns2="http://www.inkscape.org/namespaces/inkscape" width="297mm" height="210mm" viewBox="0 0 297 210" version="1.1" id="svg17" ns1:docname="A4_TOLERY.svg" xml:space="preserve"><defs id="defs17"><clipPath id="clip0_2385_1450"><rect width="2249" height="206" fill="#ffffff" id="rect10" x="0" y="0" /></clipPath><marker id="arrowhead" viewBox="0 0 10 10" refX="5" refY="5" markerWidth="6" markerHeight="6" orient="auto-start-reverse"><path d="M 0 0 L 10 5 L 0 10 z" fill="black" /></marker></defs><ns1:namedview id="namedview17" pagecolor="#ffffff" bordercolor="#000000" borderopacity="0.25" ns2:showpageshadow="2" ns2:pageopacity="0.0" ns2:pagecheckerboard="0" ns2:deskcolor="#d1d1d1" ns2:document-units="mm"><ns2:page x="0" y="0" width="297" height="210" id="page2" margin="0" bleed="0" /></ns1:namedview><rect x="10" y="10" width="277" height="190" fill="none" stroke="#000000" stroke-width="0.5" id="rect1" /><rect x="117" y="146" width="170" height="54" fill="none" stroke="#000000" stroke-width="0.5" id="rect2" /><rect x="117" y="146" width="55" height="32" fill="none" stroke="#000000" stroke-width="0.3" id="rect3" /><line x1="117" y1="151" x2="172" y2="151" stroke="#000000" stroke-width="0.3" id="line3" /><line x1="117" y1="162" x2="287" y2="162" stroke="#000000" stroke-width="0.3" id="line4" /><line x1="117" y1="167" x2="172" y2="167" stroke="#000000" stroke-width="0.3" id="line5" /><line x1="117" y1="178" x2="287" y2="178" stroke="#000000" stroke-width="0.3" id="line6" /><line x1="155" y1="178" x2="155" y2="200" stroke="#000000" stroke-width="0.3" id="line7" /><line x1="155" y1="190" x2="287" y2="190" stroke="#000000" stroke-width="0.3" id="line8" /><line x1="117" y1="200" x2="287" y2="200" stroke="#000000" stroke-width="0.3" id="line9" /><line x1="265" y1="178" x2="265" y2="190" stroke="#000000" stroke-width="0.3" id="line10" /><line x1="185" y1="190" x2="185" y2="200" stroke="#000000" stroke-width="0.3" id="line11" /><text x="136" y="149.5" font-size="3px" font-family="Roboto" id="text11">DESSINATEUR</text><text x="141" y="165.5" font-size="3px" font-family="Roboto" id="text12">DATE</text><text x="173" y="165.5" font-size="3px" font-family="Roboto" id="text13">TITRE</text><text x="266" y="181.5" font-size="3px" font-family="Roboto" id="text14">REV.</text><text x="156" y="193.5" font-size="3px" font-family="Roboto" id="text15">ECHELLE</text><polygon points="125,188 133,187 133,193 125,192 " fill="none" stroke="#000000" stroke-width="0.3" id="polygon15" /><line x1="125" y1="190" x2="133" y2="190" stroke="#000000" stroke-width="0.3" stroke-dasharray="1, 1" id="line15" /><circle cx="145" cy="190" r="4" fill="none" stroke="#000000" stroke-width="0.3" id="circle15" /><circle cx="145" cy="190" r="0.5" fill="#000000" id="circle16" /><line x1="145" y1="186" x2="145" y2="194" stroke="#000000" stroke-width="0.3" id="line16" /><line x1="141" y1="190" x2="149" y2="190" stroke="#000000" stroke-width="0.3" id="line17" /><g style="fill:none" id="g17" transform="matrix(0.04746597,0,0,0.04746597,175.89785,148.65974)"><g clip-path="url(#clip0_2385_1450)" id="g10"><path d="m 1661.55,135.953 c -0.81,1.251 -1.99,2.889 -3.57,4.686 -1.33,1.502 -4,4.254 -8.02,6.893 -1.71,1.115 -3.5,2.116 -5.37,2.958 -5.13,2.32 -10.75,3.503 -16.71,3.503 -5.97,0 -11.59,-1.16 -16.81,-3.48 -5.22,-2.321 -9.73,-5.642 -13.46,-9.897 -3.66,-4.163 -6.55,-9.213 -8.63,-14.946 -2.05,-5.688 -3.09,-12.035 -3.09,-18.837 0,-6.802 1.04,-12.8539 3.09,-18.4504 2.08,-5.6874 5.02,-10.5559 8.7,-14.4916 3.72,-3.9357 8.22,-7.0525 13.41,-9.2592 10.39,-4.4135 23.2,-4.4135 33.41,0 5.08,2.2295 9.57,5.3235 13.35,9.2137 1.62,1.6835 3.07,3.5717 4.38,5.5964 l 30.31,-18.6548 20.44,-11.2157 c -3.48,-4.8457 -7.41,-9.3047 -11.79,-13.2859 -9.13,-8.3265 -20.06,-14.8329 -32.48,-19.3602 -12.49,-4.5499 -26.24,-6.8477 -40.86,-6.8477 -14.61,0 -28.34,2.2978 -40.85,6.8477 -12.43,4.5273 -23.31,11.0337 -32.35,19.3602 -8.99,8.3037 -16.19,18.5184 -21.34,30.3938 -5.15,11.8754 -7.77,25.3888 -7.77,40.1987 0,14.81 2.62,28.506 7.79,40.654 5.15,12.126 12.36,22.636 21.37,31.213 9.05,8.577 19.92,15.311 32.34,19.997 12.47,4.709 26.2,7.098 40.81,7.098 14.62,0 28.32,-2.389 40.79,-7.098 12.42,-4.686 23.33,-11.42 32.5,-20.02 0.59,-0.568 4.93,-4.982 10.37,-10.965 0.65,-0.728 1.2,-1.32 1.51,-1.684 -17.16,-10.01 -34.33,-20.042 -51.49,-30.052 z" fill="#222529" id="path1" /><path d="m 420.723,36.2176 c -9.124,-8.3264 -20.056,-14.8329 -32.478,-19.3601 -12.49,-4.55 -26.244,-6.8477 -40.857,-6.8477 -14.613,0 -28.345,2.2977 -40.857,6.8477 -12.422,4.5272 -23.309,11.0337 -32.343,19.3601 -8.989,8.3037 -16.194,18.5184 -21.343,30.3938 -5.15,11.8754 -7.77,25.3889 -7.77,40.1986 0,14.811 2.62,28.506 7.792,40.654 5.15,12.126 12.355,22.637 21.366,31.213 9.057,8.577 19.921,15.311 32.343,19.997 12.467,4.71 26.199,7.098 40.812,7.098 14.613,0 28.322,-2.388 40.789,-7.098 12.422,-4.686 23.354,-11.42 32.501,-20.02 9.102,-8.576 16.329,-19.064 21.501,-31.19 5.172,-12.148 7.792,-25.843 7.792,-40.654 0,-14.8097 -2.62,-28.3232 -7.792,-40.1986 -5.149,-11.8527 -12.376,-22.0673 -21.478,-30.371 m -34.443,89.3846 c -2.056,5.733 -5.014,10.783 -8.786,14.992 -3.795,4.231 -8.312,7.53 -13.393,9.85 -5.127,2.321 -10.751,3.504 -16.714,3.504 -5.962,0 -11.586,-1.16 -16.803,-3.481 -5.218,-2.32 -9.735,-5.642 -13.461,-9.896 -3.659,-4.186 -6.55,-9.214 -8.628,-14.947 -2.055,-5.687 -3.094,-12.034 -3.094,-18.837 0,-6.802 1.039,-12.8533 3.094,-18.4497 2.078,-5.6875 5.014,-10.5559 8.695,-14.4917 3.727,-3.9357 8.222,-7.0524 13.416,-9.2592 10.39,-4.4134 23.196,-4.4134 33.404,0 5.082,2.2295 9.577,5.3235 13.348,9.2137 3.817,3.9585 6.799,8.8497 8.876,14.5372 2.056,5.6192 3.095,11.8297 3.095,18.4497 0,6.621 -1.039,13.15 -3.095,18.86" fill="#222529" id="path2" /><path d="M 624.941,10.0776 H 564.818 V 205.681 h 127.428 v -50.459 h -67.305 z" fill="#222529" id="path3" /><path d="m 849.239,129.514 h 70.738 V 84.8109 H 849.239 V 58.5348 h 75.323 V 10.0776 H 793.679 V 205.681 H 929.44 v -48.434 h -80.201 z" fill="#222529" id="path4" /><path d="m 1165.82,123.259 c 10.59,-4.823 18.81,-11.716 24.44,-20.475 5.6,-8.7586 8.44,-19.087 8.44,-30.6895 0,-11.6024 -2.21,-22.1811 -6.61,-30.0525 -4.41,-7.8942 -10.26,-14.2869 -17.37,-18.9734 -7.25,-4.7775 -15.61,-8.1445 -24.85,-10.0555 -9.5,-1.9564 -19.17,-2.9574 -28.79,-2.9574 h -83.05 V 205.659 h 57.55 v -73.004 h 8.87 l 38.85,73.004 h 67.96 l -49.96,-80.375 4.52,-2.048 z m -28.5,-36.9003 c -1.99,2.73 -4.5,4.914 -7.46,6.4837 -2.77,1.4788 -5.82,2.457 -9.08,2.912 -2.95,0.4095 -5.66,0.6142 -8.13,0.6142 h -17.66 V 54.7819 h 20.51 c 2.24,0 4.67,0.1592 7.32,0.455 2.96,0.3412 5.73,1.183 8.26,2.457 2.78,1.3877 5.06,3.5262 6.82,6.3244 1.77,2.821 2.67,6.5065 2.67,10.9655 0,4.4589 -1.09,8.3947 -3.25,11.3749 z" fill="#222529" id="path5" /><path d="m 1261.13,10.1021 76.59,114.9099 v 80.648 h 59.47 V 127.491 L 1330.63,10.1021 Z" fill="#222529" id="path6" /><path d="m 1428.36,4.88281e-4 c -14.84,0 -26.86,12.125711719 -26.86,27.095111719 0,14.9694 12.02,27.0951 26.86,27.0951 14.83,0 26.85,-12.1257 26.85,-27.0951 0,-14.9694 -12.02,-27.095111719 -26.85,-27.095111719 z" fill="#7b46e4" id="path7" /><path d="M 159.228,59.3993 V 10.0776 H -2.44141e-4 V 59.3993 H 49.846 V 205.681 h 59.536 0.022 L 109.382,59.3993 Z" fill="#222529" id="path8" /><path d="m 2241.23,66.908 c -5.15,-11.8527 -12.38,-22.0674 -21.48,-30.3711 -9.12,-8.3264 -20.05,-14.8329 -32.48,-19.3601 -12.44,-4.5272 -26.13,-6.8249 -40.69,-6.8477 l -8.93,0.0683 h -60.12 V 206.001 h 69.05 c 14.54,0 28.23,-2.321 40.65,-7.03 12.42,-4.687 23.35,-11.42 32.5,-20.02 9.1,-8.577 16.33,-19.064 21.5,-31.19 5.17,-12.148 7.79,-25.844 7.79,-40.654 0,-14.8101 -2.62,-28.3236 -7.79,-40.199 z m -55.92,59.036 c -2.06,5.733 -5.01,10.783 -8.79,14.992 -3.79,4.232 -8.31,7.53 -13.39,9.851 -5.08,2.297 -10.66,3.48 -16.55,3.48 h -8.93 V 61.5845 h 8.93 c 5.73,0 11.42,1.1148 16.48,3.3215 5.08,2.2295 9.58,5.3235 13.35,9.2137 3.82,3.9585 6.8,8.8497 8.88,14.5372 2.05,5.6192 3.09,11.8301 3.09,18.4501 0,6.62 -1.04,13.149 -3.09,18.86 z" fill="#222529" id="path9" /><path d="m 1918.78,205.453 62.58,0.228 -54.27,-195.6034 h -84.43 l -54.27,195.6034 62.59,-0.228 5.94,-29.233 h 55.92 z m -33.9,-168.7808 19.1,95.5038 -38.21,0.046 z" fill="#222529" id="path10" /></g></g><g id="TechDrawViews"><g id="topView" stroke="black" fill="none" stroke-width="0.35"><path d="M 70.213,78.120 L 70.213,75.820 L 70.213,73.520 L 70.213,71.220 L 70.213,68.920 L 70.213,66.619 L 70.213,64.319 L 70.213,62.019 L 70.213,59.719 L 70.213,57.419 L 70.213,55.118 L 70.213,52.818 L 70.213,50.518 L 70.213,48.218 L 70.213,45.918 L 70.213,43.618 L 70.213,41.317 L 70.213,39.017 L 70.213,36.717 L 70.213,34.417" /><path d="M 70.213,78.120 L 70.213,78.120 L 70.213,78.120 L 70.213,78.120 L 70.213,78.120 L 70.213,78.120 L 70.213,78.120 L 70.213,78.120 L 70.213,78.120 L 70.213,78.120 L 70.213,78.120 L 70.213,78.120 L 70.213,78.120 L 70.213,78.120 L 70.213,78.120 L 70.213,78.120 L 70.213,78.120 L 70.213,78.120 L 70.213,78.120 L 70.213,78.120" /><path d="M 70.213,78.120 L 70.213,75.820 L 70.213,73.520 L 70.213,71.220 L 70.213,68.920 L 70.213,66.619 L 70.213,64.319 L 70.213,62.019 L 70.213,59.719 L 70.213,57.419 L 70.213,55.118 L 70.213,52.818 L 70.213,50.518 L 70.213,48.218 L 70.213,45.918 L 70.213,43.618 L 70.213,41.317 L 70.213,39.017 L 70.213,36.717 L 70.213,34.417" /><path d="M 70.213,34.417 L 70.213,34.417 L 70.213,34.417 L 70.213,34.417 L 70.213,34.417 L 70.213,34.417 L 70.213,34.417 L 70.213,34.417 L 70.213,34.417 L 70.213,34.417 L 70.213,34.417 L 70.213,34.417 L 70.213,34.417 L 70.213,34.417 L 70.213,34.417 L 70.213,34.417 L 70.213,34.417 L 70.213,34.417 L 70.213,34.417 L 70.213,34.417" /><path d="M 70.213,78.120 L 70.232,78.571 L 70.288,79.019 L 70.381,79.461 L 70.509,79.894 L 70.674,80.315 L 70.872,80.720 L 71.103,81.108 L 71.365,81.476 L 71.657,81.820 L 71.976,82.139 L 72.321,82.431 L 72.688,82.694 L 73.076,82.925 L 73.482,83.123 L 73.903,83.287 L 74.335,83.416 L 74.777,83.509 L 75.225,83.564 L 75.676,83.583" /><path d="M 75.676,83.583 L 79.414,83.583 L 83.152,83.583 L 86.890,83.583 L 90.628,83.583 L 94.365,83.583 L 98.103,83.583 L 101.841,83.583 L 105.579,83.583 L 109.316,83.583 L 113.054,83.583 L 116.792,83.583 L 120.530,83.583 L 124.268,83.583 L 128.005,83.583 L 131.743,83.583 L 135.481,83.583 L 139.219,83.583 L 142.957,83.583 L 146.694,83.583" /><path d="M 152.157,78.120 L 152.139,78.571 L 152.083,79.019 L 151.990,79.461 L 151.861,79.894 L 151.697,80.315 L 151.499,80.720 L 151.268,81.108 L 151.005,81.476 L 150.714,81.820 L 150.394,82.139 L 150.050,82.431 L 149.682,82.694 L 149.294,82.925 L 148.889,83.123 L 148.468,83.287 L 148.035,83.416 L 147.594,83.509 L 147.146,83.564 L 146.694,83.583" /><path d="M 152.157,78.120 L 152.157,75.820 L 152.157,73.520 L 152.157,71.220 L 152.157,68.920 L 152.157,66.619 L 152.157,64.319 L 152.157,62.019 L 152.157,59.719 L 152.157,57.419 L 152.157,55.118 L 152.157,52.818 L 152.157,50.518 L 152.157,48.218 L 152.157,45.918 L 152.157,43.618 L 152.157,41.317 L 152.157,39.017 L 152.157,36.717 L 152.157,34.417" /><path d="M 152.157,34.417 L 152.139,33.966 L 152.083,33.518 L 151.990,33.076 L 151.861,32.643 L 151.697,32.222 L 151.499,31.817 L 151.268,31.429 L 151.005,31.061 L 150.714,30.717 L 150.394,30.398 L 150.050,30.106 L 149.682,29.843 L 149.294,29.612 L 148.889,29.414 L 148.468,29.250 L 148.035,29.121 L 147.594,29.028 L 147.146,28.973 L 146.694,28.954" /><path d="M 75.676,28.954 L 79.414,28.954 L 83.152,28.954 L 86.890,28.954 L 90.628,28.954 L 94.365,28.954 L 98.103,28.954 L 101.841,28.954 L 105.579,28.954 L 109.316,28.954 L 113.054,28.954 L 116.792,28.954 L 120.530,28.954 L 124.268,28.954 L 128.005,28.954 L 131.743,28.954 L 135.481,28.954 L 139.219,28.954 L 142.957,28.954 L 146.694,28.954" /><path d="M 70.213,34.417 L 70.232,33.966 L 70.288,33.518 L 70.381,33.076 L 70.509,32.643 L 70.674,32.222 L 70.872,31.817 L 71.103,31.429 L 71.365,31.061 L 71.657,30.717 L 71.976,30.398 L 72.321,30.106 L 72.688,29.843 L 73.076,29.612 L 73.482,29.414 L 73.903,29.250 L 74.335,29.121 L 74.777,29.028 L 75.225,28.973 L 75.676,28.954" /><path d="M 122.111,56.269 L 121.519,52.721 L 119.807,49.558 L 117.161,47.122 L 113.868,45.677 L 110.283,45.380 L 106.797,46.263 L 103.786,48.230 L 101.576,51.068 L 100.409,54.470 L 100.409,58.067 L 101.576,61.469 L 103.786,64.307 L 106.797,66.274 L 110.283,67.157 L 113.868,66.860 L 117.161,65.415 L 119.807,62.979 L 121.519,59.816 L 122.111,56.269" /><path d="M 70.213,78.120 L 70.232,78.571 L 70.288,79.019 L 70.381,79.461 L 70.509,79.894 L 70.674,80.315 L 70.872,80.720 L 71.103,81.108 L 71.365,81.476 L 71.657,81.820 L 71.976,82.139 L 72.321,82.431 L 72.688,82.694 L 73.076,82.925 L 73.482,83.123 L 73.903,83.287 L 74.335,83.416 L 74.777,83.509 L 75.225,83.564 L 75.676,83.583" /><path d="M 75.676,83.583 L 75.676,83.583 L 75.676,83.583 L 75.676,83.583 L 75.676,83.583 L 75.676,83.583 L 75.676,83.583 L 75.676,83.583 L 75.676,83.583 L 75.676,83.583 L 75.676,83.583 L 75.676,83.583 L 75.676,83.583 L 75.676,83.583 L 75.676,83.583 L 75.676,83.583 L 75.676,83.583 L 75.676,83.583 L 75.676,83.583 L 75.676,83.583" /><path d="M 75.676,28.954 L 75.676,28.954 L 75.676,28.954 L 75.676,28.954 L 75.676,28.954 L 75.676,28.954 L 75.676,28.954 L 75.676,28.954 L 75.676,28.954 L 75.676,28.954 L 75.676,28.954 L 75.676,28.954 L 75.676,28.954 L 75.676,28.954 L 75.676,28.954 L 75.676,28.954 L 75.676,28.954 L 75.676,28.954 L 75.676,28.954 L 75.676,28.954" /><path d="M 70.213,34.417 L 70.232,33.966 L 70.288,33.518 L 70.381,33.076 L 70.509,32.643 L 70.674,32.222 L 70.872,31.817 L 71.103,31.429 L 71.365,31.061 L 71.657,30.717 L 71.976,30.398 L 72.321,30.106 L 72.688,29.843 L 73.076,29.612 L 73.482,29.414 L 73.903,29.250 L 74.335,29.121 L 74.777,29.028 L 75.225,28.973 L 75.676,28.954" /><path d="M 75.676,83.583 L 79.414,83.583 L 83.152,83.583 L 86.890,83.583 L 90.628,83.583 L 94.365,83.583 L 98.103,83.583 L 101.841,83.583 L 105.579,83.583 L 109.316,83.583 L 113.054,83.583 L 116.792,83.583 L 120.530,83.583 L 124.268,83.583 L 128.005,83.583 L 131.743,83.583 L 135.481,83.583 L 139.219,83.583 L 142.957,83.583 L 146.694,83.583" /><path d="M 152.157,78.120 L 152.139,78.571 L 152.083,79.019 L 151.990,79.461 L 151.861,79.894 L 151.697,80.315 L 151.499,80.720 L 151.268,81.108 L 151.005,81.476 L 150.714,81.820 L 150.394,82.139 L 150.050,82.431 L 149.682,82.694 L 149.294,82.925 L 148.889,83.123 L 148.468,83.287 L 148.035,83.416 L 147.594,83.509 L 147.146,83.564 L 146.694,83.583" /><path d="M 152.157,78.120 L 152.157,75.820 L 152.157,73.520 L 152.157,71.220 L 152.157,68.920 L 152.157,66.619 L 152.157,64.319 L 152.157,62.019 L 152.157,59.719 L 152.157,57.419 L 152.157,55.118 L 152.157,52.818 L 152.157,50.518 L 152.157,48.218 L 152.157,45.918 L 152.157,43.618 L 152.157,41.317 L 152.157,39.017 L 152.157,36.717 L 152.157,34.417" /><path d="M 152.157,34.417 L 152.139,33.966 L 152.083,33.518 L 151.990,33.076 L 151.861,32.643 L 151.697,32.222 L 151.499,31.817 L 151.268,31.429 L 151.005,31.061 L 150.714,30.717 L 150.394,30.398 L 150.050,30.106 L 149.682,29.843 L 149.294,29.612 L 148.889,29.414 L 148.468,29.250 L 148.035,29.121 L 147.594,29.028 L 147.146,28.973 L 146.694,28.954" /><path d="M 75.676,28.954 L 79.414,28.954 L 83.152,28.954 L 86.890,28.954 L 90.628,28.954 L 94.365,28.954 L 98.103,28.954 L 101.841,28.954 L 105.579,28.954 L 109.316,28.954 L 113.054,28.954 L 116.792,28.954 L 120.530,28.954 L 124.268,28.954 L 128.005,28.954 L 131.743,28.954 L 135.481,28.954 L 139.219,28.954 L 142.957,28.954 L 146.694,28.954" /><path d="M 122.111,56.269 L 121.519,52.721 L 119.807,49.558 L 117.161,47.122 L 113.868,45.677 L 110.283,45.380 L 106.797,46.263 L 103.786,48.230 L 101.576,51.068 L 100.409,54.470 L 100.409,58.067 L 101.576,61.469 L 103.786,64.307 L 106.797,66.274 L 110.283,67.157 L 113.868,66.860 L 117.161,65.415 L 119.807,62.979 L 121.519,59.816 L 122.111,56.269" /><path d="M 146.694,83.583 L 146.694,83.583 L 146.694,83.583 L 146.694,83.583 L 146.694,83.583 L 146.694,83.583 L 146.694,83.583 L 146.694,83.583 L 146.694,83.583 L 146.694,83.583 L 146.694,83.583 L 146.694,83.583 L 146.694,83.583 L 146.694,83.583 L 146.694,83.583 L 146.694,83.583 L 146.694,83.583 L 146.694,83.583 L 146.694,83.583 L 146.694,83.583" /><path d="M 146.694,28.954 L 146.694,28.954 L 146.694,28.954 L 146.694,28.954 L 146.694,28.954 L 146.694,28.954 L 146.694,28.954 L 146.694,28.954 L 146.694,28.954 L 146.694,28.954 L 146.694,28.954 L 146.694,28.954 L 146.694,28.954 L 146.694,28.954 L 146.694,28.954 L 146.694,28.954 L 146.694,28.954 L 146.694,28.954 L 146.694,28.954 L 146.694,28.954" /><path d="M 152.157,78.120 L 152.157,78.120 L 152.157,78.120 L 152.157,78.120 L 152.157,78.120 L 152.157,78.120 L 152.157,78.120 L 152.157,78.120 L 152.157,78.120 L 152.157,78.120 L 152.157,78.120 L 152.157,78.120 L 152.157,78.120 L 152.157,78.120 L 152.157,78.120 L 152.157,78.120 L 152.157,78.120 L 152.157,78.120 L 152.157,78.120 L 152.157,78.120" /><path d="M 152.157,34.417 L 152.157,34.417 L 152.157,34.417 L 152.157,34.417 L 152.157,34.417 L 152.157,34.417 L 152.157,34.417 L 152.157,34.417 L 152.157,34.417 L 152.157,34.417 L 152.157,34.417 L 152.157,34.417 L 152.157,34.417 L 152.157,34.417 L 152.157,34.417 L 152.157,34.417 L 152.157,34.417 L 152.157,34.417 L 152.157,34.417 L 152.157,34.417" /><path d="M 122.111,56.269 L 122.111,56.269 L 122.111,56.269 L 122.111,56.269 L 122.111,56.269 L 122.111,56.269 L 122.111,56.269 L 122.111,56.269 L 122.111,56.269 L 122.111,56.269 L 122.111,56.269 L 122.111,56.269 L 122.111,56.269 L 122.111,56.269 L 122.111,56.269 L 122.111,56.269 L 122.111,56.269 L 122.111,56.269 L 122.111,56.269 L 122.111,56.269" /></g><g id="frontView" stroke="black" fill="none" stroke-width="0.35"><path d="M 70.213,103.583 L 70.213,103.583 L 70.213,103.583 L 70.213,103.583 L 70.213,103.583 L 70.213,103.583 L 70.213,103.583 L 70.213,103.583 L 70.213,103.583 L 70.213,103.583 L 70.213,103.583 L 70.213,103.583 L 70.213,103.583 L 70.213,103.583 L 70.213,103.583 L 70.213,103.583 L 70.213,103.583 L 70.213,103.583 L 70.213,103.583 L 70.213,103.583" /><path d="M 70.213,109.046 L 70.213,108.759 L 70.213,108.471 L 70.213,108.184 L 70.213,107.896 L 70.213,107.608 L 70.213,107.321 L 70.213,107.033 L 70.213,106.746 L 70.213,106.458 L 70.213,106.171 L 70.213,105.883 L 70.213,105.596 L 70.213,105.308 L 70.213,105.021 L 70.213,104.733 L 70.213,104.446 L 70.213,104.158 L 70.213,103.871 L 70.213,103.583" /><path d="M 70.213,109.046 L 70.213,109.046 L 70.213,109.046 L 70.213,109.046 L 70.213,109.046 L 70.213,109.046 L 70.213,109.046 L 70.213,109.046 L 70.213,109.046 L 70.213,109.046 L 70.213,109.046 L 70.213,109.046 L 70.213,109.046 L 70.213,109.046 L 70.213,109.046 L 70.213,109.046 L 70.213,109.046 L 70.213,109.046 L 70.213,109.046 L 70.213,109.046" /><path d="M 70.213,109.046 L 70.213,108.759 L 70.213,108.471 L 70.213,108.184 L 70.213,107.896 L 70.213,107.608 L 70.213,107.321 L 70.213,107.033 L 70.213,106.746 L 70.213,106.458 L 70.213,106.171 L 70.213,105.883 L 70.213,105.596 L 70.213,105.308 L 70.213,105.021 L 70.213,104.733 L 70.213,104.446 L 70.213,104.158 L 70.213,103.871 L 70.213,103.583" /><path d="M 70.213,103.583 L 70.232,103.583 L 70.288,103.583 L 70.381,103.583 L 70.509,103.583 L 70.674,103.583 L 70.872,103.583 L 71.103,103.583 L 71.365,103.583 L 71.657,103.583 L 71.976,103.583 L 72.321,103.583 L 72.688,103.583 L 73.076,103.583 L 73.482,103.583 L 73.903,103.583 L 74.335,103.583 L 74.777,103.583 L 75.225,103.583 L 75.676,103.583" /><path d="M 75.676,103.583 L 79.414,103.583 L 83.152,103.583 L 86.890,103.583 L 90.628,103.583 L 94.365,103.583 L 98.103,103.583 L 101.841,103.583 L 105.579,103.583 L 109.316,103.583 L 113.054,103.583 L 116.792,103.583 L 120.530,103.583 L 124.268,103.583 L 128.005,103.583 L 131.743,103.583 L 135.481,103.583 L 139.219,103.583 L 142.957,103.583 L 146.694,103.583" /><path d="M 152.157,103.583 L 152.139,103.583 L 152.083,103.583 L 151.990,103.583 L 151.861,103.583 L 151.697,103.583 L 151.499,103.583 L 151.268,103.583 L 151.005,103.583 L 150.714,103.583 L 150.394,103.583 L 150.050,103.583 L 149.682,103.583 L 149.294,103.583 L 148.889,103.583 L 148.468,103.583 L 148.035,103.583 L 147.594,103.583 L 147.146,103.583 L 146.694,103.583" /><path d="M 152.157,103.583 L 152.157,103.583 L 152.157,103.583 L 152.157,103.583 L 152.157,103.583 L 152.157,103.583 L 152.157,103.583 L 152.157,103.583 L 152.157,103.583 L 152.157,103.583 L 152.157,103.583 L 152.157,103.583 L 152.157,103.583 L 152.157,103.583 L 152.157,103.583 L 152.157,103.583 L 152.157,103.583 L 152.157,103.583 L 152.157,103.583 L 152.157,103.583" /><path d="M 152.157,103.583 L 152.139,103.583 L 152.083,103.583 L 151.990,103.583 L 151.861,103.583 L 151.697,103.583 L 151.499,103.583 L 151.268,103.583 L 151.005,103.583 L 150.714,103.583 L 150.394,103.583 L 150.050,103.583 L 149.682,103.583 L 149.294,103.583 L 148.889,103.583 L 148.468,103.583 L 148.035,103.583 L 147.594,103.583 L 147.146,103.583 L 146.694,103.583" /><path d="M 75.676,103.583 L 79.414,103.583 L 83.152,103.583 L 86.890,103.583 L 90.628,103.583 L 94.365,103.583 L 98.103,103.583 L 101.841,103.583 L 105.579,103.583 L 109.316,103.583 L 113.054,103.583 L 116.792,103.583 L 120.530,103.583 L 124.268,103.583 L 128.005,103.583 L 131.743,103.583 L 135.481,103.583 L 139.219,103.583 L 142.957,103.583 L 146.694,103.583" /><path d="M 70.213,103.583 L 70.232,103.583 L 70.288,103.583 L 70.381,103.583 L 70.509,103.583 L 70.674,103.583 L 70.872,103.583 L 71.103,103.583 L 71.365,103.583 L 71.657,103.583 L 71.976,103.583 L 72.321,103.583 L 72.688,103.583 L 73.076,103.583 L 73.482,103.583 L 73.903,103.583 L 74.335,103.583 L 74.777,103.583 L 75.225,103.583 L 75.676,103.583" /><path d="M 122.111,103.583 L 121.519,103.583 L 119.807,103.583 L 117.161,103.583 L 113.868,103.583 L 110.283,103.583 L 106.797,103.583 L 103.786,103.583 L 101.576,103.583 L 100.409,103.583 L 100.409,103.583 L 101.576,103.583 L 103.786,103.583 L 106.797,103.583 L 110.283,103.583 L 113.868,103.583 L 117.161,103.583 L 119.807,103.583 L 121.519,103.583 L 122.111,103.583" /><path d="M 70.213,109.046 L 70.232,109.046 L 70.288,109.046 L 70.381,109.046 L 70.509,109.046 L 70.674,109.046 L 70.872,109.046 L 71.103,109.046 L 71.365,109.046 L 71.657,109.046 L 71.976,109.046 L 72.321,109.046 L 72.688,109.046 L 73.076,109.046 L 73.482,109.046 L 73.903,109.046 L 74.335,109.046 L 74.777,109.046 L 75.225,109.046 L 75.676,109.046" /><path d="M 75.676,109.046 L 75.676,108.759 L 75.676,108.471 L 75.676,108.184 L 75.676,107.896 L 75.676,107.608 L 75.676,107.321 L 75.676,107.033 L 75.676,106.746 L 75.676,106.458 L 75.676,106.171 L 75.676,105.883 L 75.676,105.596 L 75.676,105.308 L 75.676,105.021 L 75.676,104.733 L 75.676,104.446 L 75.676,104.158 L 75.676,103.871 L 75.676,103.583" /><path d="M 75.676,109.046 L 75.676,108.759 L 75.676,108.471 L 75.676,108.184 L 75.676,107.896 L 75.676,107.608 L 75.676,107.321 L 75.676,107.033 L 75.676,106.746 L 75.676,106.458 L 75.676,106.171 L 75.676,105.883 L 75.676,105.596 L 75.676,105.308 L 75.676,105.021 L 75.676,104.733 L 75.676,104.446 L 75.676,104.158 L 75.676,103.871 L 75.676,103.583" /><path d="M 70.213,109.046 L 70.232,109.046 L 70.288,109.046 L 70.381,109.046 L 70.509,109.046 L 70.674,109.046 L 70.872,109.046 L 71.103,109.046 L 71.365,109.046 L 71.657,109.046 L 71.976,109.046 L 72.321,109.046 L 72.688,109.046 L 73.076,109.046 L 73.482,109.046 L 73.903,109.046 L 74.335,109.046 L 74.777,109.046 L 75.225,109.046 L 75.676,109.046" /><path d="M 75.676,109.046 L 79.414,109.046 L 83.152,109.046 L 86.890,109.046 L 90.628,109.046 L 94.365,109.046 L 98.103,109.046 L 101.841,109.046 L 105.579,109.046 L 109.316,109.046 L 113.054,109.046 L 116.792,109.046 L 120.530,109.046 L 124.268,109.046 L 128.005,109.046 L 131.743,109.046 L 135.481,109.046 L 139.219,109.046 L 142.957,109.046 L 146.694,109.046" /><path d="M 152.157,109.046 L 152.139,109.046 L 152.083,109.046 L 151.990,109.046 L 151.861,109.046 L 151.697,109.046 L 151.499,109.046 L 151.268,109.046 L 151.005,109.046 L 150.714,109.046 L 150.394,109.046 L 150.050,109.046 L 149.682,109.046 L 149.294,109.046 L 148.889,109.046 L 148.468,109.046 L 148.035,109.046 L 147.594,109.046 L 147.146,109.046 L 146.694,109.046" /><path d="M 152.157,109.046 L 152.157,109.046 L 152.157,109.046 L 152.157,109.046 L 152.157,109.046 L 152.157,109.046 L 152.157,109.046 L 152.157,109.046 L 152.157,109.046 L 152.157,109.046 L 152.157,109.046 L 152.157,109.046 L 152.157,109.046 L 152.157,109.046 L 152.157,109.046 L 152.157,109.046 L 152.157,109.046 L 152.157,109.046 L 152.157,109.046 L 152.157,109.046" /><path d="M 152.157,109.046 L 152.139,109.046 L 152.083,109.046 L 151.990,109.046 L 151.861,109.046 L 151.697,109.046 L 151.499,109.046 L 151.268,109.046 L 151.005,109.046 L 150.714,109.046 L 150.394,109.046 L 150.050,109.046 L 149.682,109.046 L 149.294,109.046 L 148.889,109.046 L 148.468,109.046 L 148.035,109.046 L 147.594,109.046 L 147.146,109.046 L 146.694,109.046" /><path d="M 75.676,109.046 L 79.414,109.046 L 83.152,109.046 L 86.890,109.046 L 90.628,109.046 L 94.365,109.046 L 98.103,109.046 L 101.841,109.046 L 105.579,109.046 L 109.316,109.046 L 113.054,109.046 L 116.792,109.046 L 120.530,109.046 L 124.268,109.046 L 128.005,109.046 L 131.743,109.046 L 135.481,109.046 L 139.219,109.046 L 142.957,109.046 L 146.694,109.046" /><path d="M 122.111,109.046 L 121.519,109.046 L 119.807,109.046 L 117.161,109.046 L 113.868,109.046 L 110.283,109.046 L 106.797,109.046 L 103.786,109.046 L 101.576,109.046 L 100.409,109.046 L 100.409,109.046 L 101.576,109.046 L 103.786,109.046 L 106.797,109.046 L 110.283,109.046 L 113.868,109.046 L 117.161,109.046 L 119.807,109.046 L 121.519,109.046 L 122.111,109.046" /><path d="M 146.694,109.046 L 146.694,108.759 L 146.694,108.471 L 146.694,108.184 L 146.694,107.896 L 146.694,107.608 L 146.694,107.321 L 146.694,107.033 L 146.694,106.746 L 146.694,106.458 L 146.694,106.171 L 146.694,105.883 L 146.694,105.596 L 146.694,105.308 L 146.694,105.021 L 146.694,104.733 L 146.694,104.446 L 146.694,104.158 L 146.694,103.871 L 146.694,103.583" /><path d="M 146.694,109.046 L 146.694,108.759 L 146.694,108.471 L 146.694,108.184 L 146.694,107.896 L 146.694,107.608 L 146.694,107.321 L 146.694,107.033 L 146.694,106.746 L 146.694,106.458 L 146.694,106.171 L 146.694,105.883 L 146.694,105.596 L 146.694,105.308 L 146.694,105.021 L 146.694,104.733 L 146.694,104.446 L 146.694,104.158 L 146.694,103.871 L 146.694,103.583" /><path d="M 152.157,109.046 L 152.157,108.759 L 152.157,108.471 L 152.157,108.184 L 152.157,107.896 L 152.157,107.608 L 152.157,107.321 L 152.157,107.033 L 152.157,106.746 L 152.157,106.458 L 152.157,106.171 L 152.157,105.883 L 152.157,105.596 L 152.157,105.308 L 152.157,105.021 L 152.157,104.733 L 152.157,104.446 L 152.157,104.158 L 152.157,103.871 L 152.157,103.583" /><path d="M 152.157,109.046 L 152.157,108.759 L 152.157,108.471 L 152.157,108.184 L 152.157,107.896 L 152.157,107.608 L 152.157,107.321 L 152.157,107.033 L 152.157,106.746 L 152.157,106.458 L 152.157,106.171 L 152.157,105.883 L 152.157,105.596 L 152.157,105.308 L 152.157,105.021 L 152.157,104.733 L 152.157,104.446 L 152.157,104.158 L 152.157,103.871 L 152.157,103.583" /><path d="M 122.111,109.046 L 122.111,108.759 L 122.111,108.471 L 122.111,108.184 L 122.111,107.896 L 122.111,107.608 L 122.111,107.321 L 122.111,107.033 L 122.111,106.746 L 122.111,106.458 L 122.111,106.171 L 122.111,105.883 L 122.111,105.596 L 122.111,105.308 L 122.111,105.021 L 122.111,104.733 L 122.111,104.446 L 122.111,104.158 L 122.111,103.871 L 122.111,103.583" /></g><g id="rightView" stroke="black" fill="none" stroke-width="0.35"><path d="M 221.324,103.583 L 219.023,103.583 L 216.723,103.583 L 214.423,103.583 L 212.123,103.583 L 209.823,103.583 L 207.523,103.583 L 205.222,103.583 L 202.922,103.583 L 200.622,103.583 L 198.322,103.583 L 196.022,103.583 L 193.721,103.583 L 191.421,103.583 L 189.121,103.583 L 186.821,103.583 L 184.521,103.583 L 182.221,103.583 L 179.920,103.583 L 177.620,103.583" /><path d="M 221.324,109.046 L 221.324,108.759 L 221.324,108.471 L 221.324,108.184 L 221.324,107.896 L 221.324,107.608 L 221.324,107.321 L 221.324,107.033 L 221.324,106.746 L 221.324,106.458 L 221.324,106.171 L 221.324,105.883 L 221.324,105.596 L 221.324,105.308 L 221.324,105.021 L 221.324,104.733 L 221.324,104.446 L 221.324,104.158 L 221.324,103.871 L 221.324,103.583" /><path d="M 221.324,109.046 L 219.023,109.046 L 216.723,109.046 L 214.423,109.046 L 212.123,109.046 L 209.823,109.046 L 207.523,109.046 L 205.222,109.046 L 202.922,109.046 L 200.622,109.046 L 198.322,109.046 L 196.022,109.046 L 193.721,109.046 L 191.421,109.046 L 189.121,109.046 L 186.821,109.046 L 184.521,109.046 L 182.221,109.046 L 179.920,109.046 L 177.620,109.046" /><path d="M 177.620,109.046 L 177.620,108.759 L 177.620,108.471 L 177.620,108.184 L 177.620,107.896 L 177.620,107.608 L 177.620,107.321 L 177.620,107.033 L 177.620,106.746 L 177.620,106.458 L 177.620,106.171 L 177.620,105.883 L 177.620,105.596 L 177.620,105.308 L 177.620,105.021 L 177.620,104.733 L 177.620,104.446 L 177.620,104.158 L 177.620,103.871 L 177.620,103.583" /><path d="M 221.324,103.583 L 221.775,103.583 L 222.223,103.583 L 222.665,103.583 L 223.097,103.583 L 223.518,103.583 L 223.924,103.583 L 224.312,103.583 L 224.679,103.583 L 225.024,103.583 L 225.343,103.583 L 225.635,103.583 L 225.897,103.583 L 226.128,103.583 L 226.326,103.583 L 226.491,103.583 L 226.619,103.583 L 226.712,103.583 L 226.768,103.583 L 226.787,103.583" /><path d="M 226.787,103.583 L 226.787,103.583 L 226.787,103.583 L 226.787,103.583 L 226.787,103.583 L 226.787,103.583 L 226.787,103.583 L 226.787,103.583 L 226.787,103.583 L 226.787,103.583 L 226.787,103.583 L 226.787,103.583 L 226.787,103.583 L 226.787,103.583 L 226.787,103.583 L 226.787,103.583 L 226.787,103.583 L 226.787,103.583 L 226.787,103.583 L 226.787,103.583" /><path d="M 221.324,103.583 L 221.775,103.583 L 222.223,103.583 L 222.665,103.583 L 223.097,103.583 L 223.518,103.583 L 223.924,103.583 L 224.312,103.583 L 224.679,103.583 L 225.024,103.583 L 225.343,103.583 L 225.635,103.583 L 225.897,103.583 L 226.128,103.583 L 226.326,103.583 L 226.491,103.583 L 226.619,103.583 L 226.712,103.583 L 226.768,103.583 L 226.787,103.583" /><path d="M 221.324,103.583 L 219.023,103.583 L 216.723,103.583 L 214.423,103.583 L 212.123,103.583 L 209.823,103.583 L 207.523,103.583 L 205.222,103.583 L 202.922,103.583 L 200.622,103.583 L 198.322,103.583 L 196.022,103.583 L 193.721,103.583 L 191.421,103.583 L 189.121,103.583 L 186.821,103.583 L 184.521,103.583 L 182.221,103.583 L 179.920,103.583 L 177.620,103.583" /><path d="M 177.620,103.583 L 177.169,103.583 L 176.721,103.583 L 176.279,103.583 L 175.846,103.583 L 175.426,103.583 L 175.020,103.583 L 174.632,103.583 L 174.265,103.583 L 173.920,103.583 L 173.601,103.583 L 173.309,103.583 L 173.047,103.583 L 172.816,103.583 L 172.617,103.583 L 172.453,103.583 L 172.324,103.583 L 172.232,103.583 L 172.176,103.583 L 172.157,103.583" /><path d="M 172.157,103.583 L 172.157,103.583 L 172.157,103.583 L 172.157,103.583 L 172.157,103.583 L 172.157,103.583 L 172.157,103.583 L 172.157,103.583 L 172.157,103.583 L 172.157,103.583 L 172.157,103.583 L 172.157,103.583 L 172.157,103.583 L 172.157,103.583 L 172.157,103.583 L 172.157,103.583 L 172.157,103.583 L 172.157,103.583 L 172.157,103.583 L 172.157,103.583" /><path d="M 177.620,103.583 L 177.169,103.583 L 176.721,103.583 L 176.279,103.583 L 175.846,103.583 L 175.426,103.583 L 175.020,103.583 L 174.632,103.583 L 174.265,103.583 L 173.920,103.583 L 173.601,103.583 L 173.309,103.583 L 173.047,103.583 L 172.816,103.583 L 172.617,103.583 L 172.453,103.583 L 172.324,103.583 L 172.232,103.583 L 172.176,103.583 L 172.157,103.583" /><path d="M 199.472,103.583 L 195.924,103.583 L 192.761,103.583 L 190.325,103.583 L 188.880,103.583 L 188.583,103.583 L 189.466,103.583 L 191.434,103.583 L 194.272,103.583 L 197.674,103.583 L 201.270,103.583 L 204.672,103.583 L 207.510,103.583 L 209.478,103.583 L 210.360,103.583 L 210.063,103.583 L 208.619,103.583 L 206.183,103.583 L 203.020,103.583 L 199.472,103.583" /><path d="M 221.324,109.046 L 221.775,109.046 L 222.223,109.046 L 222.665,109.046 L 223.097,109.046 L 223.518,109.046 L 223.924,109.046 L 224.312,109.046 L 224.679,109.046 L 225.024,109.046 L 225.343,109.046 L 225.635,109.046 L 225.897,109.046 L 226.128,109.046 L 226.326,109.046 L 226.491,109.046 L 226.619,109.046 L 226.712,109.046 L 226.768,109.046 L 226.787,109.046" /><path d="M 226.787,109.046 L 226.787,108.759 L 226.787,108.471 L 226.787,108.184 L 226.787,107.896 L 226.787,107.608 L 226.787,107.321 L 226.787,107.033 L 226.787,106.746 L 226.787,106.458 L 226.787,106.171 L 226.787,105.883 L 226.787,105.596 L 226.787,105.308 L 226.787,105.021 L 226.787,104.733 L 226.787,104.446 L 226.787,104.158 L 226.787,103.871 L 226.787,103.583" /><path d="M 172.157,109.046 L 172.157,108.759 L 172.157,108.471 L 172.157,108.184 L 172.157,107.896 L 172.157,107.608 L 172.157,107.321 L 172.157,107.033 L 172.157,106.746 L 172.157,106.458 L 172.157,106.171 L 172.157,105.883 L 172.157,105.596 L 172.157,105.308 L 172.157,105.021 L 172.157,104.733 L 172.157,104.446 L 172.157,104.158 L 172.157,103.871 L 172.157,103.583" /><path d="M 177.620,109.046 L 177.169,109.046 L 176.721,109.046 L 176.279,109.046 L 175.846,109.046 L 175.426,109.046 L 175.020,109.046 L 174.632,109.046 L 174.265,109.046 L 173.920,109.046 L 173.601,109.046 L 173.309,109.046 L 173.047,109.046 L 172.816,109.046 L 172.617,109.046 L 172.453,109.046 L 172.324,109.046 L 172.232,109.046 L 172.176,109.046 L 172.157,109.046" /><path d="M 226.787,109.046 L 226.787,109.046 L 226.787,109.046 L 226.787,109.046 L 226.787,109.046 L 226.787,109.046 L 226.787,109.046 L 226.787,109.046 L 226.787,109.046 L 226.787,109.046 L 226.787,109.046 L 226.787,109.046 L 226.787,109.046 L 226.787,109.046 L 226.787,109.046 L 226.787,109.046 L 226.787,109.046 L 226.787,109.046 L 226.787,109.046 L 226.787,109.046" /><path d="M 221.324,109.046 L 221.775,109.046 L 222.223,109.046 L 222.665,109.046 L 223.097,109.046 L 223.518,109.046 L 223.924,109.046 L 224.312,109.046 L 224.679,109.046 L 225.024,109.046 L 225.343,109.046 L 225.635,109.046 L 225.897,109.046 L 226.128,109.046 L 226.326,109.046 L 226.491,109.046 L 226.619,109.046 L 226.712,109.046 L 226.768,109.046 L 226.787,109.046" /><path d="M 221.324,109.046 L 219.023,109.046 L 216.723,109.046 L 214.423,109.046 L 212.123,109.046 L 209.823,109.046 L 207.523,109.046 L 205.222,109.046 L 202.922,109.046 L 200.622,109.046 L 198.322,109.046 L 196.022,109.046 L 193.721,109.046 L 191.421,109.046 L 189.121,109.046 L 186.821,109.046 L 184.521,109.046 L 182.221,109.046 L 179.920,109.046 L 177.620,109.046" /><path d="M 177.620,109.046 L 177.169,109.046 L 176.721,109.046 L 176.279,109.046 L 175.846,109.046 L 175.426,109.046 L 175.020,109.046 L 174.632,109.046 L 174.265,109.046 L 173.920,109.046 L 173.601,109.046 L 173.309,109.046 L 173.047,109.046 L 172.816,109.046 L 172.617,109.046 L 172.453,109.046 L 172.324,109.046 L 172.232,109.046 L 172.176,109.046 L 172.157,109.046" /><path d="M 172.157,109.046 L 172.157,109.046 L 172.157,109.046 L 172.157,109.046 L 172.157,109.046 L 172.157,109.046 L 172.157,109.046 L 172.157,109.046 L 172.157,109.046 L 172.157,109.046 L 172.157,109.046 L 172.157,109.046 L 172.157,109.046 L 172.157,109.046 L 172.157,109.046 L 172.157,109.046 L 172.157,109.046 L 172.157,109.046 L 172.157,109.046 L 172.157,109.046" /><path d="M 199.472,109.046 L 195.924,109.046 L 192.761,109.046 L 190.325,109.046 L 188.880,109.046 L 188.583,109.046 L 189.466,109.046 L 191.434,109.046 L 194.272,109.046 L 197.674,109.046 L 201.270,109.046 L 204.672,109.046 L 207.510,109.046 L 209.478,109.046 L 210.360,109.046 L 210.063,109.046 L 208.619,109.046 L 206.183,109.046 L 203.020,109.046 L 199.472,109.046" /><path d="M 226.787,109.046 L 226.787,108.759 L 226.787,108.471 L 226.787,108.184 L 226.787,107.896 L 226.787,107.608 L 226.787,107.321 L 226.787,107.033 L 226.787,106.746 L 226.787,106.458 L 226.787,106.171 L 226.787,105.883 L 226.787,105.596 L 226.787,105.308 L 226.787,105.021 L 226.787,104.733 L 226.787,104.446 L 226.787,104.158 L 226.787,103.871 L 226.787,103.583" /><path d="M 172.157,109.046 L 172.157,108.759 L 172.157,108.471 L 172.157,108.184 L 172.157,107.896 L 172.157,107.608 L 172.157,107.321 L 172.157,107.033 L 172.157,106.746 L 172.157,106.458 L 172.157,106.171 L 172.157,105.883 L 172.157,105.596 L 172.157,105.308 L 172.157,105.021 L 172.157,104.733 L 172.157,104.446 L 172.157,104.158 L 172.157,103.871 L 172.157,103.583" /><path d="M 221.324,109.046 L 221.324,108.759 L 221.324,108.471 L 221.324,108.184 L 221.324,107.896 L 221.324,107.608 L 221.324,107.321 L 221.324,107.033 L 221.324,106.746 L 221.324,106.458 L 221.324,106.171 L 221.324,105.883 L 221.324,105.596 L 221.324,105.308 L 221.324,105.021 L 221.324,104.733 L 221.324,104.446 L 221.324,104.158 L 221.324,103.871 L 221.324,103.583" /><path d="M 177.620,109.046 L 177.620,108.759 L 177.620,108.471 L 177.620,108.184 L 177.620,107.896 L 177.620,107.608 L 177.620,107.321 L 177.620,107.033 L 177.620,106.746 L 177.620,106.458 L 177.620,106.171 L 177.620,105.883 L 177.620,105.596 L 177.620,105.308 L 177.620,105.021 L 177.620,104.733 L 177.620,104.446 L 177.620,104.158 L 177.620,103.871 L 177.620,103.583" /><path d="M 199.472,109.046 L 199.472,108.759 L 199.472,108.471 L 199.472,108.184 L 199.472,107.896 L 199.472,107.608 L 199.472,107.321 L 199.472,107.033 L 199.472,106.746 L 199.472,106.458 L 199.472,106.171 L 199.472,105.883 L 199.472,105.596 L 199.472,105.308 L 199.472,105.021 L 199.472,104.733 L 199.472,104.446 L 199.472,104.158 L 199.472,103.871 L 199.472,103.583" /></g><g class="dimension"><path stroke="black" stroke-width="0.25" fill="none" d="M 70.21348314606743 109.04606741573033 L 70.21348314606743 111.04606741573033" /><path stroke="black" stroke-width="0.25" fill="none" d="M 152.1573033707865 109.04606741573033 L 152.1573033707865 111.04606741573033" /><path stroke="black" stroke-width="0.25" fill="none" d="M 70.21348314606743 119.04606741573033 L 152.1573033707865 119.04606741573033" marker-start="url(#arrowhead)" marker-end="url(#arrowhead)" /><text x="111.18539325842697" y="122.04606741573033" text-anchor="middle" dominant-baseline="hanging" font-size="3.5">60</text></g><g class="dimension"><path stroke="black" stroke-width="0.25" fill="none" d="M 68.21348314606743 103.58314606741573 L 70.21348314606743 103.58314606741573" /><path stroke="black" stroke-width="0.25" fill="none" d="M 68.21348314606743 109.04606741573033 L 70.21348314606743 109.04606741573033" /><path stroke="black" stroke-width="0.25" fill="none" d="M 60.21348314606743 103.58314606741573 L 60.21348314606743 109.04606741573033" marker-start="url(#arrowhead)" marker-end="url(#arrowhead)" /><text x="57.21348314606743" y="106.31460674157303" text-anchor="end" dominant-baseline="middle" font-size="3.5">4</text></g><g class="dimension"><path stroke="black" stroke-width="0.25" fill="none" d="M 172.1573033707865 109.04606741573033 L 172.1573033707865 111.04606741573033" /><path stroke="black" stroke-width="0.25" fill="none" d="M 226.78651685393257 109.04606741573033 L 226.78651685393257 111.04606741573033" /><path stroke="black" stroke-width="0.25" fill="none" d="M 172.1573033707865 119.04606741573033 L 226.78651685393257 119.04606741573033" marker-start="url(#arrowhead)" marker-end="url(#arrowhead)" /><text x="199.47191011235952" y="122.04606741573033" text-anchor="middle" dominant-baseline="hanging" font-size="3.5">40</text></g></g></svg>