999
FreeCAD v0.19 
  0
SECTION
  2
HEADER
  9
$ACADVER
  1
AC1014
  9
$ACADMAINTVER
 70
     9
  9
$DWGCODEPAGE
  3
ANSI_1252
  9
$TEXTSTYLE
  7
STANDARD
  9
$DIMSTYLE
  2
STANDARD
  9
$DIMTXSTY
  7
STANDARD
  9
$CMLSTYLE
  2
STANDARD
  9
$PEXTMAX
 10
50
 20
50
 30
50
  9
$PEXTMIN
 10
0
 20
0
 30
0
  9
$HANDSEED
  5
FFFF
  0
ENDSEC
  0
SECTION
  2
CLASSES
  0
CLASS
  1
ACDBDICTIONARYWDFLT
  2
AcDbDictionaryWithDefault
  3
ObjectDBX Classes
 90
        0
280
     0
281
     0
  0
CLASS
  1
XRECORD
  2
AcDbXrecord
  3
ObjectDBX Classes
 90
        0
280
     0
281
     0
  0
CLASS
  1
LWPOLYLINE
  2
AcDbPolyline
  3
ObjectDBX Classes
 90
        0
280
     0
281
     1
  0
ENDSEC
  0
SECTION
  2
TABLES
  0
TABLE
  2
VPORT
  5
20
330
0
100
AcDbSymbolTable
 70
     1
  0
VPORT
  5
21
330
20
100
AcDbSymbolTableRecord
100
AcDbViewportTableRecord
  2
*ACTIVE
 70
     0
  0
ENDTAB
  0
TABLE
  2
LTYPE
  5
22
330
0
100
AcDbSymbolTable
 70
     1
  0
LTYPE
  5
23
330
21
100
AcDbSymbolTableRecord
100
AcDbLinetypeTableRecord
  2
BYBLOCK
 70
     0
  3

 72
    65
 73
     0
 40
0.0
  0
LTYPE
  5
24
330
21
100
AcDbSymbolTableRecord
100
AcDbLinetypeTableRecord
  2
BYLAYER
 70
     0
  3

 72
    65
 73
     0
 40
0.0
  0
LTYPE
  5
25
330
21
100
AcDbSymbolTableRecord
100
AcDbLinetypeTableRecord
  2
CONTINUOUS
 70
     0
  3
Solid line
 72
    65
 73
     0
 40
0.0
  0
ENDTAB
  0
TABLE
  2
LAYER
  5
AF5
330
0
100
AcDbSymbolTable
 70
5
  0
LAYER
  5
AF6
330
AF5
100
AcDbSymbolTableRecord
100
AcDbLayerTableRecord
  2
0
 70
   0
 62
   7
  6
CONTINUOUS
  0
LAYER
  5
AF7
330
AF5
100
AcDbSymbolTableRecord
100
AcDbLayerTableRecord
  2
FrontView
 70
    0
 62
    7
  6
CONTINUOUS
  0
LAYER
  5
AF8
330
AF5
100
AcDbSymbolTableRecord
100
AcDbLayerTableRecord
  2
TopView
 70
    0
 62
    7
  6
CONTINUOUS
  0
LAYER
  5
AF9
330
AF5
100
AcDbSymbolTableRecord
100
AcDbLayerTableRecord
  2
RightView
 70
    0
 62
    7
  6
CONTINUOUS
  0
LAYER
  5
AFA
330
AF5
100
AcDbSymbolTableRecord
100
AcDbLayerTableRecord
  2
IsoView
 70
    0
 62
    7
  6
CONTINUOUS
  0
ENDTAB
  0
TABLE
  2
STYLE
  5
70
330
0
100
AcDbSymbolTable
 70
     2
  0
STYLE
  5
71
330
70
100
AcDbSymbolTableRecord
100
AcDbTextStyleTableRecord
  2
STANDARD
 70
     0
 40
0.0
 41
1.0
 50
0.0
 71
     0
 42
2.5
  3
arial.ttf
  4

  0
STYLE
  5
72
330
70
100
AcDbSymbolTableRecord
100
AcDbTextStyleTableRecord
  2
ANNOTATIVE
 70
     0
 40
0.0
 41
1.0
 50
0.0
 71
     0
 42
2.5
  3
arial.ttf
  4

  0
ENDTAB
  0
TABLE
  2
VIEW
  5
73
330
0
100
AcDbSymbolTable
 70
     0
  0
ENDTAB
  0
TABLE
  2
UCS
  5
74
330
0
100
AcDbSymbolTable
 70
     0
  0
ENDTAB
  0
TABLE
  2
APPID
  5
75
330
0
100
AcDbSymbolTable
 70
     2
  0
APPID
  5
76
330
75
100
AcDbSymbolTableRecord
100
AcDbRegAppTableRecord
  2
ACAD
 70
     0
  0
APPID
  5
77
330
75
100
AcDbSymbolTableRecord
100
AcDbRegAppTableRecord
  2
ACADANNOTATIVE
 70
     0
  0
ENDTAB
  0
TABLE
  2
DIMSTYLE
  5
78
330
0
100
AcDbSymbolTable
 70
     2
  0
DIMSTYLE
105
79
330
78
100
AcDbSymbolTableRecord
100
AcDbDimStyleTableRecord
  2
STANDARD
 70
     0
  3

  4

  5

  6

  7

 40
0.0
 41
2.5
 42
0.625
 43
3.75
 44
1.25
 45
0.0
 46
0.0
 47
0.0
 48
0.0
140
2.5
141
2.5
142
0.0
143
0.03937007874016
144
1.0
145
0.0
146
1.0
147
0.625
 71
     0
 72
     0
 73
     0
 74
     0
 75
     0
 76
     0
 77
     1
 78
     8
170
     0
171
     3
172
     1
173
     0
174
     0
175
     0
176
     0
177
     0
178
     0
270
     2
271
     2
272
     2
273
     2
274
     3
340
71
275
     0
280
     0
281
     0
282
     0
283
     0
284
     8
285
     0
286
     0
287
     3
288
     0
  0
ENDTAB
  0
TABLE
  2
BLOCK_RECORD
  5
A01
330
0
100
AcDbSymbolTable
  70
5
  0
BLOCK_RECORD
  5
A02
330
A01
100
AcDbSymbolTableRecord
100
AcDbBlockTableRecord
  2
*MODEL_SPACE
  0
BLOCK_RECORD
  5
A03
330
A01
100
AcDbSymbolTableRecord
100
AcDbBlockTableRecord
  2
*PAPER_SPACE
  0
ENDTAB
  0
ENDSEC
  0
SECTION
  2
BLOCKS
  0
BLOCK
  5
A04
330
A02
100
AcDbEntity
  8
0
100
AcDbBlockBegin
  2
*MODEL_SPACE
 70
   0
 10
0
 20
0
 30
0
  3
*MODEL_SPACE
  1
 
  0
ENDBLK
  5
A05
330
A02
100
AcDbEntity
  8
0
100
AcDbBlockEnd
  0
BLOCK
  5
A06
330
A03
100
AcDbEntity
 67
1
  8
0
100
AcDbBlockBegin
  2
*PAPER_SPACE
 70
   0
 10
0
 20
0
 30
0
  3
*PAPER_SPACE
  1
 
  0
ENDBLK
  5
A07
330
A03
100
AcDbEntity
 67
    1
  8
0
100
AcDbBlockEnd
  0
ENDSEC
  0
SECTION
  2
ENTITIES
  0
SPLINE
  5
A08
330
A02
100
AcDbEntity
  8
FrontView
100
AcDbSpline
210
0
220
0
230
1
 70
8
 71
1
 72
17
 73
15
 74
0
 40
0
 40
0
 40
0.1122
 40
0.224399
 40
0.336599
 40
0.448799
 40
0.560999
 40
0.673198
 40
0.785398
 40
0.897598
 40
1.0098
 40
1.122
 40
1.2342
 40
1.3464
 40
1.4586
 40
1.5708
 40
1.5708
 10
146.822
 20
347
 30
0
 10
146.822
 20
346.937
 30
0
 10
146.822
 20
346.749
 30
0
 10
146.822
 20
346.439
 30
0
 10
146.822
 20
346.01
 30
0
 10
146.822
 20
345.467
 30
0
 10
146.822
 20
344.818
 30
0
 10
146.822
 20
344.071
 30
0
 10
146.822
 20
343.235
 30
0
 10
146.822
 20
342.32
 30
0
 10
146.822
 20
341.339
 30
0
 10
146.822
 20
340.303
 30
0
 10
146.822
 20
339.225
 30
0
 10
146.822
 20
338.12
 30
0
 10
146.822
 20
337
 30
0
  0
LINE
  5
A09
330
A02
100
AcDbEntity
  8
FrontView
100
AcDbLine
 10
146.822
 20
312
 30
0
 11
146.822
 21
337
 31
0
  0
LINE
  5
A0A
330
A02
100
AcDbEntity
  8
FrontView
100
AcDbLine
 10
146.822
 20
347
 30
0
 11
374.822
 21
347
 31
0
  0
LINE
  5
A0B
330
A02
100
AcDbEntity
  8
FrontView
100
AcDbLine
 10
374.822
 20
347
 30
0
 11
376.822
 21
347
 31
0
  0
SPLINE
  5
A0C
330
A02
100
AcDbEntity
  8
FrontView
100
AcDbSpline
210
0
220
0
230
1
 70
8
 71
1
 72
17
 73
15
 74
0
 40
0
 40
0
 40
0.090436
 40
0.180872
 40
0.271308
 40
0.361744
 40
0.45218
 40
0.542616
 40
0.633052
 40
0.723488
 40
0.813924
 40
0.90436
 40
0.994796
 40
1.08523
 40
1.17567
 40
1.2661
 40
1.2661
 10
374.822
 20
347
 30
0
 10
374.822
 20
346.959
 30
0
 10
374.822
 20
346.837
 30
0
 10
374.822
 20
346.634
 30
0
 10
374.822
 20
346.353
 30
0
 10
374.822
 20
345.995
 30
0
 10
374.822
 20
345.564
 30
0
 10
374.822
 20
345.062
 30
0
 10
374.822
 20
344.495
 30
0
 10
374.822
 20
343.867
 30
0
 10
374.822
 20
343.182
 30
0
 10
374.822
 20
342.447
 30
0
 10
374.822
 20
341.667
 30
0
 10
374.822
 20
340.849
 30
0
 10
374.822
 20
340
 30
0
  0
SPLINE
  5
A0D
330
A02
100
AcDbEntity
  8
FrontView
100
AcDbSpline
210
0
220
0
230
1
 70
8
 71
3
 72
8
 73
4
 74
0
 40
1.2661
 40
1.2661
 40
1.2661
 40
1.2661
 40
1.5708
 40
1.5708
 40
1.5708
 40
1.5708
 10
376.823
 20
340
 30
0
 10
376.822
 20
339.031
 30
0
 10
376.823
 20
338.016
 30
0
 10
376.822
 20
337
 30
0
  0
LINE
  5
A0E
330
A02
100
AcDbEntity
  8
FrontView
100
AcDbLine
 10
374.822
 20
340
 30
0
 11
376.822
 21
340
 31
0
  0
SPLINE
  5
A0F
330
A02
100
AcDbEntity
  8
FrontView
100
AcDbSpline
210
0
220
0
230
1
 70
8
 71
1
 72
17
 73
15
 74
0
 40
5.35589
 40
5.35589
 40
5.42213
 40
5.48836
 40
5.5546
 40
5.62083
 40
5.68707
 40
5.7533
 40
5.81954
 40
5.88577
 40
5.95201
 40
6.01824
 40
6.08448
 40
6.15071
 40
6.21695
 40
6.28319
 40
6.28319
 10
374.822
 20
340
 30
0
 10
374.822
 20
340.258
 30
0
 10
374.822
 20
340.502
 30
0
 10
374.822
 20
340.731
 30
0
 10
374.822
 20
340.943
 30
0
 10
374.822
 20
341.138
 30
0
 10
374.822
 20
341.314
 30
0
 10
374.822
 20
341.472
 30
0
 10
374.822
 20
341.61
 30
0
 10
374.822
 20
341.728
 30
0
 10
374.822
 20
341.826
 30
0
 10
374.822
 20
341.902
 30
0
 10
374.822
 20
341.956
 30
0
 10
374.822
 20
341.989
 30
0
 10
374.822
 20
342
 30
0
  0
LINE
  5
A10
330
A02
100
AcDbEntity
  8
FrontView
100
AcDbLine
 10
376.822
 20
312
 30
0
 11
376.822
 21
337
 31
0
  0
LINE
  5
A11
330
A02
100
AcDbEntity
  8
FrontView
100
AcDbLine
 10
146.822
 20
312
 30
0
 11
376.822
 21
312
 31
0
  0
LINE
  5
A12
330
A02
100
AcDbEntity
  8
FrontView
100
AcDbLine
 10
376.822
 20
342
 30
0
 11
374.822
 21
342
 31
0
  0
LINE
  5
A13
330
A02
100
AcDbEntity
  8
FrontView
100
AcDbLine
 10
376.822
 20
342
 30
0
 11
376.822
 21
347
 31
0
  0
LINE
  5
A14
330
A02
100
AcDbEntity
  8
FrontView
100
AcDbLine
 10
146.822
 20
337
 30
0
 11
376.822
 21
337
 31
0
  0
LINE
  5
A15
330
A02
100
AcDbEntity
  8
FrontView
100
AcDbLine
 10
146.822
 20
312
 30
0
 11
146.822
 21
337
 31
0
  0
SPLINE
  5
A16
330
A02
100
AcDbEntity
  8
FrontView
100
AcDbSpline
210
0
220
0
230
1
 70
8
 71
1
 72
17
 73
15
 74
0
 40
4.71239
 40
4.71239
 40
4.82459
 40
4.93679
 40
5.04899
 40
5.16119
 40
5.27339
 40
5.38559
 40
5.49779
 40
5.60999
 40
5.72219
 40
5.83439
 40
5.94659
 40
6.05879
 40
6.17099
 40
6.28319
 40
6.28319
 10
146.822
 20
337
 30
0
 10
146.822
 20
338.12
 30
0
 10
146.822
 20
339.225
 30
0
 10
146.822
 20
340.303
 30
0
 10
146.822
 20
341.339
 30
0
 10
146.822
 20
342.32
 30
0
 10
146.822
 20
343.235
 30
0
 10
146.822
 20
344.071
 30
0
 10
146.822
 20
344.818
 30
0
 10
146.822
 20
345.467
 30
0
 10
146.822
 20
346.01
 30
0
 10
146.822
 20
346.439
 30
0
 10
146.822
 20
346.749
 30
0
 10
146.822
 20
346.937
 30
0
 10
146.822
 20
347
 30
0
  0
LINE
  5
A17
330
A02
100
AcDbEntity
  8
FrontView
100
AcDbLine
 10
146.822
 20
312
 30
0
 11
146.822
 21
337
 31
0
  0
SPLINE
  5
A18
330
A02
100
AcDbEntity
  8
FrontView
100
AcDbSpline
210
0
220
0
230
1
 70
8
 71
2
 72
30
 73
27
 74
0
 40
0
 40
0
 40
0
 40
0.1122
 40
0.1122
 40
0.224399
 40
0.224399
 40
0.336599
 40
0.336599
 40
0.448799
 40
0.448799
 40
0.560999
 40
0.560999
 40
0.673198
 40
0.673198
 40
0.785398
 40
0.785398
 40
0.897598
 40
0.897598
 40
1.0098
 40
1.0098
 40
1.122
 40
1.122
 40
1.2342
 40
1.2342
 40
1.3464
 40
1.3464
 40
1.5708
 40
1.5708
 40
1.5708
 10
146.822
 20
342
 30
0
 10
146.822
 20
341.984
 30
0
 10
146.822
 20
341.969
 30
0
 10
146.822
 20
341.922
 30
0
 10
146.822
 20
341.875
 30
0
 10
146.822
 20
341.797
 30
0
 10
146.822
 20
341.719
 30
0
 10
146.822
 20
341.612
 30
0
 10
146.822
 20
341.505
 30
0
 10
146.822
 20
341.369
 30
0
 10
146.822
 20
341.234
 30
0
 10
146.822
 20
341.071
 30
0
 10
146.822
 20
340.909
 30
0
 10
146.822
 20
340.722
 30
0
 10
146.822
 20
340.536
 30
0
 10
146.822
 20
340.326
 30
0
 10
146.822
 20
340.117
 30
0
 10
146.822
 20
339.889
 30
0
 10
146.822
 20
339.66
 30
0
 10
146.822
 20
339.415
 30
0
 10
146.822
 20
339.169
 30
0
 10
146.822
 20
338.91
 30
0
 10
146.822
 20
338.651
 30
0
 10
146.822
 20
338.382
 30
0
 10
146.822
 20
338.113
 30
0
 10
146.822
 20
337.562
 30
0
 10
146.822
 20
337
 30
0
  0
SPLINE
  5
A19
330
A02
100
AcDbEntity
  8
FrontView
100
AcDbSpline
210
0
220
0
230
1
 70
8
 71
1
 72
17
 73
15
 74
0
 40
4.71239
 40
4.71239
 40
4.82459
 40
4.93679
 40
5.04899
 40
5.16119
 40
5.27339
 40
5.38559
 40
5.49779
 40
5.60999
 40
5.72219
 40
5.83439
 40
5.94659
 40
6.05879
 40
6.17099
 40
6.28319
 40
6.28319
 10
146.822
 20
337
 30
0
 10
146.822
 20
337.56
 30
0
 10
146.822
 20
338.113
 30
0
 10
146.822
 20
338.651
 30
0
 10
146.822
 20
339.169
 30
0
 10
146.822
 20
339.66
 30
0
 10
146.822
 20
340.117
 30
0
 10
146.822
 20
340.536
 30
0
 10
146.822
 20
340.909
 30
0
 10
146.822
 20
341.234
 30
0
 10
146.822
 20
341.505
 30
0
 10
146.822
 20
341.719
 30
0
 10
146.822
 20
341.875
 30
0
 10
146.822
 20
341.969
 30
0
 10
146.822
 20
342
 30
0
  0
LINE
  5
A1A
330
A02
100
AcDbEntity
  8
FrontView
100
AcDbLine
 10
146.822
 20
312
 30
0
 11
146.822
 21
337
 31
0
  0
LINE
  5
A1B
330
A02
100
AcDbEntity
  8
FrontView
100
AcDbLine
 10
376.822
 20
312
 30
0
 11
376.822
 21
337
 31
0
  0
LINE
  5
A1C
330
A02
100
AcDbEntity
  8
FrontView
100
AcDbLine
 10
146.822
 20
312
 30
0
 11
376.822
 21
312
 31
0
  0
SPLINE
  5
A1D
330
A02
100
AcDbEntity
  8
FrontView
100
AcDbSpline
210
0
220
0
230
1
 70
8
 71
3
 72
8
 73
4
 74
0
 40
4.71239
 40
4.71239
 40
4.71239
 40
4.71239
 40
5.01708
 40
5.01708
 40
5.01708
 40
5.01708
 10
376.822
 20
337
 30
0
 10
376.823
 20
338.016
 30
0
 10
376.822
 20
339.031
 30
0
 10
376.822
 20
340
 30
0
  0
LINE
  5
A1E
330
A02
100
AcDbEntity
  8
FrontView
100
AcDbLine
 10
146.822
 20
347
 30
0
 11
374.822
 21
347
 31
0
  0
SPLINE
  5
A1F
330
A02
100
AcDbEntity
  8
FrontView
100
AcDbSpline
210
0
220
0
230
1
 70
8
 71
1
 72
17
 73
15
 74
0
 40
5.01708
 40
5.01708
 40
5.10752
 40
5.19795
 40
5.28839
 40
5.37883
 40
5.46926
 40
5.5597
 40
5.65013
 40
5.74057
 40
5.83101
 40
5.92144
 40
6.01188
 40
6.10231
 40
6.19275
 40
6.28319
 40
6.28319
 10
374.822
 20
340
 30
0
 10
374.822
 20
340.849
 30
0
 10
374.822
 20
341.667
 30
0
 10
374.822
 20
342.447
 30
0
 10
374.822
 20
343.182
 30
0
 10
374.822
 20
343.867
 30
0
 10
374.822
 20
344.495
 30
0
 10
374.822
 20
345.062
 30
0
 10
374.822
 20
345.564
 30
0
 10
374.822
 20
345.995
 30
0
 10
374.822
 20
346.353
 30
0
 10
374.822
 20
346.634
 30
0
 10
374.822
 20
346.837
 30
0
 10
374.822
 20
346.959
 30
0
 10
374.822
 20
347
 30
0
  0
LINE
  5
A20
330
A02
100
AcDbEntity
  8
FrontView
100
AcDbLine
 10
376.822
 20
340
 30
0
 11
374.822
 21
340
 31
0
  0
LINE
  5
A21
330
A02
100
AcDbEntity
  8
FrontView
100
AcDbLine
 10
146.822
 20
312
 30
0
 11
376.822
 21
312
 31
0
  0
LINE
  5
A22
330
A02
100
AcDbEntity
  8
FrontView
100
AcDbLine
 10
374.822
 20
347
 30
0
 11
376.822
 21
347
 31
0
  0
SPLINE
  5
A23
330
A02
100
AcDbEntity
  8
FrontView
100
AcDbSpline
210
0
220
0
230
1
 70
8
 71
1
 72
17
 73
15
 74
0
 40
0
 40
0
 40
0.224399
 40
0.448799
 40
0.673198
 40
0.897598
 40
1.122
 40
1.3464
 40
1.5708
 40
1.7952
 40
2.0196
 40
2.24399
 40
2.46839
 40
2.69279
 40
2.91719
 40
3.14159
 40
3.14159
 10
197.822
 20
347
 30
0
 10
197.547
 20
347
 30
0
 10
196.733
 20
347
 30
0
 10
195.423
 20
347
 30
0
 10
193.681
 20
347
 30
0
 10
191.595
 20
347
 30
0
 10
189.27
 20
347
 30
0
 10
186.822
 20
347
 30
0
 10
184.375
 20
347
 30
0
 10
182.05
 20
347
 30
0
 10
179.964
 20
347
 30
0
 10
178.222
 20
347
 30
0
 10
176.912
 20
347
 30
0
 10
176.098
 20
347
 30
0
 10
175.822
 20
347
 30
0
  0
SPLINE
  5
A24
330
A02
100
AcDbEntity
  8
FrontView
100
AcDbSpline
210
0
220
0
230
1
 70
8
 71
1
 72
17
 73
15
 74
0
 40
3.14159
 40
3.14159
 40
3.36599
 40
3.59039
 40
3.81479
 40
4.03919
 40
4.26359
 40
4.48799
 40
4.71239
 40
4.93679
 40
5.16119
 40
5.38559
 40
5.60999
 40
5.83439
 40
6.05879
 40
6.28319
 40
6.28319
 10
175.822
 20
347
 30
0
 10
176.098
 20
347
 30
0
 10
176.912
 20
347
 30
0
 10
178.222
 20
347
 30
0
 10
179.964
 20
347
 30
0
 10
182.05
 20
347
 30
0
 10
184.375
 20
347
 30
0
 10
186.822
 20
347
 30
0
 10
189.27
 20
347
 30
0
 10
191.595
 20
347
 30
0
 10
193.681
 20
347
 30
0
 10
195.423
 20
347
 30
0
 10
196.733
 20
347
 30
0
 10
197.547
 20
347
 30
0
 10
197.822
 20
347
 30
0
  0
SPLINE
  5
A25
330
A02
100
AcDbEntity
  8
FrontView
100
AcDbSpline
210
0
220
0
230
1
 70
8
 71
1
 72
17
 73
15
 74
0
 40
0
 40
0
 40
0.224399
 40
0.448799
 40
0.673198
 40
0.897598
 40
1.122
 40
1.3464
 40
1.5708
 40
1.7952
 40
2.0196
 40
2.24399
 40
2.46839
 40
2.69279
 40
2.91719
 40
3.14159
 40
3.14159
 10
307.822
 20
347
 30
0
 10
307.547
 20
347
 30
0
 10
306.733
 20
347
 30
0
 10
305.423
 20
347
 30
0
 10
303.681
 20
347
 30
0
 10
301.595
 20
347
 30
0
 10
299.27
 20
347
 30
0
 10
296.822
 20
347
 30
0
 10
294.375
 20
347
 30
0
 10
292.05
 20
347
 30
0
 10
289.964
 20
347
 30
0
 10
288.222
 20
347
 30
0
 10
286.912
 20
347
 30
0
 10
286.098
 20
347
 30
0
 10
285.822
 20
347
 30
0
  0
SPLINE
  5
A26
330
A02
100
AcDbEntity
  8
FrontView
100
AcDbSpline
210
0
220
0
230
1
 70
8
 71
1
 72
17
 73
15
 74
0
 40
3.14159
 40
3.14159
 40
3.36599
 40
3.59039
 40
3.81479
 40
4.03919
 40
4.26359
 40
4.48799
 40
4.71239
 40
4.93679
 40
5.16119
 40
5.38559
 40
5.60999
 40
5.83439
 40
6.05879
 40
6.28319
 40
6.28319
 10
285.822
 20
347
 30
0
 10
286.098
 20
347
 30
0
 10
286.912
 20
347
 30
0
 10
288.222
 20
347
 30
0
 10
289.964
 20
347
 30
0
 10
292.05
 20
347
 30
0
 10
294.375
 20
347
 30
0
 10
296.822
 20
347
 30
0
 10
299.27
 20
347
 30
0
 10
301.595
 20
347
 30
0
 10
303.681
 20
347
 30
0
 10
305.423
 20
347
 30
0
 10
306.733
 20
347
 30
0
 10
307.547
 20
347
 30
0
 10
307.822
 20
347
 30
0
  0
LINE
  5
A27
330
A02
100
AcDbEntity
  8
FrontView
100
AcDbLine
 10
376.822
 20
312
 30
0
 11
376.822
 21
337
 31
0
  0
SPLINE
  5
A28
330
A02
100
AcDbEntity
  8
FrontView
100
AcDbSpline
210
0
220
0
230
1
 70
8
 71
3
 72
8
 73
4
 74
0
 40
4.71239
 40
4.71239
 40
4.71239
 40
4.71239
 40
5.35589
 40
5.35589
 40
5.35589
 40
5.35589
 10
376.822
 20
337
 30
0
 10
376.822
 20
338.073
 30
0
 10
376.822
 20
339.142
 30
0
 10
376.822
 20
340
 30
0
  0
LINE
  5
A29
330
A02
100
AcDbEntity
  8
FrontView
100
AcDbLine
 10
146.822
 20
342
 30
0
 11
374.822
 21
342
 31
0
  0
LINE
  5
A2A
330
A02
100
AcDbEntity
  8
FrontView
100
AcDbLine
 10
376.822
 20
340
 30
0
 11
374.822
 21
340
 31
0
  0
LINE
  5
A2B
330
A02
100
AcDbEntity
  8
FrontView
100
AcDbLine
 10
146.822
 20
342
 30
0
 11
374.822
 21
342
 31
0
  0
LINE
  5
A2C
330
A02
100
AcDbEntity
  8
FrontView
100
AcDbLine
 10
376.822
 20
342
 30
0
 11
374.822
 21
342
 31
0
  0
SPLINE
  5
A2D
330
A02
100
AcDbEntity
  8
FrontView
100
AcDbSpline
210
0
220
0
230
1
 70
8
 71
1
 72
17
 73
15
 74
0
 40
0
 40
0
 40
0.224399
 40
0.448799
 40
0.673198
 40
0.897598
 40
1.122
 40
1.3464
 40
1.5708
 40
1.7952
 40
2.0196
 40
2.24399
 40
2.46839
 40
2.69279
 40
2.91719
 40
3.14159
 40
3.14159
 10
197.822
 20
342
 30
0
 10
197.547
 20
342
 30
0
 10
196.733
 20
342
 30
0
 10
195.423
 20
342
 30
0
 10
193.681
 20
342
 30
0
 10
191.595
 20
342
 30
0
 10
189.27
 20
342
 30
0
 10
186.822
 20
342
 30
0
 10
184.375
 20
342
 30
0
 10
182.05
 20
342
 30
0
 10
179.964
 20
342
 30
0
 10
178.222
 20
342
 30
0
 10
176.912
 20
342
 30
0
 10
176.098
 20
342
 30
0
 10
175.822
 20
342
 30
0
  0
SPLINE
  5
A2E
330
A02
100
AcDbEntity
  8
FrontView
100
AcDbSpline
210
0
220
0
230
1
 70
8
 71
1
 72
17
 73
15
 74
0
 40
3.14159
 40
3.14159
 40
3.36599
 40
3.59039
 40
3.81479
 40
4.03919
 40
4.26359
 40
4.48799
 40
4.71239
 40
4.93679
 40
5.16119
 40
5.38559
 40
5.60999
 40
5.83439
 40
6.05879
 40
6.28319
 40
6.28319
 10
175.822
 20
342
 30
0
 10
176.098
 20
342
 30
0
 10
176.912
 20
342
 30
0
 10
178.222
 20
342
 30
0
 10
179.964
 20
342
 30
0
 10
182.05
 20
342
 30
0
 10
184.375
 20
342
 30
0
 10
186.822
 20
342
 30
0
 10
189.27
 20
342
 30
0
 10
191.595
 20
342
 30
0
 10
193.681
 20
342
 30
0
 10
195.423
 20
342
 30
0
 10
196.733
 20
342
 30
0
 10
197.547
 20
342
 30
0
 10
197.822
 20
342
 30
0
  0
SPLINE
  5
A2F
330
A02
100
AcDbEntity
  8
FrontView
100
AcDbSpline
210
0
220
0
230
1
 70
8
 71
1
 72
17
 73
15
 74
0
 40
0
 40
0
 40
0.224399
 40
0.448799
 40
0.673198
 40
0.897598
 40
1.122
 40
1.3464
 40
1.5708
 40
1.7952
 40
2.0196
 40
2.24399
 40
2.46839
 40
2.69279
 40
2.91719
 40
3.14159
 40
3.14159
 10
307.822
 20
342
 30
0
 10
307.547
 20
342
 30
0
 10
306.733
 20
342
 30
0
 10
305.423
 20
342
 30
0
 10
303.681
 20
342
 30
0
 10
301.595
 20
342
 30
0
 10
299.27
 20
342
 30
0
 10
296.822
 20
342
 30
0
 10
294.375
 20
342
 30
0
 10
292.05
 20
342
 30
0
 10
289.964
 20
342
 30
0
 10
288.222
 20
342
 30
0
 10
286.912
 20
342
 30
0
 10
286.098
 20
342
 30
0
 10
285.822
 20
342
 30
0
  0
SPLINE
  5
A30
330
A02
100
AcDbEntity
  8
FrontView
100
AcDbSpline
210
0
220
0
230
1
 70
8
 71
1
 72
17
 73
15
 74
0
 40
3.14159
 40
3.14159
 40
3.36599
 40
3.59039
 40
3.81479
 40
4.03919
 40
4.26359
 40
4.48799
 40
4.71239
 40
4.93679
 40
5.16119
 40
5.38559
 40
5.60999
 40
5.83439
 40
6.05879
 40
6.28319
 40
6.28319
 10
285.822
 20
342
 30
0
 10
286.098
 20
342
 30
0
 10
286.912
 20
342
 30
0
 10
288.222
 20
342
 30
0
 10
289.964
 20
342
 30
0
 10
292.05
 20
342
 30
0
 10
294.375
 20
342
 30
0
 10
296.822
 20
342
 30
0
 10
299.27
 20
342
 30
0
 10
301.595
 20
342
 30
0
 10
303.681
 20
342
 30
0
 10
305.423
 20
342
 30
0
 10
306.733
 20
342
 30
0
 10
307.547
 20
342
 30
0
 10
307.822
 20
342
 30
0
  0
LINE
  5
A31
330
A02
100
AcDbEntity
  8
FrontView
100
AcDbLine
 10
146.822
 20
312
 30
0
 11
376.822
 21
312
 31
0
  0
SPLINE
  5
A32
330
A02
100
AcDbEntity
  8
FrontView
100
AcDbSpline
210
0
220
0
230
1
 70
8
 71
1
 72
17
 73
15
 74
0
 40
0
 40
0
 40
0.0662354
 40
0.132471
 40
0.198706
 40
0.264941
 40
0.331177
 40
0.397412
 40
0.463648
 40
0.529883
 40
0.596118
 40
0.662354
 40
0.728589
 40
0.794824
 40
0.86106
 40
0.927295
 40
0.927295
 10
374.822
 20
342
 30
0
 10
374.822
 20
341.989
 30
0
 10
374.822
 20
341.956
 30
0
 10
374.822
 20
341.902
 30
0
 10
374.822
 20
341.826
 30
0
 10
374.822
 20
341.728
 30
0
 10
374.822
 20
341.61
 30
0
 10
374.822
 20
341.472
 30
0
 10
374.822
 20
341.314
 30
0
 10
374.822
 20
341.138
 30
0
 10
374.822
 20
340.943
 30
0
 10
374.822
 20
340.731
 30
0
 10
374.822
 20
340.502
 30
0
 10
374.822
 20
340.258
 30
0
 10
374.822
 20
340
 30
0
  0
SPLINE
  5
A33
330
A02
100
AcDbEntity
  8
FrontView
100
AcDbSpline
210
0
220
0
230
1
 70
8
 71
3
 72
8
 73
4
 74
0
 40
0.927295
 40
0.927295
 40
0.927295
 40
0.927295
 40
1.5708
 40
1.5708
 40
1.5708
 40
1.5708
 10
376.822
 20
340
 30
0
 10
376.822
 20
339.142
 30
0
 10
376.822
 20
338.073
 30
0
 10
376.822
 20
337
 30
0
  0
LINE
  5
A34
330
A02
100
AcDbEntity
  8
FrontView
100
AcDbLine
 10
374.822
 20
340
 30
0
 11
376.822
 21
340
 31
0
  0
LINE
  5
A35
330
A02
100
AcDbEntity
  8
FrontView
100
AcDbLine
 10
376.822
 20
312
 30
0
 11
376.822
 21
337
 31
0
  0
LINE
  5
A36
330
A02
100
AcDbEntity
  8
FrontView
100
AcDbLine
 10
374.822
 20
342
 30
0
 11
374.822
 21
347
 31
0
  0
LINE
  5
A37
330
A02
100
AcDbEntity
  8
FrontView
100
AcDbLine
 10
374.822
 20
342
 30
0
 11
374.822
 21
347
 31
0
  0
LINE
  5
A38
330
A02
100
AcDbEntity
  8
FrontView
100
AcDbLine
 10
376.822
 20
342
 30
0
 11
376.822
 21
347
 31
0
  0
LINE
  5
A39
330
A02
100
AcDbEntity
  8
FrontView
100
AcDbLine
 10
197.822
 20
342
 30
0
 11
197.822
 21
347
 31
0
  0
LINE
  5
A3A
330
A02
100
AcDbEntity
  8
FrontView
100
AcDbLine
 10
307.822
 20
342
 30
0
 11
307.822
 21
347
 31
0
  0
LINE
  5
A3B
330
A02
100
AcDbEntity
  8
FrontView
100
AcDbLine
 10
175.822
 20
342
 30
0
 11
175.822
 21
347
 31
0
  0
LINE
  5
A3C
330
A02
100
AcDbEntity
  8
FrontView
100
AcDbLine
 10
285.822
 20
342
 30
0
 11
285.822
 21
347
 31
0
  0
LINE
  5
A3D
330
A02
100
AcDbEntity
  8
TopView
100
AcDbLine
 10
146.822
 20
282
 30
0
 11
146.822
 21
277
 31
0
  0
SPLINE
  5
A3E
330
A02
100
AcDbEntity
  8
TopView
100
AcDbSpline
210
0
220
0
230
1
 70
8
 71
1
 72
17
 73
15
 74
0
 40
0
 40
0
 40
0.1122
 40
0.224399
 40
0.336599
 40
0.448799
 40
0.560999
 40
0.673198
 40
0.785398
 40
0.897598
 40
1.0098
 40
1.122
 40
1.2342
 40
1.3464
 40
1.4586
 40
1.5708
 40
1.5708
 10
146.822
 20
272
 30
0
 10
146.822
 20
272.56
 30
0
 10
146.822
 20
273.113
 30
0
 10
146.822
 20
273.651
 30
0
 10
146.822
 20
274.169
 30
0
 10
146.822
 20
274.66
 30
0
 10
146.822
 20
275.117
 30
0
 10
146.822
 20
275.536
 30
0
 10
146.822
 20
275.909
 30
0
 10
146.822
 20
276.234
 30
0
 10
146.822
 20
276.505
 30
0
 10
146.822
 20
276.719
 30
0
 10
146.822
 20
276.875
 30
0
 10
146.822
 20
276.969
 30
0
 10
146.822
 20
277
 30
0
  0
LINE
  5
A3F
330
A02
100
AcDbEntity
  8
TopView
100
AcDbLine
 10
146.822
 20
272
 30
0
 11
146.822
 21
222
 31
0
  0
SPLINE
  5
A40
330
A02
100
AcDbEntity
  8
TopView
100
AcDbSpline
210
0
220
0
230
1
 70
8
 71
2
 72
30
 73
27
 74
0
 40
4.71239
 40
4.71239
 40
4.71239
 40
4.82459
 40
4.82459
 40
4.93679
 40
4.93679
 40
5.04899
 40
5.04899
 40
5.16119
 40
5.16119
 40
5.27339
 40
5.27339
 40
5.38559
 40
5.38559
 40
5.49779
 40
5.49779
 40
5.60999
 40
5.60999
 40
5.72219
 40
5.72219
 40
5.83439
 40
5.83439
 40
5.94659
 40
5.94659
 40
6.05879
 40
6.05879
 40
6.28319
 40
6.28319
 40
6.28319
 10
146.822
 20
217
 30
0
 10
146.822
 20
217.016
 30
0
 10
146.822
 20
217.031
 30
0
 10
146.822
 20
217.078
 30
0
 10
146.822
 20
217.125
 30
0
 10
146.822
 20
217.203
 30
0
 10
146.822
 20
217.281
 30
0
 10
146.822
 20
217.388
 30
0
 10
146.822
 20
217.495
 30
0
 10
146.822
 20
217.631
 30
0
 10
146.822
 20
217.766
 30
0
 10
146.822
 20
217.929
 30
0
 10
146.822
 20
218.091
 30
0
 10
146.822
 20
218.278
 30
0
 10
146.822
 20
218.464
 30
0
 10
146.822
 20
218.674
 30
0
 10
146.822
 20
218.883
 30
0
 10
146.822
 20
219.111
 30
0
 10
146.822
 20
219.34
 30
0
 10
146.822
 20
219.585
 30
0
 10
146.822
 20
219.831
 30
0
 10
146.822
 20
220.09
 30
0
 10
146.822
 20
220.349
 30
0
 10
146.822
 20
220.618
 30
0
 10
146.822
 20
220.887
 30
0
 10
146.822
 20
221.438
 30
0
 10
146.822
 20
222
 30
0
  0
LINE
  5
A41
330
A02
100
AcDbEntity
  8
TopView
100
AcDbLine
 10
146.822
 20
217
 30
0
 11
146.822
 21
212
 31
0
  0
LINE
  5
A42
330
A02
100
AcDbEntity
  8
TopView
100
AcDbLine
 10
146.822
 20
212
 30
0
 11
376.822
 21
212
 31
0
  0
SPLINE
  5
A43
330
A02
100
AcDbEntity
  8
TopView
100
AcDbSpline
210
0
220
0
230
1
 70
8
 71
3
 72
8
 73
4
 74
0
 40
5.87167
 40
5.87167
 40
5.87167
 40
5.87167
 40
6.28319
 40
6.28319
 40
6.28319
 40
6.28319
 10
374.822
 20
218
 30
0
 10
374.822
 20
219.258
 30
0
 10
374.823
 20
220.628
 30
0
 10
374.822
 20
222
 30
0
  0
LINE
  5
A44
330
A02
100
AcDbEntity
  8
TopView
100
AcDbLine
 10
146.822
 20
217
 30
0
 11
376.822
 21
217
 31
0
  0
LINE
  5
A45
330
A02
100
AcDbEntity
  8
TopView
100
AcDbLine
 10
376.822
 20
217
 30
0
 11
376.822
 21
212
 31
0
  0
SPLINE
  5
A46
330
A02
100
AcDbEntity
  8
TopView
100
AcDbSpline
210
0
220
0
230
1
 70
8
 71
3
 72
8
 73
4
 74
0
 40
0
 40
0
 40
0
 40
0
 40
0.411517
 40
0.411517
 40
0.411517
 40
0.411517
 10
374.822
 20
272
 30
0
 10
374.822
 20
273.372
 30
0
 10
374.822
 20
274.742
 30
0
 10
374.822
 20
276
 30
0
  0
SPLINE
  5
A47
330
A02
100
AcDbEntity
  8
TopView
100
AcDbSpline
210
0
220
0
230
1
 70
8
 71
1
 72
17
 73
15
 74
0
 40
4.71239
 40
4.71239
 40
4.75835
 40
4.80432
 40
4.85028
 40
4.89625
 40
4.94221
 40
4.98818
 40
5.03414
 40
5.0801
 40
5.12607
 40
5.17203
 40
5.218
 40
5.26396
 40
5.30993
 40
5.35589
 40
5.35589
 10
376.822
 20
217
 30
0
 10
376.822
 20
217.005
 30
0
 10
376.822
 20
217.021
 30
0
 10
376.822
 20
217.047
 30
0
 10
376.822
 20
217.084
 30
0
 10
376.822
 20
217.131
 30
0
 10
376.822
 20
217.189
 30
0
 10
376.822
 20
217.257
 30
0
 10
376.822
 20
217.334
 30
0
 10
376.822
 20
217.422
 30
0
 10
376.822
 20
217.519
 30
0
 10
376.822
 20
217.626
 30
0
 10
376.822
 20
217.741
 30
0
 10
376.822
 20
217.866
 30
0
 10
376.822
 20
218
 30
0
  0
SPLINE
  5
A48
330
A02
100
AcDbEntity
  8
TopView
100
AcDbSpline
210
0
220
0
230
1
 70
8
 71
3
 72
35
 73
31
 74
0
 40
5.35589
 40
5.35589
 40
5.35589
 40
5.35589
 40
5.42213
 40
5.42213
 40
5.42213
 40
5.48836
 40
5.48836
 40
5.48836
 40
5.5546
 40
5.5546
 40
5.5546
 40
5.62083
 40
5.62083
 40
5.62083
 40
5.68707
 40
5.68707
 40
5.68707
 40
5.7533
 40
5.7533
 40
5.7533
 40
5.81954
 40
5.81954
 40
5.81954
 40
5.88577
 40
5.88577
 40
5.88577
 40
6.01824
 40
6.01824
 40
6.01824
 40
6.28319
 40
6.28319
 40
6.28319
 40
6.28319
 10
374.823
 20
218
 30
0
 10
374.822
 20
218.069
 30
0
 10
374.823
 20
218.138
 30
0
 10
374.822
 20
218.207
 30
0
 10
374.823
 20
218.282
 30
0
 10
374.822
 20
218.357
 30
0
 10
374.822
 20
218.431
 30
0
 10
374.822
 20
218.511
 30
0
 10
374.823
 20
218.591
 30
0
 10
374.822
 20
218.671
 30
0
 10
374.822
 20
218.756
 30
0
 10
374.822
 20
218.84
 30
0
 10
374.823
 20
218.925
 30
0
 10
374.822
 20
219.014
 30
0
 10
374.823
 20
219.104
 30
0
 10
374.822
 20
219.193
 30
0
 10
374.823
 20
219.286
 30
0
 10
374.822
 20
219.38
 30
0
 10
374.822
 20
219.473
 30
0
 10
374.822
 20
219.57
 30
0
 10
374.823
 20
219.667
 30
0
 10
374.822
 20
219.764
 30
0
 10
374.822
 20
219.864
 30
0
 10
374.822
 20
219.965
 30
0
 10
374.823
 20
220.065
 30
0
 10
374.823
 20
220.27
 30
0
 10
374.822
 20
220.478
 30
0
 10
374.822
 20
220.691
 30
0
 10
374.822
 20
221.118
 30
0
 10
374.823
 20
221.558
 30
0
 10
374.822
 20
222
 30
0
  0
LINE
  5
A49
330
A02
100
AcDbEntity
  8
TopView
100
AcDbLine
 10
376.822
 20
218
 30
0
 11
374.822
 21
218
 31
0
  0
LINE
  5
A4A
330
A02
100
AcDbEntity
  8
TopView
100
AcDbLine
 10
146.822
 20
282
 30
0
 11
376.822
 21
282
 31
0
  0
LINE
  5
A4B
330
A02
100
AcDbEntity
  8
TopView
100
AcDbLine
 10
376.822
 20
272
 30
0
 11
374.822
 21
272
 31
0
  0
LINE
  5
A4C
330
A02
100
AcDbEntity
  8
TopView
100
AcDbLine
 10
376.822
 20
222
 30
0
 11
376.822
 21
272
 31
0
  0
LINE
  5
A4D
330
A02
100
AcDbEntity
  8
TopView
100
AcDbLine
 10
376.822
 20
222
 30
0
 11
374.822
 21
222
 31
0
  0
CIRCLE
  5
A4E
330
A02
100
AcDbEntity
  8
TopView
100
AcDbCircle
 10
186.822
 20
247
 40
11
  0
CIRCLE
  5
A4F
330
A02
100
AcDbEntity
  8
TopView
100
AcDbCircle
 10
296.822
 20
247
 40
11
  0
LINE
  5
A50
330
A02
100
AcDbEntity
  8
TopView
100
AcDbLine
 10
376.822
 20
282
 30
0
 11
376.822
 21
277
 31
0
  0
LINE
  5
A51
330
A02
100
AcDbEntity
  8
TopView
100
AcDbLine
 10
146.822
 20
277
 30
0
 11
376.822
 21
277
 31
0
  0
SPLINE
  5
A52
330
A02
100
AcDbEntity
  8
TopView
100
AcDbSpline
210
0
220
0
230
1
 70
8
 71
2
 72
26
 73
23
 74
0
 40
0
 40
0
 40
0
 40
0.198706
 40
0.198706
 40
0.331177
 40
0.331177
 40
0.397412
 40
0.397412
 40
0.463648
 40
0.463648
 40
0.529883
 40
0.529883
 40
0.596118
 40
0.596118
 40
0.662354
 40
0.662354
 40
0.728589
 40
0.728589
 40
0.794824
 40
0.794824
 40
0.86106
 40
0.86106
 40
0.927295
 40
0.927295
 40
0.927295
 10
374.822
 20
272
 30
0
 10
374.822
 20
272.498
 30
0
 10
374.822
 20
272.987
 30
0
 10
374.822
 20
273.311
 30
0
 10
374.822
 20
273.626
 30
0
 10
374.822
 20
273.78
 30
0
 10
374.822
 20
273.935
 30
0
 10
374.822
 20
274.086
 30
0
 10
374.822
 20
274.236
 30
0
 10
374.822
 20
274.382
 30
0
 10
374.822
 20
274.527
 30
0
 10
374.822
 20
274.667
 30
0
 10
374.822
 20
274.807
 30
0
 10
374.822
 20
274.941
 30
0
 10
374.822
 20
275.075
 30
0
 10
374.822
 20
275.202
 30
0
 10
374.822
 20
275.329
 30
0
 10
374.822
 20
275.449
 30
0
 10
374.822
 20
275.569
 30
0
 10
374.822
 20
275.681
 30
0
 10
374.822
 20
275.793
 30
0
 10
374.822
 20
275.896
 30
0
 10
374.822
 20
276
 30
0
  0
SPLINE
  5
A53
330
A02
100
AcDbEntity
  8
TopView
100
AcDbSpline
210
0
220
0
230
1
 70
8
 71
1
 72
17
 73
15
 74
0
 40
0.927295
 40
0.927295
 40
0.97326
 40
1.01922
 40
1.06519
 40
1.11115
 40
1.15712
 40
1.20308
 40
1.24905
 40
1.29501
 40
1.34097
 40
1.38694
 40
1.4329
 40
1.47887
 40
1.52483
 40
1.5708
 40
1.5708
 10
376.822
 20
276
 30
0
 10
376.822
 20
276.134
 30
0
 10
376.822
 20
276.259
 30
0
 10
376.822
 20
276.374
 30
0
 10
376.822
 20
276.481
 30
0
 10
376.822
 20
276.578
 30
0
 10
376.822
 20
276.666
 30
0
 10
376.822
 20
276.743
 30
0
 10
376.822
 20
276.811
 30
0
 10
376.822
 20
276.869
 30
0
 10
376.822
 20
276.916
 30
0
 10
376.822
 20
276.953
 30
0
 10
376.822
 20
276.979
 30
0
 10
376.822
 20
276.995
 30
0
 10
376.822
 20
277
 30
0
  0
LINE
  5
A54
330
A02
100
AcDbEntity
  8
TopView
100
AcDbLine
 10
374.822
 20
276
 30
0
 11
376.822
 21
276
 31
0
  0
LINE
  5
A55
330
A02
100
AcDbEntity
  8
TopView
100
AcDbLine
 10
146.822
 20
222
 30
0
 11
374.822
 21
222
 31
0
  0
LINE
  5
A56
330
A02
100
AcDbEntity
  8
TopView
100
AcDbLine
 10
146.822
 20
272
 30
0
 11
374.822
 21
272
 31
0
  0
SPLINE
  5
A57
330
A02
100
AcDbEntity
  8
TopView
100
AcDbSpline
210
0
220
0
230
1
 70
8
 71
1
 72
17
 73
15
 74
0
 40
4.71239
 40
4.71239
 40
4.82459
 40
4.93679
 40
5.04899
 40
5.16119
 40
5.27339
 40
5.38559
 40
5.49779
 40
5.60999
 40
5.72219
 40
5.83439
 40
5.94659
 40
6.05879
 40
6.17099
 40
6.28319
 40
6.28319
 10
146.822
 20
212
 30
0
 10
146.822
 20
212.063
 30
0
 10
146.822
 20
212.251
 30
0
 10
146.822
 20
212.561
 30
0
 10
146.822
 20
212.99
 30
0
 10
146.822
 20
213.533
 30
0
 10
146.822
 20
214.182
 30
0
 10
146.822
 20
214.929
 30
0
 10
146.822
 20
215.765
 30
0
 10
146.822
 20
216.68
 30
0
 10
146.822
 20
217.661
 30
0
 10
146.822
 20
218.697
 30
0
 10
146.822
 20
219.775
 30
0
 10
146.822
 20
220.88
 30
0
 10
146.822
 20
222
 30
0
  0
LINE
  5
A58
330
A02
100
AcDbEntity
  8
TopView
100
AcDbLine
 10
146.822
 20
272
 30
0
 11
146.822
 21
222
 31
0
  0
SPLINE
  5
A59
330
A02
100
AcDbEntity
  8
TopView
100
AcDbSpline
210
0
220
0
230
1
 70
8
 71
1
 72
17
 73
15
 74
0
 40
0
 40
0
 40
0.1122
 40
0.224399
 40
0.336599
 40
0.448799
 40
0.560999
 40
0.673198
 40
0.785398
 40
0.897598
 40
1.0098
 40
1.122
 40
1.2342
 40
1.3464
 40
1.4586
 40
1.5708
 40
1.5708
 10
146.822
 20
272
 30
0
 10
146.822
 20
273.12
 30
0
 10
146.822
 20
274.225
 30
0
 10
146.822
 20
275.303
 30
0
 10
146.822
 20
276.339
 30
0
 10
146.822
 20
277.32
 30
0
 10
146.822
 20
278.235
 30
0
 10
146.822
 20
279.071
 30
0
 10
146.822
 20
279.818
 30
0
 10
146.822
 20
280.467
 30
0
 10
146.822
 20
281.01
 30
0
 10
146.822
 20
281.439
 30
0
 10
146.822
 20
281.749
 30
0
 10
146.822
 20
281.937
 30
0
 10
146.822
 20
282
 30
0
  0
LINE
  5
A5A
330
A02
100
AcDbEntity
  8
TopView
100
AcDbLine
 10
146.822
 20
212
 30
0
 11
376.822
 21
212
 31
0
  0
SPLINE
  5
A5B
330
A02
100
AcDbEntity
  8
TopView
100
AcDbSpline
210
0
220
0
230
1
 70
8
 71
2
 72
6
 73
3
 74
0
 40
4.71239
 40
4.71239
 40
4.71239
 40
5.01708
 40
5.01708
 40
5.01708
 10
376.822
 20
212
 30
0
 10
376.822
 20
212.002
 30
0
 10
376.822
 20
212.461
 30
0
  0
SPLINE
  5
A5C
330
A02
100
AcDbEntity
  8
TopView
100
AcDbSpline
210
0
220
0
230
1
 70
8
 71
1
 72
17
 73
15
 74
0
 40
5.01708
 40
5.01708
 40
5.07812
 40
5.13917
 40
5.20021
 40
5.26125
 40
5.32229
 40
5.38333
 40
5.44438
 40
5.50542
 40
5.56646
 40
5.6275
 40
5.68854
 40
5.74958
 40
5.81063
 40
5.87167
 40
5.87167
 10
374.822
 20
212.461
 30
0
 10
374.822
 20
212.661
 30
0
 10
374.822
 20
212.897
 30
0
 10
374.822
 20
213.166
 30
0
 10
374.822
 20
213.469
 30
0
 10
374.822
 20
213.803
 30
0
 10
374.822
 20
214.168
 30
0
 10
374.822
 20
214.562
 30
0
 10
374.822
 20
214.983
 30
0
 10
374.822
 20
215.431
 30
0
 10
374.822
 20
215.903
 30
0
 10
374.822
 20
216.398
 30
0
 10
374.822
 20
216.914
 30
0
 10
374.822
 20
217.448
 30
0
 10
374.822
 20
218
 30
0
  0
LINE
  5
A5D
330
A02
100
AcDbEntity
  8
TopView
100
AcDbLine
 10
376.822
 20
212.461
 30
0
 11
374.822
 21
212.461
 31
0
  0
LINE
  5
A5E
330
A02
100
AcDbEntity
  8
TopView
100
AcDbLine
 10
374.822
 20
272
 30
0
 11
376.822
 21
272
 31
0
  0
LINE
  5
A5F
330
A02
100
AcDbEntity
  8
TopView
100
AcDbLine
 10
376.822
 20
272
 30
0
 11
376.822
 21
222
 31
0
  0
LINE
  5
A60
330
A02
100
AcDbEntity
  8
TopView
100
AcDbLine
 10
374.822
 20
222
 30
0
 11
376.822
 21
222
 31
0
  0
CIRCLE
  5
A61
330
A02
100
AcDbEntity
  8
TopView
100
AcDbCircle
 10
186.822
 20
247
 40
11
  0
CIRCLE
  5
A62
330
A02
100
AcDbEntity
  8
TopView
100
AcDbCircle
 10
296.822
 20
247
 40
11
  0
LINE
  5
A63
330
A02
100
AcDbEntity
  8
TopView
100
AcDbLine
 10
146.822
 20
217
 30
0
 11
376.822
 21
217
 31
0
  0
SPLINE
  5
A64
330
A02
100
AcDbEntity
  8
TopView
100
AcDbSpline
210
0
220
0
230
1
 70
8
 71
1
 72
17
 73
15
 74
0
 40
0.411517
 40
0.411517
 40
0.472559
 40
0.533601
 40
0.594643
 40
0.655685
 40
0.716726
 40
0.777768
 40
0.83881
 40
0.899852
 40
0.960894
 40
1.02194
 40
1.08298
 40
1.14402
 40
1.20506
 40
1.2661
 40
1.2661
 10
374.822
 20
276
 30
0
 10
374.822
 20
276.552
 30
0
 10
374.822
 20
277.086
 30
0
 10
374.822
 20
277.602
 30
0
 10
374.822
 20
278.097
 30
0
 10
374.822
 20
278.569
 30
0
 10
374.822
 20
279.017
 30
0
 10
374.822
 20
279.438
 30
0
 10
374.822
 20
279.832
 30
0
 10
374.822
 20
280.197
 30
0
 10
374.822
 20
280.531
 30
0
 10
374.822
 20
280.834
 30
0
 10
374.822
 20
281.103
 30
0
 10
374.822
 20
281.339
 30
0
 10
374.822
 20
281.539
 30
0
  0
LINE
  5
A65
330
A02
100
AcDbEntity
  8
TopView
100
AcDbLine
 10
146.822
 20
282
 30
0
 11
376.822
 21
282
 31
0
  0
SPLINE
  5
A66
330
A02
100
AcDbEntity
  8
TopView
100
AcDbSpline
210
0
220
0
230
1
 70
8
 71
2
 72
6
 73
3
 74
0
 40
1.2661
 40
1.2661
 40
1.2661
 40
1.5708
 40
1.5708
 40
1.5708
 10
376.822
 20
281.539
 30
0
 10
376.822
 20
281.998
 30
0
 10
376.822
 20
282
 30
0
  0
LINE
  5
A67
330
A02
100
AcDbEntity
  8
TopView
100
AcDbLine
 10
374.822
 20
281.539
 30
0
 11
376.822
 21
281.539
 31
0
  0
LINE
  5
A68
330
A02
100
AcDbEntity
  8
TopView
100
AcDbLine
 10
146.822
 20
277
 30
0
 11
376.822
 21
277
 31
0
  0
LINE
  5
A69
330
A02
100
AcDbEntity
  8
TopView
100
AcDbLine
 10
376.822
 20
218
 30
0
 11
376.822
 21
212.461
 31
0
  0
LINE
  5
A6A
330
A02
100
AcDbEntity
  8
TopView
100
AcDbLine
 10
374.822
 20
218
 30
0
 11
374.822
 21
212.461
 31
0
  0
LINE
  5
A6B
330
A02
100
AcDbEntity
  8
TopView
100
AcDbLine
 10
374.822
 20
281.539
 30
0
 11
374.822
 21
276
 31
0
  0
LINE
  5
A6C
330
A02
100
AcDbEntity
  8
TopView
100
AcDbLine
 10
376.822
 20
281.539
 30
0
 11
376.822
 21
276
 31
0
  0
LINE
  5
A6D
330
A02
100
AcDbEntity
  8
RightView
100
AcDbLine
 10
406.822
 20
312
 30
0
 11
406.822
 21
337
 31
0
  0
ARC
  5
A6E
330
A02
100
AcDbEntity
  8
RightView
100
AcDbCircle
 10
416.822
 20
337
 30
0
 40
10
100
AcDbArc
 50
90
 51
180
  0
LINE
  5
A6F
330
A02
100
AcDbEntity
  8
RightView
100
AcDbLine
 10
466.822
 20
347
 30
0
 11
416.822
 21
347
 31
0
  0
ARC
  5
A70
330
A02
100
AcDbEntity
  8
RightView
100
AcDbCircle
 10
466.822
 20
337
 30
0
 40
10
100
AcDbArc
 50
0
 51
90
  0
LINE
  5
A71
330
A02
100
AcDbEntity
  8
RightView
100
AcDbLine
 10
476.822
 20
312
 30
0
 11
476.822
 21
337
 31
0
  0
LINE
  5
A72
330
A02
100
AcDbEntity
  8
RightView
100
AcDbLine
 10
476.822
 20
312
 30
0
 11
471.822
 21
312
 31
0
  0
LINE
  5
A73
330
A02
100
AcDbEntity
  8
RightView
100
AcDbLine
 10
471.822
 20
312
 30
0
 11
471.822
 21
337
 31
0
  0
ARC
  5
A74
330
A02
100
AcDbEntity
  8
RightView
100
AcDbCircle
 10
466.822
 20
337
 30
0
 40
5
100
AcDbArc
 50
0
 51
90
  0
LINE
  5
A75
330
A02
100
AcDbEntity
  8
RightView
100
AcDbLine
 10
466.822
 20
342
 30
0
 11
416.822
 21
342
 31
0
  0
ARC
  5
A76
330
A02
100
AcDbEntity
  8
RightView
100
AcDbCircle
 10
416.822
 20
337
 30
0
 40
5
100
AcDbArc
 50
90
 51
180
  0
LINE
  5
A77
330
A02
100
AcDbEntity
  8
RightView
100
AcDbLine
 10
411.822
 20
312
 30
0
 11
411.822
 21
337
 31
0
  0
LINE
  5
A78
330
A02
100
AcDbEntity
  8
RightView
100
AcDbLine
 10
411.822
 20
312
 30
0
 11
406.822
 21
312
 31
0
  0
LINE
  5
A79
330
A02
100
AcDbEntity
  8
RightView
100
AcDbLine
 10
406.822
 20
312
 30
0
 11
406.822
 21
337
 31
0
  0
ARC
  5
A7A
330
A02
100
AcDbEntity
  8
RightView
100
AcDbCircle
 10
416.822
 20
337
 30
0
 40
10
100
AcDbArc
 50
162.542
 51
180
  0
ARC
  5
A7B
330
A02
100
AcDbEntity
  8
RightView
100
AcDbCircle
 10
416.822
 20
337
 30
0
 40
10
100
AcDbArc
 50
90
 51
162.542
  0
LINE
  5
A7C
330
A02
100
AcDbEntity
  8
RightView
100
AcDbLine
 10
411.822
 20
312
 30
0
 11
406.822
 21
312
 31
0
  0
LINE
  5
A7D
330
A02
100
AcDbEntity
  8
RightView
100
AcDbLine
 10
466.822
 20
347
 30
0
 11
416.822
 21
347
 31
0
  0
SPLINE
  5
A7E
330
A02
100
AcDbEntity
  8
RightView
100
AcDbSpline
210
0
220
0
230
1
 70
8
 71
1
 72
17
 73
15
 74
0
 40
0
 40
0
 40
0.1122
 40
0.224399
 40
0.336599
 40
0.448799
 40
0.560999
 40
0.673198
 40
0.785398
 40
0.897598
 40
1.0098
 40
1.122
 40
1.2342
 40
1.3464
 40
1.4586
 40
1.5708
 40
1.5708
 10
441.822
 20
347
 30
0
 10
440.591
 20
347
 30
0
 10
439.375
 20
347
 30
0
 10
438.189
 20
347
 30
0
 10
437.05
 20
347
 30
0
 10
435.97
 20
347
 30
0
 10
434.964
 20
347
 30
0
 10
434.044
 20
347
 30
0
 10
433.222
 20
347
 30
0
 10
432.509
 20
347
 30
0
 10
431.912
 20
347
 30
0
 10
431.44
 20
347
 30
0
 10
431.098
 20
347
 30
0
 10
430.892
 20
347
 30
0
 10
430.822
 20
347
 30
0
  0
SPLINE
  5
A7F
330
A02
100
AcDbEntity
  8
RightView
100
AcDbSpline
210
0
220
0
230
1
 70
8
 71
1
 72
17
 73
15
 74
0
 40
1.5708
 40
1.5708
 40
1.7952
 40
2.0196
 40
2.24399
 40
2.46839
 40
2.69279
 40
2.91719
 40
3.14159
 40
3.36599
 40
3.59039
 40
3.81479
 40
4.03919
 40
4.26359
 40
4.48799
 40
4.71239
 40
4.71239
 10
430.822
 20
347
 30
0
 10
431.098
 20
347
 30
0
 10
431.912
 20
347
 30
0
 10
433.222
 20
347
 30
0
 10
434.964
 20
347
 30
0
 10
437.05
 20
347
 30
0
 10
439.375
 20
347
 30
0
 10
441.822
 20
347
 30
0
 10
444.27
 20
347
 30
0
 10
446.595
 20
347
 30
0
 10
448.681
 20
347
 30
0
 10
450.423
 20
347
 30
0
 10
451.733
 20
347
 30
0
 10
452.547
 20
347
 30
0
 10
452.822
 20
347
 30
0
  0
SPLINE
  5
A80
330
A02
100
AcDbEntity
  8
RightView
100
AcDbSpline
210
0
220
0
230
1
 70
8
 71
1
 72
17
 73
15
 74
0
 40
4.71239
 40
4.71239
 40
4.82459
 40
4.93679
 40
5.04899
 40
5.16119
 40
5.27339
 40
5.38559
 40
5.49779
 40
5.60999
 40
5.72219
 40
5.83439
 40
5.94659
 40
6.05879
 40
6.17099
 40
6.28319
 40
6.28319
 10
452.822
 20
347
 30
0
 10
452.753
 20
347
 30
0
 10
452.547
 20
347
 30
0
 10
452.205
 20
347
 30
0
 10
451.733
 20
347
 30
0
 10
451.136
 20
347
 30
0
 10
450.423
 20
347
 30
0
 10
449.601
 20
347
 30
0
 10
448.681
 20
347
 30
0
 10
447.675
 20
347
 30
0
 10
446.595
 20
347
 30
0
 10
445.456
 20
347
 30
0
 10
444.27
 20
347
 30
0
 10
443.054
 20
347
 30
0
 10
441.822
 20
347
 30
0
  0
SPLINE
  5
A81
330
A02
100
AcDbEntity
  8
RightView
100
AcDbSpline
210
0
220
0
230
1
 70
8
 71
1
 72
17
 73
15
 74
0
 40
0
 40
0
 40
0.1122
 40
0.224399
 40
0.336599
 40
0.448799
 40
0.560999
 40
0.673198
 40
0.785398
 40
0.897598
 40
1.0098
 40
1.122
 40
1.2342
 40
1.3464
 40
1.4586
 40
1.5708
 40
1.5708
 10
441.822
 20
347
 30
0
 10
440.591
 20
347
 30
0
 10
439.375
 20
347
 30
0
 10
438.189
 20
347
 30
0
 10
437.05
 20
347
 30
0
 10
435.97
 20
347
 30
0
 10
434.964
 20
347
 30
0
 10
434.044
 20
347
 30
0
 10
433.222
 20
347
 30
0
 10
432.509
 20
347
 30
0
 10
431.912
 20
347
 30
0
 10
431.44
 20
347
 30
0
 10
431.098
 20
347
 30
0
 10
430.892
 20
347
 30
0
 10
430.822
 20
347
 30
0
  0
SPLINE
  5
A82
330
A02
100
AcDbEntity
  8
RightView
100
AcDbSpline
210
0
220
0
230
1
 70
8
 71
1
 72
17
 73
15
 74
0
 40
1.5708
 40
1.5708
 40
1.7952
 40
2.0196
 40
2.24399
 40
2.46839
 40
2.69279
 40
2.91719
 40
3.14159
 40
3.36599
 40
3.59039
 40
3.81479
 40
4.03919
 40
4.26359
 40
4.48799
 40
4.71239
 40
4.71239
 10
430.822
 20
347
 30
0
 10
431.098
 20
347
 30
0
 10
431.912
 20
347
 30
0
 10
433.222
 20
347
 30
0
 10
434.964
 20
347
 30
0
 10
437.05
 20
347
 30
0
 10
439.375
 20
347
 30
0
 10
441.822
 20
347
 30
0
 10
444.27
 20
347
 30
0
 10
446.595
 20
347
 30
0
 10
448.681
 20
347
 30
0
 10
450.423
 20
347
 30
0
 10
451.733
 20
347
 30
0
 10
452.547
 20
347
 30
0
 10
452.822
 20
347
 30
0
  0
SPLINE
  5
A83
330
A02
100
AcDbEntity
  8
RightView
100
AcDbSpline
210
0
220
0
230
1
 70
8
 71
1
 72
17
 73
15
 74
0
 40
4.71239
 40
4.71239
 40
4.82459
 40
4.93679
 40
5.04899
 40
5.16119
 40
5.27339
 40
5.38559
 40
5.49779
 40
5.60999
 40
5.72219
 40
5.83439
 40
5.94659
 40
6.05879
 40
6.17099
 40
6.28319
 40
6.28319
 10
452.822
 20
347
 30
0
 10
452.753
 20
347
 30
0
 10
452.547
 20
347
 30
0
 10
452.205
 20
347
 30
0
 10
451.733
 20
347
 30
0
 10
451.136
 20
347
 30
0
 10
450.423
 20
347
 30
0
 10
449.601
 20
347
 30
0
 10
448.681
 20
347
 30
0
 10
447.675
 20
347
 30
0
 10
446.595
 20
347
 30
0
 10
445.456
 20
347
 30
0
 10
444.27
 20
347
 30
0
 10
443.054
 20
347
 30
0
 10
441.822
 20
347
 30
0
  0
LINE
  5
A84
330
A02
100
AcDbEntity
  8
RightView
100
AcDbLine
 10
411.822
 20
312
 30
0
 11
411.822
 21
337
 31
0
  0
ARC
  5
A85
330
A02
100
AcDbEntity
  8
RightView
100
AcDbCircle
 10
466.822
 20
337
 30
0
 40
10
100
AcDbArc
 50
17.4576
 51
90
  0
ARC
  5
A86
330
A02
100
AcDbEntity
  8
RightView
100
AcDbCircle
 10
466.822
 20
337
 30
0
 40
10
100
AcDbArc
 50
0
 51
17.4576
  0
ARC
  5
A87
330
A02
100
AcDbEntity
  8
RightView
100
AcDbCircle
 10
416.822
 20
337
 30
0
 40
5
100
AcDbArc
 50
143.13
 51
180
  0
ARC
  5
A88
330
A02
100
AcDbEntity
  8
RightView
100
AcDbCircle
 10
416.822
 20
337
 30
0
 40
5
100
AcDbArc
 50
90
 51
143.13
  0
LINE
  5
A89
330
A02
100
AcDbEntity
  8
RightView
100
AcDbLine
 10
476.822
 20
312
 30
0
 11
476.822
 21
337
 31
0
  0
LINE
  5
A8A
330
A02
100
AcDbEntity
  8
RightView
100
AcDbLine
 10
416.822
 20
342
 30
0
 11
466.822
 21
342
 31
0
  0
SPLINE
  5
A8B
330
A02
100
AcDbEntity
  8
RightView
100
AcDbSpline
210
0
220
0
230
1
 70
8
 71
1
 72
17
 73
15
 74
0
 40
0
 40
0
 40
0.1122
 40
0.224399
 40
0.336599
 40
0.448799
 40
0.560999
 40
0.673198
 40
0.785398
 40
0.897598
 40
1.0098
 40
1.122
 40
1.2342
 40
1.3464
 40
1.4586
 40
1.5708
 40
1.5708
 10
441.822
 20
342
 30
0
 10
440.591
 20
342
 30
0
 10
439.375
 20
342
 30
0
 10
438.189
 20
342
 30
0
 10
437.05
 20
342
 30
0
 10
435.97
 20
342
 30
0
 10
434.964
 20
342
 30
0
 10
434.044
 20
342
 30
0
 10
433.222
 20
342
 30
0
 10
432.509
 20
342
 30
0
 10
431.912
 20
342
 30
0
 10
431.44
 20
342
 30
0
 10
431.098
 20
342
 30
0
 10
430.892
 20
342
 30
0
 10
430.822
 20
342
 30
0
  0
SPLINE
  5
A8C
330
A02
100
AcDbEntity
  8
RightView
100
AcDbSpline
210
0
220
0
230
1
 70
8
 71
1
 72
17
 73
15
 74
0
 40
1.5708
 40
1.5708
 40
1.7952
 40
2.0196
 40
2.24399
 40
2.46839
 40
2.69279
 40
2.91719
 40
3.14159
 40
3.36599
 40
3.59039
 40
3.81479
 40
4.03919
 40
4.26359
 40
4.48799
 40
4.71239
 40
4.71239
 10
430.822
 20
342
 30
0
 10
431.098
 20
342
 30
0
 10
431.912
 20
342
 30
0
 10
433.222
 20
342
 30
0
 10
434.964
 20
342
 30
0
 10
437.05
 20
342
 30
0
 10
439.375
 20
342
 30
0
 10
441.822
 20
342
 30
0
 10
444.27
 20
342
 30
0
 10
446.595
 20
342
 30
0
 10
448.681
 20
342
 30
0
 10
450.423
 20
342
 30
0
 10
451.733
 20
342
 30
0
 10
452.547
 20
342
 30
0
 10
452.822
 20
342
 30
0
  0
SPLINE
  5
A8D
330
A02
100
AcDbEntity
  8
RightView
100
AcDbSpline
210
0
220
0
230
1
 70
8
 71
1
 72
17
 73
15
 74
0
 40
4.71239
 40
4.71239
 40
4.82459
 40
4.93679
 40
5.04899
 40
5.16119
 40
5.27339
 40
5.38559
 40
5.49779
 40
5.60999
 40
5.72219
 40
5.83439
 40
5.94659
 40
6.05879
 40
6.17099
 40
6.28319
 40
6.28319
 10
452.822
 20
342
 30
0
 10
452.753
 20
342
 30
0
 10
452.547
 20
342
 30
0
 10
452.205
 20
342
 30
0
 10
451.733
 20
342
 30
0
 10
451.136
 20
342
 30
0
 10
450.423
 20
342
 30
0
 10
449.601
 20
342
 30
0
 10
448.681
 20
342
 30
0
 10
447.675
 20
342
 30
0
 10
446.595
 20
342
 30
0
 10
445.456
 20
342
 30
0
 10
444.27
 20
342
 30
0
 10
443.054
 20
342
 30
0
 10
441.822
 20
342
 30
0
  0
SPLINE
  5
A8E
330
A02
100
AcDbEntity
  8
RightView
100
AcDbSpline
210
0
220
0
230
1
 70
8
 71
1
 72
17
 73
15
 74
0
 40
0
 40
0
 40
0.1122
 40
0.224399
 40
0.336599
 40
0.448799
 40
0.560999
 40
0.673198
 40
0.785398
 40
0.897598
 40
1.0098
 40
1.122
 40
1.2342
 40
1.3464
 40
1.4586
 40
1.5708
 40
1.5708
 10
441.822
 20
342
 30
0
 10
440.591
 20
342
 30
0
 10
439.375
 20
342
 30
0
 10
438.189
 20
342
 30
0
 10
437.05
 20
342
 30
0
 10
435.97
 20
342
 30
0
 10
434.964
 20
342
 30
0
 10
434.044
 20
342
 30
0
 10
433.222
 20
342
 30
0
 10
432.509
 20
342
 30
0
 10
431.912
 20
342
 30
0
 10
431.44
 20
342
 30
0
 10
431.098
 20
342
 30
0
 10
430.892
 20
342
 30
0
 10
430.822
 20
342
 30
0
  0
SPLINE
  5
A8F
330
A02
100
AcDbEntity
  8
RightView
100
AcDbSpline
210
0
220
0
230
1
 70
8
 71
1
 72
17
 73
15
 74
0
 40
1.5708
 40
1.5708
 40
1.7952
 40
2.0196
 40
2.24399
 40
2.46839
 40
2.69279
 40
2.91719
 40
3.14159
 40
3.36599
 40
3.59039
 40
3.81479
 40
4.03919
 40
4.26359
 40
4.48799
 40
4.71239
 40
4.71239
 10
430.822
 20
342
 30
0
 10
431.098
 20
342
 30
0
 10
431.912
 20
342
 30
0
 10
433.222
 20
342
 30
0
 10
434.964
 20
342
 30
0
 10
437.05
 20
342
 30
0
 10
439.375
 20
342
 30
0
 10
441.822
 20
342
 30
0
 10
444.27
 20
342
 30
0
 10
446.595
 20
342
 30
0
 10
448.681
 20
342
 30
0
 10
450.423
 20
342
 30
0
 10
451.733
 20
342
 30
0
 10
452.547
 20
342
 30
0
 10
452.822
 20
342
 30
0
  0
SPLINE
  5
A90
330
A02
100
AcDbEntity
  8
RightView
100
AcDbSpline
210
0
220
0
230
1
 70
8
 71
1
 72
17
 73
15
 74
0
 40
4.71239
 40
4.71239
 40
4.82459
 40
4.93679
 40
5.04899
 40
5.16119
 40
5.27339
 40
5.38559
 40
5.49779
 40
5.60999
 40
5.72219
 40
5.83439
 40
5.94659
 40
6.05879
 40
6.17099
 40
6.28319
 40
6.28319
 10
452.822
 20
342
 30
0
 10
452.753
 20
342
 30
0
 10
452.547
 20
342
 30
0
 10
452.205
 20
342
 30
0
 10
451.733
 20
342
 30
0
 10
451.136
 20
342
 30
0
 10
450.423
 20
342
 30
0
 10
449.601
 20
342
 30
0
 10
448.681
 20
342
 30
0
 10
447.675
 20
342
 30
0
 10
446.595
 20
342
 30
0
 10
445.456
 20
342
 30
0
 10
444.27
 20
342
 30
0
 10
443.054
 20
342
 30
0
 10
441.822
 20
342
 30
0
  0
LINE
  5
A91
330
A02
100
AcDbEntity
  8
RightView
100
AcDbLine
 10
476.822
 20
312
 30
0
 11
471.822
 21
312
 31
0
  0
ARC
  5
A92
330
A02
100
AcDbEntity
  8
RightView
100
AcDbCircle
 10
466.822
 20
337
 30
0
 40
5
100
AcDbArc
 50
36.8699
 51
90
  0
ARC
  5
A93
330
A02
100
AcDbEntity
  8
RightView
100
AcDbCircle
 10
466.822
 20
337
 30
0
 40
5
100
AcDbArc
 50
0
 51
36.8699
  0
LINE
  5
A94
330
A02
100
AcDbEntity
  8
RightView
100
AcDbLine
 10
471.822
 20
312
 30
0
 11
471.822
 21
337
 31
0
  0
LINE
  5
A95
330
A02
100
AcDbEntity
  8
RightView
100
AcDbLine
 10
412.822
 20
340
 30
0
 11
407.283
 21
340
 31
0
  0
LINE
  5
A96
330
A02
100
AcDbEntity
  8
RightView
100
AcDbLine
 10
412.822
 20
340
 30
0
 11
407.283
 21
340
 31
0
  0
LINE
  5
A97
330
A02
100
AcDbEntity
  8
RightView
100
AcDbLine
 10
416.822
 20
342
 30
0
 11
416.822
 21
347
 31
0
  0
LINE
  5
A98
330
A02
100
AcDbEntity
  8
RightView
100
AcDbLine
 10
466.822
 20
342
 30
0
 11
466.822
 21
347
 31
0
  0
LINE
  5
A99
330
A02
100
AcDbEntity
  8
RightView
100
AcDbLine
 10
466.822
 20
342
 30
0
 11
466.822
 21
347
 31
0
  0
LINE
  5
A9A
330
A02
100
AcDbEntity
  8
RightView
100
AcDbLine
 10
416.822
 20
342
 30
0
 11
416.822
 21
347
 31
0
  0
LINE
  5
A9B
330
A02
100
AcDbEntity
  8
RightView
100
AcDbLine
 10
476.362
 20
340
 30
0
 11
470.822
 21
340
 31
0
  0
LINE
  5
A9C
330
A02
100
AcDbEntity
  8
RightView
100
AcDbLine
 10
476.362
 20
340
 30
0
 11
470.822
 21
340
 31
0
  0
LINE
  5
A9D
330
A02
100
AcDbEntity
  8
RightView
100
AcDbLine
 10
452.822
 20
342
 30
0
 11
452.822
 21
347
 31
0
  0
LINE
  5
A9E
330
A02
100
AcDbEntity
  8
RightView
100
AcDbLine
 10
430.822
 20
342
 30
0
 11
430.822
 21
347
 31
0
  0
LINE
  5
A9F
330
A02
100
AcDbEntity
  8
RightView
100
AcDbLine
 10
452.822
 20
342
 30
0
 11
452.822
 21
347
 31
0
  0
LINE
  5
AA0
330
A02
100
AcDbEntity
  8
RightView
100
AcDbLine
 10
430.822
 20
342
 30
0
 11
430.822
 21
347
 31
0
  0
LINE
  5
AA1
330
A02
100
AcDbEntity
  8
IsoView
100
AcDbLine
 10
1197.05
 20
825.254
 30
0
 11
1197.05
 21
845.667
 31
0
  0
ELLIPSE
  5
AA2
330
A02
100
AcDbEntity
  8
IsoView
100
AcDbEllipse
 10
1189.98
 20
849.749
 30
0
 11
-5
 21
8.66025
 31
0
 40
0.57735
 41
3.92699
 42
5.49779
  0
LINE
  5
AA3
330
A02
100
AcDbEntity
  8
IsoView
100
AcDbLine
 10
1154.62
 20
878.327
 30
0
 11
1189.98
 21
857.914
 31
0
  0
ELLIPSE
  5
AA4
330
A02
100
AcDbEntity
  8
IsoView
100
AcDbEllipse
 10
1154.62
 20
870.162
 30
0
 11
-5
 21
8.66025
 31
0
 40
0.57735
 41
5.49779
 42
0
  0
LINE
  5
AA5
330
A02
100
AcDbEntity
  8
IsoView
100
AcDbLine
 10
1151.09
 20
851.79
 30
0
 11
1151.09
 21
852.573
 31
0
  0
LINE
  5
AA6
330
A02
100
AcDbEntity
  8
IsoView
100
AcDbLine
 10
1034.42
 20
731.357
 30
0
 11
1034.42
 21
751.77
 31
0
  0
LINE
  5
AA7
330
A02
100
AcDbEntity
  8
IsoView
100
AcDbLine
 10
1197.05
 20
825.254
 30
0
 11
1034.42
 21
731.357
 31
0
  0
ELLIPSE
  5
AA8
330
A02
100
AcDbEntity
  8
IsoView
100
AcDbEllipse
 10
1027.34
 20
755.852
 30
0
 11
-5
 21
8.66025
 31
0
 40
0.57735
 41
3.92699
 42
4.23168
  0
ELLIPSE
  5
AA9
330
A02
100
AcDbEntity
  8
IsoView
100
AcDbEllipse
 10
1028.76
 20
756.669
 30
0
 11
-5
 21
8.66025
 31
0
 40
0.57735
 41
4.23168
 42
5.49779
  0
LINE
  5
AAA
330
A02
100
AcDbEntity
  8
IsoView
100
AcDbLine
 10
1034.09
 20
754.407
 30
0
 11
1035.5
 21
755.224
 31
0
  0
LINE
  5
AAB
330
A02
100
AcDbEntity
  8
IsoView
100
AcDbLine
 10
1030.88
 20
733.398
 30
0
 11
1034.42
 21
731.357
 31
0
  0
LINE
  5
AAC
330
A02
100
AcDbEntity
  8
IsoView
100
AcDbLine
 10
993.403
 20
785.246
 30
0
 11
991.989
 21
784.429
 31
0
  0
LINE
  5
AAD
330
A02
100
AcDbEntity
  8
IsoView
100
AcDbLine
 10
991.989
 20
784.429
 30
0
 11
1027.34
 21
764.017
 31
0
  0
LINE
  5
AAE
330
A02
100
AcDbEntity
  8
IsoView
100
AcDbLine
 10
1028.76
 20
764.834
 30
0
 11
1027.34
 21
764.017
 31
0
  0
ELLIPSE
  5
AAF
330
A02
100
AcDbEntity
  8
IsoView
100
AcDbEllipse
 10
1144.02
 20
851.79
 30
0
 11
11
 21
6.73556e-16
 31
0
 40
0.57735
 41
3.92699
 42
0
  0
ELLIPSE
  5
AB0
330
A02
100
AcDbEntity
  8
IsoView
100
AcDbEllipse
 10
1144.02
 20
851.79
 30
0
 11
11
 21
6.73556e-16
 31
0
 40
0.57735
 41
0
 42
3.14159
  0
ELLIPSE
  5
AB1
330
A02
100
AcDbEntity
  8
IsoView
100
AcDbEllipse
 10
1144.02
 20
851.79
 30
0
 11
11
 21
6.73556e-16
 31
0
 40
0.57735
 41
3.14159
 42
3.92699
  0
ELLIPSE
  5
AB2
330
A02
100
AcDbEntity
  8
IsoView
100
AcDbEllipse
 10
1066.24
 20
806.883
 30
0
 11
11
 21
6.73556e-16
 31
0
 40
0.57735
 41
3.92699
 42
0
  0
ELLIPSE
  5
AB3
330
A02
100
AcDbEntity
  8
IsoView
100
AcDbEllipse
 10
1066.24
 20
806.883
 30
0
 11
11
 21
6.73556e-16
 31
0
 40
0.57735
 41
0
 42
3.14159
  0
ELLIPSE
  5
AB4
330
A02
100
AcDbEntity
  8
IsoView
100
AcDbEllipse
 10
1066.24
 20
806.883
 30
0
 11
11
 21
6.73556e-16
 31
0
 40
0.57735
 41
3.14159
 42
3.92699
  0
LINE
  5
AB5
330
A02
100
AcDbEntity
  8
IsoView
100
AcDbLine
 10
1030.88
 20
733.398
 30
0
 11
1030.88
 21
753.811
 31
0
  0
ELLIPSE
  5
AB6
330
A02
100
AcDbEntity
  8
IsoView
100
AcDbEllipse
 10
993.403
 20
777.081
 30
0
 11
-5
 21
8.66025
 31
0
 40
0.57735
 41
5.49779
 42
0
  0
ELLIPSE
  5
AB7
330
A02
100
AcDbEntity
  8
IsoView
100
AcDbEllipse
 10
993.403
 20
777.081
 30
0
 11
-5
 21
8.66025
 31
0
 40
0.57735
 41
0
 42
0.480706
  0
ELLIPSE
  5
AB8
330
A02
100
AcDbEntity
  8
IsoView
100
AcDbEllipse
 10
991.989
 20
776.264
 30
0
 11
-5
 21
8.66025
 31
0
 40
0.57735
 41
0.480706
 42
0.785398
  0
LINE
  5
AB9
330
A02
100
AcDbEntity
  8
IsoView
100
AcDbLine
 10
986.658
 20
783.425
 30
0
 11
985.243
 21
782.608
 31
0
  0
ELLIPSE
  5
ABA
330
A02
100
AcDbEntity
  8
IsoView
100
AcDbEllipse
 10
1027.34
 20
755.852
 30
0
 11
-2.5
 21
4.33013
 31
0
 40
0.57735
 41
3.92699
 42
4.57049
  0
ELLIPSE
  5
ABB
330
A02
100
AcDbEntity
  8
IsoView
100
AcDbEllipse
 10
1028.76
 20
756.669
 30
0
 11
-2.5
 21
4.33013
 31
0
 40
0.57735
 41
4.57049
 42
5.49779
  0
LINE
  5
ABC
330
A02
100
AcDbEntity
  8
IsoView
100
AcDbLine
 10
1030.17
 20
756.669
 30
0
 11
1031.59
 21
757.485
 31
0
  0
LINE
  5
ABD
330
A02
100
AcDbEntity
  8
IsoView
100
AcDbLine
 10
984.918
 20
759.935
 30
0
 11
984.918
 21
780.347
 31
0
  0
LINE
  5
ABE
330
A02
100
AcDbEntity
  8
IsoView
100
AcDbLine
 10
1027.34
 20
759.935
 30
0
 11
991.989
 21
780.347
 31
0
  0
LINE
  5
ABF
330
A02
100
AcDbEntity
  8
IsoView
100
AcDbLine
 10
1027.34
 20
759.935
 30
0
 11
1028.76
 21
760.751
 31
0
  0
ELLIPSE
  5
AC0
330
A02
100
AcDbEntity
  8
IsoView
100
AcDbEllipse
 10
1144.02
 20
847.708
 30
0
 11
11
 21
6.73556e-16
 31
0
 40
0.57735
 41
0.32722
 42
2.81437
  0
ELLIPSE
  5
AC1
330
A02
100
AcDbEntity
  8
IsoView
100
AcDbEllipse
 10
1066.24
 20
802.801
 30
0
 11
11
 21
6.73556e-16
 31
0
 40
0.57735
 41
0.32722
 42
2.81437
  0
LINE
  5
AC2
330
A02
100
AcDbEntity
  8
IsoView
100
AcDbLine
 10
984.918
 20
759.935
 30
0
 11
988.453
 21
757.893
 31
0
  0
LINE
  5
AC3
330
A02
100
AcDbEntity
  8
IsoView
100
AcDbLine
 10
1151.09
 20
851.79
 30
0
 11
1140.62
 21
845.749
 31
0
  0
LINE
  5
AC4
330
A02
100
AcDbEntity
  8
IsoView
100
AcDbLine
 10
1074.01
 20
807.291
 30
0
 11
1062.84
 21
800.842
 31
0
  0
LINE
  5
AC5
330
A02
100
AcDbEntity
  8
IsoView
100
AcDbLine
 10
1009.67
 20
770.141
 30
0
 11
988.453
 21
757.893
 31
0
  0
ELLIPSE
  5
AC6
330
A02
100
AcDbEntity
  8
IsoView
100
AcDbEllipse
 10
993.403
 20
777.081
 30
0
 11
-2.5
 21
4.33013
 31
0
 40
0.57735
 41
5.9093
 42
0
  0
ELLIPSE
  5
AC7
330
A02
100
AcDbEntity
  8
IsoView
100
AcDbEllipse
 10
993.403
 20
777.081
 30
0
 11
-2.5
 21
4.33013
 31
0
 40
0.57735
 41
0
 42
0.141897
  0
ELLIPSE
  5
AC8
330
A02
100
AcDbEntity
  8
IsoView
100
AcDbEllipse
 10
991.989
 20
776.264
 30
0
 11
-2.5
 21
4.33013
 31
0
 40
0.57735
 41
0.141897
 42
0.785398
  0
LINE
  5
AC9
330
A02
100
AcDbEntity
  8
IsoView
100
AcDbLine
 10
990.575
 20
781.163
 30
0
 11
989.16
 21
780.347
 31
0
  0
LINE
  5
ACA
330
A02
100
AcDbEntity
  8
IsoView
100
AcDbLine
 10
988.453
 20
757.893
 30
0
 11
988.453
 21
778.306
 31
0
  0
LINE
  5
ACB
330
A02
100
AcDbEntity
  8
IsoView
100
AcDbLine
 10
1030.17
 20
756.669
 30
0
 11
1034.09
 21
754.407
 31
0
  0
LINE
  5
ACC
330
A02
100
AcDbEntity
  8
IsoView
100
AcDbLine
 10
1031.59
 20
757.485
 30
0
 11
1035.5
 21
755.224
 31
0
  0
LINE
  5
ACD
330
A02
100
AcDbEntity
  8
IsoView
100
AcDbLine
 10
1028.76
 20
760.751
 30
0
 11
1028.76
 21
764.834
 31
0
  0
LINE
  5
ACE
330
A02
100
AcDbEntity
  8
IsoView
100
AcDbLine
 10
991.989
 20
780.347
 30
0
 11
991.989
 21
784.429
 31
0
  0
LINE
  5
ACF
330
A02
100
AcDbEntity
  8
IsoView
100
AcDbLine
 10
1027.34
 20
759.935
 30
0
 11
1027.34
 21
764.017
 31
0
  0
LINE
  5
AD0
330
A02
100
AcDbEntity
  8
IsoView
100
AcDbLine
 10
986.658
 20
783.425
 30
0
 11
990.575
 21
781.163
 31
0
  0
LINE
  5
AD1
330
A02
100
AcDbEntity
  8
IsoView
100
AcDbLine
 10
985.243
 20
782.608
 30
0
 11
989.16
 21
780.347
 31
0
  0
LINE
  5
AD2
330
A02
100
AcDbEntity
  8
IsoView
100
AcDbLine
 10
1149.62
 20
878.822
 30
0
 11
988.403
 21
785.741
 31
0
  0
LINE
  5
AD3
330
A02
100
AcDbEntity
  8
IsoView
100
AcDbLine
 10
1197.05
 20
845.667
 30
0
 11
1034.42
 21
751.77
 31
0
  0
LINE
  5
AD4
330
A02
100
AcDbEntity
  8
IsoView
100
AcDbLine
 10
1189.98
 20
857.914
 30
0
 11
1028.76
 21
764.834
 31
0
  0
LINE
  5
AD5
330
A02
100
AcDbEntity
  8
IsoView
100
AcDbLine
 10
1154.62
 20
878.327
 30
0
 11
993.403
 21
785.246
 31
0
  0
LINE
  5
AD6
330
A02
100
AcDbEntity
  8
IsoView
100
AcDbLine
 10
991.989
 20
780.347
 30
0
 11
988.453
 21
778.306
 31
0
  0
ELLIPSE
  5
AD7
330
A02
100
AcDbEntity
  8
IsoView
100
AcDbEllipse
 10
1154.62
 20
870.162
 30
0
 11
-5
 21
8.66025
 31
0
 40
0.57735
 41
1.11022e-16
 42
0.785398
  0
LINE
  5
AD8
330
A02
100
AcDbEntity
  8
IsoView
100
AcDbLine
 10
1147.55
 20
853.832
 30
0
 11
1147.55
 21
874.244
 31
0
  0
LINE
  5
AD9
330
A02
100
AcDbEntity
  8
IsoView
100
AcDbLine
 10
1147.55
 20
853.832
 30
0
 11
1151.09
 21
851.79
 31
0
  0
LINE
  5
ADA
330
A02
100
AcDbEntity
  8
IsoView
100
AcDbLine
 10
1151.09
 20
852.573
 30
0
 11
1151.09
 21
872.203
 31
0
  0
ELLIPSE
  5
ADB
330
A02
100
AcDbEntity
  8
IsoView
100
AcDbEllipse
 10
1154.62
 20
870.162
 30
0
 11
-2.5
 21
4.33013
 31
0
 40
0.57735
 41
5.49779
 42
0
  0
ELLIPSE
  5
ADC
330
A02
100
AcDbEntity
  8
IsoView
100
AcDbEllipse
 10
1154.62
 20
870.162
 30
0
 11
-2.5
 21
4.33013
 31
0
 40
0.57735
 41
1.11022e-16
 42
0.785398
  0
LINE
  5
ADD
330
A02
100
AcDbEntity
  8
IsoView
100
AcDbLine
 10
1154.62
 20
874.244
 30
0
 11
1189.98
 21
853.832
 31
0
  0
ELLIPSE
  5
ADE
330
A02
100
AcDbEntity
  8
IsoView
100
AcDbEllipse
 10
1189.98
 20
849.749
 30
0
 11
-2.5
 21
4.33013
 31
0
 40
0.57735
 41
3.92699
 42
5.49779
  0
LINE
  5
ADF
330
A02
100
AcDbEntity
  8
IsoView
100
AcDbLine
 10
1193.51
 20
827.296
 30
0
 11
1193.51
 21
847.708
 31
0
  0
LINE
  5
AE0
330
A02
100
AcDbEntity
  8
IsoView
100
AcDbLine
 10
1193.51
 20
827.296
 30
0
 11
1197.05
 21
825.254
 31
0
  0
LINE
  5
AE1
330
A02
100
AcDbEntity
  8
IsoView
100
AcDbLine
 10
1193.51
 20
827.296
 30
0
 11
1030.88
 21
733.398
 31
0
  0
LINE
  5
AE2
330
A02
100
AcDbEntity
  8
IsoView
100
AcDbLine
 10
1147.55
 20
853.832
 30
0
 11
984.918
 21
759.935
 31
0
  0
LINE
  5
AE3
330
A02
100
AcDbEntity
  8
IsoView
100
AcDbLine
 10
991.989
 20
780.347
 30
0
 11
993.403
 21
781.163
 31
0
  0
ELLIPSE
  5
AE4
330
A02
100
AcDbEntity
  8
IsoView
100
AcDbEllipse
 10
1144.02
 20
847.708
 30
0
 11
11
 21
6.73556e-16
 31
0
 40
0.57735
 41
3.92699
 42
0
  0
ELLIPSE
  5
AE5
330
A02
100
AcDbEntity
  8
IsoView
100
AcDbEllipse
 10
1144.02
 20
847.708
 30
0
 11
11
 21
6.73556e-16
 31
0
 40
0.57735
 41
0
 42
0.32722
  0
ELLIPSE
  5
AE6
330
A02
100
AcDbEntity
  8
IsoView
100
AcDbEllipse
 10
1144.02
 20
847.708
 30
0
 11
11
 21
6.73556e-16
 31
0
 40
0.57735
 41
2.81437
 42
3.14159
  0
ELLIPSE
  5
AE7
330
A02
100
AcDbEntity
  8
IsoView
100
AcDbEllipse
 10
1144.02
 20
847.708
 30
0
 11
11
 21
6.73556e-16
 31
0
 40
0.57735
 41
3.14159
 42
3.92699
  0
ELLIPSE
  5
AE8
330
A02
100
AcDbEntity
  8
IsoView
100
AcDbEllipse
 10
1066.24
 20
802.801
 30
0
 11
11
 21
6.73556e-16
 31
0
 40
0.57735
 41
3.92699
 42
0
  0
ELLIPSE
  5
AE9
330
A02
100
AcDbEntity
  8
IsoView
100
AcDbEllipse
 10
1066.24
 20
802.801
 30
0
 11
11
 21
6.73556e-16
 31
0
 40
0.57735
 41
0
 42
0.32722
  0
ELLIPSE
  5
AEA
330
A02
100
AcDbEntity
  8
IsoView
100
AcDbEllipse
 10
1066.24
 20
802.801
 30
0
 11
11
 21
6.73556e-16
 31
0
 40
0.57735
 41
2.81437
 42
3.14159
  0
ELLIPSE
  5
AEB
330
A02
100
AcDbEntity
  8
IsoView
100
AcDbEllipse
 10
1066.24
 20
802.801
 30
0
 11
11
 21
6.73556e-16
 31
0
 40
0.57735
 41
3.14159
 42
3.92699
  0
LINE
  5
AEC
330
A02
100
AcDbEntity
  8
IsoView
100
AcDbLine
 10
1140.62
 20
845.749
 30
0
 11
1074.01
 21
807.291
 31
0
  0
LINE
  5
AED
330
A02
100
AcDbEntity
  8
IsoView
100
AcDbLine
 10
1062.84
 20
800.842
 30
0
 11
1009.67
 21
770.141
 31
0
  0
ELLIPSE
  5
AEE
330
A02
100
AcDbEntity
  8
IsoView
100
AcDbEllipse
 10
993.403
 20
777.081
 30
0
 11
-2.5
 21
4.33013
 31
0
 40
0.57735
 41
5.49779
 42
5.9093
  0
LINE
  5
AEF
330
A02
100
AcDbEntity
  8
IsoView
100
AcDbLine
 10
993.403
 20
781.163
 30
0
 11
993.403
 21
785.246
 31
0
  0
LINE
  5
AF0
330
A02
100
AcDbEntity
  8
IsoView
100
AcDbLine
 10
1152.12
 20
874.492
 30
0
 11
990.903
 21
781.411
 31
0
  0
LINE
  5
AF1
330
A02
100
AcDbEntity
  8
IsoView
100
AcDbLine
 10
1155.02
 20
847.708
 30
0
 11
1155.02
 21
851.79
 31
0
  0
LINE
  5
AF2
330
A02
100
AcDbEntity
  8
IsoView
100
AcDbLine
 10
1133.02
 20
847.708
 30
0
 11
1133.02
 21
851.79
 31
0
  0
LINE
  5
AF3
330
A02
100
AcDbEntity
  8
IsoView
100
AcDbLine
 10
1077.24
 20
802.801
 30
0
 11
1077.24
 21
806.883
 31
0
  0
LINE
  5
AF4
330
A02
100
AcDbEntity
  8
IsoView
100
AcDbLine
 10
1055.24
 20
802.801
 30
0
 11
1055.24
 21
806.883
 31
0
  0
ENDSEC
  0
SECTION
  2
OBJECTS
  0
DICTIONARY
  5
F000
330
0
100
AcDbDictionary
  3
ACAD_GROUP
350
F001
  0
DICTIONARY
  5
F001
330
F000
100
AcDbDictionary
  0
ENDSEC
  0
EOF