  0
SECTION
  2
HEADER
  9
$ACADVER
  1
AC1015
  9
$ACADMAINTVER
 70
6
  9
$DWGCODEPAGE
  3
ANSI_1252
  9
$EXTMIN
 10
1e+20
 20
1e+20
 30
1e+20
  9
$EXTMAX
 10
-1e+20
 20
-1e+20
 30
-1e+20
  9
$LIMMIN
 10
0.0
 20
0.0
  9
$LIMMAX
 10
420.0
 20
297.0
  9
$TEXTSTYLE
  7
STANDARD
  9
$DIMSTYLE
  2
STANDARD
  9
$DIMTXSTY
  7
STANDARD
  9
$TDCREATE
 40
2460893.4225231484
  9
$TDUPDATE
 40
2460893.4225231484
  9
$HANDSEED
  5
101A7
  9
$PEXTMIN
 10
1e+20
 20
1e+20
 30
1e+20
  9
$PEXTMAX
 10
-1e+20
 20
-1e+20
 30
-1e+20
  9
$PLIMMIN
 10
0.0
 20
0.0
  9
$PLIMMAX
 10
420.0
 20
297.0
  9
$CMLSTYLE
  2
STANDARD
  9
$FINGERPRINTGUID
  2
{E4260095-610C-4D90-860D-DC435644A0FD}
  9
$VERSIONGUID
  2
{C48E8B9A-AF7F-453F-A560-10F7D00025EC}
  0
ENDSEC
  0
SECTION
  2
CLASSES
  0
CLASS
  1
ACDBDICTIONARYWDFLT
  2
AcDbDictionaryWithDefault
  3
ObjectDBX Classes
 90
0
280
0
281
0
  0
CLASS
  1
XRECORD
  2
AcDbXrecord
  3
ObjectDBX Classes
 90
0
280
0
281
0
  0
CLASS
  1
LWPOLYLINE
  2
AcDbPolyline
  3
ObjectDBX Classes
 90
0
280
0
281
1
  0
CLASS
  1
SUN
  2
AcDbSun
  3
SCENEOE
 90
1153
280
0
281
0
  0
CLASS
  1
VISUALSTYLE
  2
AcDbVisualStyle
  3
ObjectDBX Classes
 90
4095
280
0
281
0
  0
CLASS
  1
MATERIAL
  2
AcDbMaterial
  3
ObjectDBX Classes
 90
1153
280
0
281
0
  0
CLASS
  1
SCALE
  2
AcDbScale
  3
ObjectDBX Classes
 90
1153
280
0
281
0
  0
CLASS
  1
TABLESTYLE
  2
AcDbTableStyle
  3
ObjectDBX Classes
 90
4095
280
0
281
0
  0
CLASS
  1
MLEADERSTYLE
  2
AcDbMLeaderStyle
  3
ACDB_MLEADERSTYLE_CLASS
 90
4095
280
0
281
0
  0
CLASS
  1
DICTIONARYVAR
  2
AcDbDictionaryVar
  3
ObjectDBX Classes
 90
0
280
0
281
0
  0
CLASS
  1
CELLSTYLEMAP
  2
AcDbCellStyleMap
  3
ObjectDBX Classes
 90
1152
280
0
281
0
  0
CLASS
  1
MENTALRAYRENDERSETTINGS
  2
AcDbMentalRayRenderSettings
  3
SCENEOE
 90
1024
280
0
281
0
  0
CLASS
  1
ACDBDETAILVIEWSTYLE
  2
AcDbDetailViewStyle
  3
ObjectDBX Classes
 90
1025
280
0
281
0
  0
CLASS
  1
ACDBSECTIONVIEWSTYLE
  2
AcDbSectionViewStyle
  3
ObjectDBX Classes
 90
1025
280
0
281
0
  0
CLASS
  1
RASTERVARIABLES
  2
AcDbRasterVariables
  3
ISM
 90
0
280
0
281
0
  0
CLASS
  1
ACDBPLACEHOLDER
  2
AcDbPlaceHolder
  3
ObjectDBX Classes
 90
0
280
0
281
0
  0
CLASS
  1
LAYOUT
  2
AcDbLayout
  3
ObjectDBX Classes
 90
0
280
0
281
0
  0
ENDSEC
  0
SECTION
  2
TABLES
  0
TABLE
  2
VPORT
  5
20
330
0
100
AcDbSymbolTable
 70
1
  0
VPORT
  5
21
330
20
100
AcDbSymbolTableRecord
100
AcDbViewportTableRecord
  2
*ACTIVE
 70
0
 10
0.0
 20
0.0
 11
1.0
 21
1.0
 12
0.0
 22
0.0
 13
0.0
 23
0.0
 14
0.5
 24
0.5
 15
0.5
 25
0.5
 16
0.0
 26
0.0
 36
1.0
 17
0.0
 27
0.0
 37
0.0
 40
1000.0
 41
1.34
 42
50.0
 43
0.0
 44
0.0
 50
0.0
 51
0.0
 71
0
 72
1000
 73
1
 74
3
 75
0
 76
0
 77
0
 78
0
281
0
 65
0
146
0.0
  0
ENDTAB
  0
TABLE
  2
LTYPE
  5
22
330
0
100
AcDbSymbolTable
 70
3
  0
LTYPE
  5
23
330
22
100
AcDbSymbolTableRecord
100
AcDbLinetypeTableRecord
  2
BYBLOCK
 70
0
  3

 72
65
 73
0
 40
0.0
  0
LTYPE
  5
24
330
22
100
AcDbSymbolTableRecord
100
AcDbLinetypeTableRecord
  2
BYLAYER
 70
0
  3

 72
65
 73
0
 40
0.0
  0
LTYPE
  5
25
330
22
100
AcDbSymbolTableRecord
100
AcDbLinetypeTableRecord
  2
CONTINUOUS
 70
0
  3
Solid line
 72
65
 73
0
 40
0.0
  0
ENDTAB
  0
TABLE
  2
LAYER
  5
AF5
330
0
100
AcDbSymbolTable
 70
6
  0
LAYER
  5
AF6
330
AF5
100
AcDbSymbolTableRecord
100
AcDbLayerTableRecord
  2
0
 70
0
 62
7
  6
CONTINUOUS
370
-3
390
10061
  0
LAYER
  5
AF7
330
AF5
100
AcDbSymbolTableRecord
100
AcDbLayerTableRecord
  2
FrontView
 70
0
 62
7
  6
CONTINUOUS
370
-3
390
10061
  0
LAYER
  5
AF8
330
AF5
100
AcDbSymbolTableRecord
100
AcDbLayerTableRecord
  2
TopView
 70
0
 62
7
  6
CONTINUOUS
370
-3
390
10061
  0
LAYER
  5
AF9
330
AF5
100
AcDbSymbolTableRecord
100
AcDbLayerTableRecord
  2
RightView
 70
0
 62
7
  6
CONTINUOUS
370
-3
390
10061
  0
LAYER
  5
AFA
330
AF5
100
AcDbSymbolTableRecord
100
AcDbLayerTableRecord
  2
IsoView
 70
0
 62
7
  6
CONTINUOUS
370
-3
390
10061
  0
LAYER
  5
1006B
330
AF5
100
AcDbSymbolTableRecord
100
AcDbLayerTableRecord
  2
Defpoints
 70
0
 62
7
  6
Continuous
290
0
370
-3
390
10061
  0
ENDTAB
  0
TABLE
  2
STYLE
  5
70
330
0
100
AcDbSymbolTable
 70
2
  0
STYLE
  5
71
330
70
100
AcDbSymbolTableRecord
100
AcDbTextStyleTableRecord
  2
STANDARD
 70
0
 40
0.0
 41
1.0
 50
0.0
 71
0
 42
2.5
  3
arial.ttf
  4

  0
STYLE
  5
72
330
70
100
AcDbSymbolTableRecord
100
AcDbTextStyleTableRecord
  2
ANNOTATIVE
 70
0
 40
0.0
 41
1.0
 50
0.0
 71
0
 42
2.5
  3
arial.ttf
  4

  0
ENDTAB
  0
TABLE
  2
VIEW
  5
73
330
0
100
AcDbSymbolTable
 70
0
  0
ENDTAB
  0
TABLE
  2
UCS
  5
74
330
0
100
AcDbSymbolTable
 70
0
  0
ENDTAB
  0
TABLE
  2
APPID
  5
75
330
0
100
AcDbSymbolTable
 70
4
  0
APPID
  5
76
330
75
100
AcDbSymbolTableRecord
100
AcDbRegAppTableRecord
  2
ACAD
 70
0
  0
APPID
  5
77
330
75
100
AcDbSymbolTableRecord
100
AcDbRegAppTableRecord
  2
ACADANNOTATIVE
 70
0
  0
APPID
  5
101A3
330
75
100
AcDbSymbolTableRecord
100
AcDbRegAppTableRecord
  2
HATCHBACKGROUNDCOLOR
 70
0
  0
APPID
  5
101A4
330
75
100
AcDbSymbolTableRecord
100
AcDbRegAppTableRecord
  2
EZDXF
 70
0
  0
ENDTAB
  0
TABLE
  2
DIMSTYLE
  5
78
330
0
100
AcDbSymbolTable
 70
2
100
AcDbDimStyleTable
  0
DIMSTYLE
105
79
330
78
100
AcDbSymbolTableRecord
100
AcDbDimStyleTableRecord
  2
STANDARD
 70
0
  3

  4

 40
0.0
 41
2.5
 42
0.625
 43
3.75
 44
1.25
 45
0.0
 46
0.0
 47
0.0
 48
0.0
140
2.5
141
2.5
142
0.0
143
0.03937007874016
144
1.0
145
0.0
146
1.0
147
0.625
148
0.0
 71
0
 72
0
 73
0
 74
0
 75
0
 76
0
 77
1
 78
8
 79
3
170
0
171
3
172
1
173
0
174
0
175
0
176
0
177
0
178
0
179
2
271
2
272
2
273
2
274
3
275
0
276
0
277
2
278
44
279
0
280
0
281
0
282
0
283
0
284
8
285
0
286
0
288
0
289
3
340
71
371
-2
372
-2
  0
DIMSTYLE
105
1006D
330
78
100
AcDbSymbolTableRecord
100
AcDbDimStyleTableRecord
  2
FUSION_STYLE
 70
0
  3

  4

 40
1.0
 41
2.5
 42
0.625
 43
3.75
 44
1.25
 45
0.0
 46
0.0
 47
0.0
 48
0.0
140
2.5
141
2.5
142
0.0
143
0.03937007874
144
1.0
145
0.0
146
1.0
147
0.625
148
0.0
 71
0
 72
0
 73
0
 74
0
 75
0
 76
0
 77
1
 78
8
 79
3
170
0
171
3
172
1
173
0
174
0
175
0
176
7
177
7
178
7
179
2
271
1
272
2
273
2
274
3
275
0
276
0
277
2
278
46
279
0
280
0
281
0
282
0
283
0
284
8
285
0
286
0
288
0
289
3
340
71
341
10024
342
10024
343
10024
344
10024
371
-2
372
-2
  0
ENDTAB
  0
TABLE
  2
BLOCK_RECORD
  5
A01
330
0
100
AcDbSymbolTable
 70
43
  0
BLOCK_RECORD
  5
A02
330
A01
100
AcDbSymbolTableRecord
100
AcDbBlockTableRecord
  2
*MODEL_SPACE
340
10065
  0
BLOCK_RECORD
  5
A03
330
A01
100
AcDbSymbolTableRecord
100
AcDbBlockTableRecord
  2
*PAPER_SPACE
340
10066
  0
BLOCK_RECORD
  5
FFFF
330
A01
100
AcDbSymbolTableRecord
100
AcDbBlockTableRecord
  2
_CLOSEDFILLED
340
0
  0
BLOCK_RECORD
  5
10003
330
A01
100
AcDbSymbolTableRecord
100
AcDbBlockTableRecord
  2
_DOTBLANK
340
0
  0
BLOCK_RECORD
  5
10008
330
A01
100
AcDbSymbolTableRecord
100
AcDbBlockTableRecord
  2
_CLOSED
340
0
  0
BLOCK_RECORD
  5
1000D
330
A01
100
AcDbSymbolTableRecord
100
AcDbBlockTableRecord
  2
_INTEGRAL
340
0
  0
BLOCK_RECORD
  5
10012
330
A01
100
AcDbSymbolTableRecord
100
AcDbBlockTableRecord
  2
_OPEN
340
0
  0
BLOCK_RECORD
  5
10017
330
A01
100
AcDbSymbolTableRecord
100
AcDbBlockTableRecord
  2
_SMALL
340
0
  0
BLOCK_RECORD
  5
1001B
330
A01
100
AcDbSymbolTableRecord
100
AcDbBlockTableRecord
  2
_OBLIQUE
340
0
  0
BLOCK_RECORD
  5
1001F
330
A01
100
AcDbSymbolTableRecord
100
AcDbBlockTableRecord
  2
_OPEN30
340
0
  0
BLOCK_RECORD
  5
10024
330
A01
100
AcDbSymbolTableRecord
100
AcDbBlockTableRecord
  2
_ARCHTICK
340
0
  0
BLOCK_RECORD
  5
10028
330
A01
100
AcDbSymbolTableRecord
100
AcDbBlockTableRecord
  2
_DATUMFILLED
340
0
  0
BLOCK_RECORD
  5
1002C
330
A01
100
AcDbSymbolTableRecord
100
AcDbBlockTableRecord
  2
_DOTSMALL
340
0
  0
BLOCK_RECORD
  5
10030
330
A01
100
AcDbSymbolTableRecord
100
AcDbBlockTableRecord
  2
_CLOSEDBLANK
340
0
  0
BLOCK_RECORD
  5
10034
330
A01
100
AcDbSymbolTableRecord
100
AcDbBlockTableRecord
  2
_BOXBLANK
340
0
  0
BLOCK_RECORD
  5
10039
330
A01
100
AcDbSymbolTableRecord
100
AcDbBlockTableRecord
  2
_ORIGIN
340
0
  0
BLOCK_RECORD
  5
1003E
330
A01
100
AcDbSymbolTableRecord
100
AcDbBlockTableRecord
  2
_BOXFILLED
340
0
  0
BLOCK_RECORD
  5
10043
330
A01
100
AcDbSymbolTableRecord
100
AcDbBlockTableRecord
  2
_NONE
340
0
  0
BLOCK_RECORD
  5
10046
330
A01
100
AcDbSymbolTableRecord
100
AcDbBlockTableRecord
  2
_DOT
340
0
  0
BLOCK_RECORD
  5
1004B
330
A01
100
AcDbSymbolTableRecord
100
AcDbBlockTableRecord
  2
_ORIGIN2
340
0
  0
BLOCK_RECORD
  5
10051
330
A01
100
AcDbSymbolTableRecord
100
AcDbBlockTableRecord
  2
_OPEN90
340
0
  0
BLOCK_RECORD
  5
10056
330
A01
100
AcDbSymbolTableRecord
100
AcDbBlockTableRecord
  2
_DATUMBLANK
340
0
  0
BLOCK_RECORD
  5
1006F
330
A01
100
AcDbSymbolTableRecord
100
AcDbBlockTableRecord
  2
*D1
340
0
  0
BLOCK_RECORD
  5
1007E
330
A01
100
AcDbSymbolTableRecord
100
AcDbBlockTableRecord
  2
*D2
340
0
  0
BLOCK_RECORD
  5
1008D
330
A01
100
AcDbSymbolTableRecord
100
AcDbBlockTableRecord
  2
*D3
340
0
  0
BLOCK_RECORD
  5
1009C
330
A01
100
AcDbSymbolTableRecord
100
AcDbBlockTableRecord
  2
*D4
340
0
  0
BLOCK_RECORD
  5
100AB
330
A01
100
AcDbSymbolTableRecord
100
AcDbBlockTableRecord
  2
*D5
340
0
  0
BLOCK_RECORD
  5
100BA
330
A01
100
AcDbSymbolTableRecord
100
AcDbBlockTableRecord
  2
*D6
340
0
  0
BLOCK_RECORD
  5
100C9
330
A01
100
AcDbSymbolTableRecord
100
AcDbBlockTableRecord
  2
*D7
340
0
  0
BLOCK_RECORD
  5
100D8
330
A01
100
AcDbSymbolTableRecord
100
AcDbBlockTableRecord
  2
*D8
340
0
  0
BLOCK_RECORD
  5
100E7
330
A01
100
AcDbSymbolTableRecord
100
AcDbBlockTableRecord
  2
*D9
340
0
  0
BLOCK_RECORD
  5
100F6
330
A01
100
AcDbSymbolTableRecord
100
AcDbBlockTableRecord
  2
*D10
340
0
  0
BLOCK_RECORD
  5
10103
330
A01
100
AcDbSymbolTableRecord
100
AcDbBlockTableRecord
  2
*D11
340
0
  0
BLOCK_RECORD
  5
10112
330
A01
100
AcDbSymbolTableRecord
100
AcDbBlockTableRecord
  2
*D12
340
0
  0
BLOCK_RECORD
  5
10121
330
A01
100
AcDbSymbolTableRecord
100
AcDbBlockTableRecord
  2
*D13
340
0
  0
BLOCK_RECORD
  5
10130
330
A01
100
AcDbSymbolTableRecord
100
AcDbBlockTableRecord
  2
*D14
340
0
  0
BLOCK_RECORD
  5
1013F
330
A01
100
AcDbSymbolTableRecord
100
AcDbBlockTableRecord
  2
*D15
340
0
  0
BLOCK_RECORD
  5
1014E
330
A01
100
AcDbSymbolTableRecord
100
AcDbBlockTableRecord
  2
*D16
340
0
  0
BLOCK_RECORD
  5
1015D
330
A01
100
AcDbSymbolTableRecord
100
AcDbBlockTableRecord
  2
*D17
340
0
  0
BLOCK_RECORD
  5
1016C
330
A01
100
AcDbSymbolTableRecord
100
AcDbBlockTableRecord
  2
*D18
340
0
  0
BLOCK_RECORD
  5
1017B
330
A01
100
AcDbSymbolTableRecord
100
AcDbBlockTableRecord
  2
*D19
340
0
  0
BLOCK_RECORD
  5
10186
330
A01
100
AcDbSymbolTableRecord
100
AcDbBlockTableRecord
  2
*D20
340
0
  0
BLOCK_RECORD
  5
10195
330
A01
100
AcDbSymbolTableRecord
100
AcDbBlockTableRecord
  2
*D21
340
0
  0
ENDTAB
  0
ENDSEC
  0
SECTION
  2
BLOCKS
  0
BLOCK
  5
A04
330
A02
100
AcDbEntity
  8
0
100
AcDbBlockBegin
  2
*MODEL_SPACE
 70
0
 10
0.0
 20
0.0
 30
0.0
  3
*MODEL_SPACE
  1
 
  0
ENDBLK
  5
A05
330
A02
100
AcDbEntity
  8
0
100
AcDbBlockEnd
  0
BLOCK
  5
A06
330
A03
100
AcDbEntity
 67
1
  8
0
100
AcDbBlockBegin
  2
*PAPER_SPACE
 70
0
 10
0.0
 20
0.0
 30
0.0
  3
*PAPER_SPACE
  1
 
  0
ENDBLK
  5
A07
330
A03
100
AcDbEntity
 67
1
  8
0
100
AcDbBlockEnd
  0
BLOCK
  5
10000
330
FFFF
100
AcDbEntity
  8
0
100
AcDbBlockBegin
  2
_CLOSEDFILLED
 70
0
 10
0.0
 20
0.0
 30
0.0
  3
_CLOSEDFILLED
  1

  0
SOLID
  5
10002
330
FFFF
100
AcDbEntity
  8
0
  6
BYBLOCK
 62
0
100
AcDbTrace
 10
-1.0
 20
0.16439898372402537
 30
0.0
 11
0.0
 21
0.0
 31
0.0
 12
-1.0
 22
-0.16439898372402537
 32
0.0
 13
-1.0
 23
-0.16439898372402537
 33
0.0
  0
ENDBLK
  5
10001
330
FFFF
100
AcDbEntity
  8
0
100
AcDbBlockEnd
  0
BLOCK
  5
10004
330
10003
100
AcDbEntity
  8
0
100
AcDbBlockBegin
  2
_DOTBLANK
 70
0
 10
0.0
 20
0.0
 30
0.0
  3
_DOTBLANK
  1

  0
CIRCLE
  5
10006
330
10003
100
AcDbEntity
  8
0
  6
BYBLOCK
 62
0
100
AcDbCircle
 10
0.0
 20
0.0
 30
0.0
 40
0.5
  0
LINE
  5
10007
330
10003
100
AcDbEntity
  8
0
  6
BYBLOCK
 62
0
100
AcDbLine
 10
-0.5
 20
0.0
 30
0.0
 11
-1.0
 21
0.0
 31
0.0
  0
ENDBLK
  5
10005
330
10003
100
AcDbEntity
  8
0
100
AcDbBlockEnd
  0
BLOCK
  5
10009
330
10008
100
AcDbEntity
  8
0
100
AcDbBlockBegin
  2
_CLOSED
 70
0
 10
0.0
 20
0.0
 30
0.0
  3
_CLOSED
  1

  0
LWPOLYLINE
  5
1000B
330
10008
100
AcDbEntity
  8
0
  6
BYBLOCK
 62
0
100
AcDbPolyline
 90
3
 70
1
 10
-1.0
 20
0.16439898372402537
 10
0.0
 20
0.0
 10
-1.0
 20
-0.16439898372402537
  0
LINE
  5
1000C
330
10008
100
AcDbEntity
  8
0
  6
BYBLOCK
 62
0
100
AcDbLine
 10
0.0
 20
0.0
 30
0.0
 11
-1.0
 21
0.0
 31
0.0
  0
ENDBLK
  5
1000A
330
10008
100
AcDbEntity
  8
0
100
AcDbBlockEnd
  0
BLOCK
  5
1000E
330
1000D
100
AcDbEntity
  8
0
100
AcDbBlockBegin
  2
_INTEGRAL
 70
0
 10
0.0
 20
0.0
 30
0.0
  3
_INTEGRAL
  1

  0
ARC
  5
10010
330
1000D
100
AcDbEntity
  8
0
  6
BYBLOCK
 62
0
100
AcDbCircle
 10
-0.3535534
 20
0.0
 30
0.0
 40
0.3535534
100
AcDbArc
 50
-90.0
 51
0.0
  0
ARC
  5
10011
330
1000D
100
AcDbEntity
  8
0
  6
BYBLOCK
 62
0
100
AcDbCircle
 10
0.3535534
 20
0.0
 30
0.0
 40
0.3535534
100
AcDbArc
 50
90.0
 51
180.0
  0
ENDBLK
  5
1000F
330
1000D
100
AcDbEntity
  8
0
100
AcDbBlockEnd
  0
BLOCK
  5
10013
330
10012
100
AcDbEntity
  8
0
100
AcDbBlockBegin
  2
_OPEN
 70
0
 10
0.0
 20
0.0
 30
0.0
  3
_OPEN
  1

  0
LWPOLYLINE
  5
10015
330
10012
100
AcDbEntity
  8
0
  6
BYBLOCK
 62
0
100
AcDbPolyline
 90
3
 70
0
 10
-1.0
 20
0.16439898372402537
 10
0.0
 20
0.0
 10
-1.0
 20
-0.16439898372402537
  0
LINE
  5
10016
330
10012
100
AcDbEntity
  8
0
  6
BYBLOCK
 62
0
100
AcDbLine
 10
0.0
 20
0.0
 30
0.0
 11
-1.0
 21
0.0
 31
0.0
  0
ENDBLK
  5
10014
330
10012
100
AcDbEntity
  8
0
100
AcDbBlockEnd
  0
BLOCK
  5
10018
330
10017
100
AcDbEntity
  8
0
100
AcDbBlockBegin
  2
_SMALL
 70
0
 10
0.0
 20
0.0
 30
0.0
  3
_SMALL
  1

  0
CIRCLE
  5
1001A
330
10017
100
AcDbEntity
  8
0
  6
BYBLOCK
 62
0
100
AcDbCircle
 10
0.0
 20
0.0
 30
0.0
 40
0.25
  0
ENDBLK
  5
10019
330
10017
100
AcDbEntity
  8
0
100
AcDbBlockEnd
  0
BLOCK
  5
1001C
330
1001B
100
AcDbEntity
  8
0
100
AcDbBlockBegin
  2
_OBLIQUE
 70
0
 10
0.0
 20
0.0
 30
0.0
  3
_OBLIQUE
  1

  0
LINE
  5
1001E
330
1001B
100
AcDbEntity
  8
0
  6
BYBLOCK
 62
0
100
AcDbLine
 10
-0.5
 20
-0.5
 30
0.0
 11
0.5
 21
0.5
 31
0.0
  0
ENDBLK
  5
1001D
330
1001B
100
AcDbEntity
  8
0
100
AcDbBlockEnd
  0
BLOCK
  5
10020
330
1001F
100
AcDbEntity
  8
0
100
AcDbBlockBegin
  2
_OPEN30
 70
0
 10
0.0
 20
0.0
 30
0.0
  3
_OPEN30
  1

  0
LWPOLYLINE
  5
10022
330
1001F
100
AcDbEntity
  8
0
  6
BYBLOCK
 62
0
100
AcDbPolyline
 90
3
 70
0
 10
-1.0
 20
0.25881904510252074
 10
0.0
 20
0.0
 10
-1.0
 20
-0.25881904510252074
  0
LINE
  5
10023
330
1001F
100
AcDbEntity
  8
0
  6
BYBLOCK
 62
0
100
AcDbLine
 10
0.0
 20
0.0
 30
0.0
 11
-1.0
 21
0.0
 31
0.0
  0
ENDBLK
  5
10021
330
1001F
100
AcDbEntity
  8
0
100
AcDbBlockEnd
  0
BLOCK
  5
10025
330
10024
100
AcDbEntity
  8
0
100
AcDbBlockBegin
  2
_ARCHTICK
 70
0
 10
0.0
 20
0.0
 30
0.0
  3
_ARCHTICK
  1

  0
LWPOLYLINE
  5
10027
330
10024
100
AcDbEntity
  8
0
  6
BYBLOCK
 62
0
100
AcDbPolyline
 90
2
 70
0
 43
0.15
 10
-0.5
 20
-0.5
 10
0.5
 20
0.5
  0
ENDBLK
  5
10026
330
10024
100
AcDbEntity
  8
0
100
AcDbBlockEnd
  0
BLOCK
  5
10029
330
10028
100
AcDbEntity
  8
0
100
AcDbBlockBegin
  2
_DATUMFILLED
 70
0
 10
0.0
 20
0.0
 30
0.0
  3
_DATUMFILLED
  1

  0
SOLID
  5
1002B
330
10028
100
AcDbEntity
  8
0
  6
BYBLOCK
 62
0
100
AcDbTrace
 10
0.0
 20
0.577350269
 30
0.0
 11
0.0
 21
-0.577350269
 31
0.0
 12
-1.0
 22
0.0
 32
0.0
 13
-1.0
 23
0.0
 33
0.0
  0
ENDBLK
  5
1002A
330
10028
100
AcDbEntity
  8
0
100
AcDbBlockEnd
  0
BLOCK
  5
1002D
330
1002C
100
AcDbEntity
  8
0
100
AcDbBlockBegin
  2
_DOTSMALL
 70
0
 10
0.0
 20
0.0
 30
0.0
  3
_DOTSMALL
  1

  0
LWPOLYLINE
  5
1002F
330
1002C
100
AcDbEntity
  8
0
  6
BYBLOCK
 62
0
100
AcDbPolyline
 90
2
 70
1
 43
0.125
 10
-0.0625
 20
0.0
 42
1.0
 10
0.0625
 20
0.0
 42
1.0
  0
ENDBLK
  5
1002E
330
1002C
100
AcDbEntity
  8
0
100
AcDbBlockEnd
  0
BLOCK
  5
10031
330
10030
100
AcDbEntity
  8
0
100
AcDbBlockBegin
  2
_CLOSEDBLANK
 70
0
 10
0.0
 20
0.0
 30
0.0
  3
_CLOSEDBLANK
  1

  0
LWPOLYLINE
  5
10033
330
10030
100
AcDbEntity
  8
0
  6
BYBLOCK
 62
0
100
AcDbPolyline
 90
3
 70
1
 10
-1.0
 20
0.16439898372402537
 10
0.0
 20
0.0
 10
-1.0
 20
-0.16439898372402537
  0
ENDBLK
  5
10032
330
10030
100
AcDbEntity
  8
0
100
AcDbBlockEnd
  0
BLOCK
  5
10035
330
10034
100
AcDbEntity
  8
0
100
AcDbBlockBegin
  2
_BOXBLANK
 70
0
 10
0.0
 20
0.0
 30
0.0
  3
_BOXBLANK
  1

  0
LWPOLYLINE
  5
10037
330
10034
100
AcDbEntity
  8
0
  6
BYBLOCK
 62
0
100
AcDbPolyline
 90
4
 70
1
 10
-0.5
 20
-0.5
 10
0.5
 20
-0.5
 10
0.5
 20
0.5
 10
-0.5
 20
0.5
  0
LINE
  5
10038
330
10034
100
AcDbEntity
  8
0
  6
BYBLOCK
 62
0
100
AcDbLine
 10
-0.5
 20
0.0
 30
0.0
 11
-1.0
 21
0.0
 31
0.0
  0
ENDBLK
  5
10036
330
10034
100
AcDbEntity
  8
0
100
AcDbBlockEnd
  0
BLOCK
  5
1003A
330
10039
100
AcDbEntity
  8
0
100
AcDbBlockBegin
  2
_ORIGIN
 70
0
 10
0.0
 20
0.0
 30
0.0
  3
_ORIGIN
  1

  0
CIRCLE
  5
1003C
330
10039
100
AcDbEntity
  8
0
  6
BYBLOCK
 62
0
100
AcDbCircle
 10
0.0
 20
0.0
 30
0.0
 40
0.5
  0
LINE
  5
1003D
330
10039
100
AcDbEntity
  8
0
  6
BYBLOCK
 62
0
100
AcDbLine
 10
0.0
 20
0.0
 30
0.0
 11
-1.0
 21
0.0
 31
0.0
  0
ENDBLK
  5
1003B
330
10039
100
AcDbEntity
  8
0
100
AcDbBlockEnd
  0
BLOCK
  5
1003F
330
1003E
100
AcDbEntity
  8
0
100
AcDbBlockBegin
  2
_BOXFILLED
 70
0
 10
0.0
 20
0.0
 30
0.0
  3
_BOXFILLED
  1

  0
SOLID
  5
10041
330
1003E
100
AcDbEntity
  8
0
  6
BYBLOCK
 62
0
100
AcDbTrace
 10
-0.5
 20
-0.5
 30
0.0
 11
0.5
 21
-0.5
 31
0.0
 12
-0.5
 22
0.5
 32
0.0
 13
0.5
 23
0.5
 33
0.0
  0
LINE
  5
10042
330
1003E
100
AcDbEntity
  8
0
  6
BYBLOCK
 62
0
100
AcDbLine
 10
-0.5
 20
0.0
 30
0.0
 11
-1.0
 21
0.0
 31
0.0
  0
ENDBLK
  5
10040
330
1003E
100
AcDbEntity
  8
0
100
AcDbBlockEnd
  0
BLOCK
  5
10044
330
10043
100
AcDbEntity
  8
0
100
AcDbBlockBegin
  2
_NONE
 70
0
 10
0.0
 20
0.0
 30
0.0
  3
_NONE
  1

  0
ENDBLK
  5
10045
330
10043
100
AcDbEntity
  8
0
100
AcDbBlockEnd
  0
BLOCK
  5
10047
330
10046
100
AcDbEntity
  8
0
100
AcDbBlockBegin
  2
_DOT
 70
0
 10
0.0
 20
0.0
 30
0.0
  3
_DOT
  1

  0
LINE
  5
10049
330
10046
100
AcDbEntity
  8
0
  6
BYBLOCK
 62
0
100
AcDbLine
 10
-0.5
 20
0.0
 30
0.0
 11
-1.0
 21
0.0
 31
0.0
  0
LWPOLYLINE
  5
1004A
330
10046
100
AcDbEntity
  8
0
  6
BYBLOCK
 62
0
100
AcDbPolyline
 90
2
 70
1
 43
0.5
 10
-0.25
 20
0.0
 42
1.0
 10
0.25
 20
0.0
 42
1.0
  0
ENDBLK
  5
10048
330
10046
100
AcDbEntity
  8
0
100
AcDbBlockEnd
  0
BLOCK
  5
1004C
330
1004B
100
AcDbEntity
  8
0
100
AcDbBlockBegin
  2
_ORIGIN2
 70
0
 10
0.0
 20
0.0
 30
0.0
  3
_ORIGIN2
  1

  0
CIRCLE
  5
1004E
330
1004B
100
AcDbEntity
  8
0
  6
BYBLOCK
 62
0
100
AcDbCircle
 10
0.0
 20
0.0
 30
0.0
 40
0.5
  0
CIRCLE
  5
1004F
330
1004B
100
AcDbEntity
  8
0
  6
BYBLOCK
 62
0
100
AcDbCircle
 10
0.0
 20
0.0
 30
0.0
 40
0.25
  0
LINE
  5
10050
330
1004B
100
AcDbEntity
  8
0
  6
BYBLOCK
 62
0
100
AcDbLine
 10
-0.5
 20
0.0
 30
0.0
 11
-1.0
 21
0.0
 31
0.0
  0
ENDBLK
  5
1004D
330
1004B
100
AcDbEntity
  8
0
100
AcDbBlockEnd
  0
BLOCK
  5
10052
330
10051
100
AcDbEntity
  8
0
100
AcDbBlockBegin
  2
_OPEN90
 70
0
 10
0.0
 20
0.0
 30
0.0
  3
_OPEN90
  1

  0
LWPOLYLINE
  5
10054
330
10051
100
AcDbEntity
  8
0
  6
BYBLOCK
 62
0
100
AcDbPolyline
 90
3
 70
0
 10
-1.0
 20
0.7071067811865475
 10
0.0
 20
0.0
 10
-1.0
 20
-0.7071067811865475
  0
LINE
  5
10055
330
10051
100
AcDbEntity
  8
0
  6
BYBLOCK
 62
0
100
AcDbLine
 10
0.0
 20
0.0
 30
0.0
 11
-1.0
 21
0.0
 31
0.0
  0
ENDBLK
  5
10053
330
10051
100
AcDbEntity
  8
0
100
AcDbBlockEnd
  0
BLOCK
  5
10057
330
10056
100
AcDbEntity
  8
0
100
AcDbBlockBegin
  2
_DATUMBLANK
 70
0
 10
0.0
 20
0.0
 30
0.0
  3
_DATUMBLANK
  1

  0
LWPOLYLINE
  5
10059
330
10056
100
AcDbEntity
  8
0
  6
BYBLOCK
 62
0
100
AcDbPolyline
 90
3
 70
1
 10
0.0
 20
0.577350269
 10
0.0
 20
-0.577350269
 10
-1.0
 20
0.0
  0
ENDBLK
  5
10058
330
10056
100
AcDbEntity
  8
0
100
AcDbBlockEnd
  0
BLOCK
  5
10070
330
1006F
100
AcDbEntity
  8
0
100
AcDbBlockBegin
  2
*D1
 70
1
 10
0.0
 20
0.0
 30
0.0
  3
*D1
  1

  0
LINE
  5
10072
330
1006F
100
AcDbEntity
  8
0
 62
7
100
AcDbLine
 10
146.822
 20
346.375
 30
0.0
 11
146.822
 21
330.75
 31
0.0
  0
LINE
  5
10073
330
1006F
100
AcDbEntity
  8
0
 62
7
100
AcDbLine
 10
374.822
 20
346.375
 30
0.0
 11
374.822
 21
330.75
 31
0.0
  0
INSERT
  5
10074
330
1006F
100
AcDbEntity
  8
0
 62
7
100
AcDbBlockReference
  2
_ARCHTICK
 10
146.822
 20
332.0
 30
0.0
 41
2.5
 42
2.5
 50
180.0
  0
INSERT
  5
10076
330
1006F
100
AcDbEntity
  8
0
 62
7
100
AcDbBlockReference
  2
_ARCHTICK
 10
374.822
 20
332.0
 30
0.0
 41
2.5
 42
2.5
  0
LINE
  5
10078
330
1006F
100
AcDbEntity
  8
0
 62
7
100
AcDbLine
 10
146.822
 20
332.0
 30
0.0
 11
374.822
 21
332.0
 31
0.0
  0
MTEXT
  5
10079
330
1006F
100
AcDbEntity
  8
0
 62
7
100
AcDbMText
 10
260.822
 20
333.875
 30
0.0
 40
2.5
 71
5
  1
228
  0
POINT
  5
1007A
330
1006F
100
AcDbEntity
  8
Defpoints
100
AcDbPoint
 10
146.822
 20
332.0
 30
0.0
  0
POINT
  5
1007B
330
1006F
100
AcDbEntity
  8
Defpoints
100
AcDbPoint
 10
146.822
 20
347.0
 30
0.0
  0
POINT
  5
1007C
330
1006F
100
AcDbEntity
  8
Defpoints
100
AcDbPoint
 10
374.822
 20
347.0
 30
0.0
  0
ENDBLK
  5
10071
330
1006F
100
AcDbEntity
  8
0
100
AcDbBlockEnd
  0
BLOCK
  5
1007F
330
1007E
100
AcDbEntity
  8
0
100
AcDbBlockBegin
  2
*D2
 70
1
 10
0.0
 20
0.0
 30
0.0
  3
*D2
  1

  0
LINE
  5
10081
330
1007E
100
AcDbEntity
  8
0
 62
7
100
AcDbLine
 10
146.822
 20
211.375
 30
0.0
 11
146.822
 21
195.75
 31
0.0
  0
LINE
  5
10082
330
1007E
100
AcDbEntity
  8
0
 62
7
100
AcDbLine
 10
376.822
 20
211.375
 30
0.0
 11
376.822
 21
195.75
 31
0.0
  0
INSERT
  5
10083
330
1007E
100
AcDbEntity
  8
0
 62
7
100
AcDbBlockReference
  2
_ARCHTICK
 10
146.822
 20
197.0
 30
0.0
 41
2.5
 42
2.5
 50
180.0
  0
INSERT
  5
10085
330
1007E
100
AcDbEntity
  8
0
 62
7
100
AcDbBlockReference
  2
_ARCHTICK
 10
376.822
 20
197.0
 30
0.0
 41
2.5
 42
2.5
  0
LINE
  5
10087
330
1007E
100
AcDbEntity
  8
0
 62
7
100
AcDbLine
 10
146.822
 20
197.0
 30
0.0
 11
376.822
 21
197.0
 31
0.0
  0
MTEXT
  5
10088
330
1007E
100
AcDbEntity
  8
0
 62
7
100
AcDbMText
 10
261.822
 20
198.875
 30
0.0
 40
2.5
 71
5
  1
230
  0
POINT
  5
10089
330
1007E
100
AcDbEntity
  8
Defpoints
100
AcDbPoint
 10
146.822
 20
197.0
 30
0.0
  0
POINT
  5
1008A
330
1007E
100
AcDbEntity
  8
Defpoints
100
AcDbPoint
 10
146.822
 20
212.0
 30
0.0
  0
POINT
  5
1008B
330
1007E
100
AcDbEntity
  8
Defpoints
100
AcDbPoint
 10
376.822
 20
212.0
 30
0.0
  0
ENDBLK
  5
10080
330
1007E
100
AcDbEntity
  8
0
100
AcDbBlockEnd
  0
BLOCK
  5
1008E
330
1008D
100
AcDbEntity
  8
0
100
AcDbBlockBegin
  2
*D3
 70
1
 10
0.0
 20
0.0
 30
0.0
  3
*D3
  1

  0
LINE
  5
10090
330
1008D
100
AcDbEntity
  8
0
 62
7
100
AcDbLine
 10
466.822
 20
346.375
 30
0.0
 11
466.822
 21
330.75
 31
0.0
  0
LINE
  5
10091
330
1008D
100
AcDbEntity
  8
0
 62
7
100
AcDbLine
 10
416.822
 20
346.375
 30
0.0
 11
416.822
 21
330.75
 31
0.0
  0
INSERT
  5
10092
330
1008D
100
AcDbEntity
  8
0
 62
7
100
AcDbBlockReference
  2
_ARCHTICK
 10
466.822
 20
332.0
 30
0.0
 41
2.5
 42
2.5
 50
180.0
  0
INSERT
  5
10094
330
1008D
100
AcDbEntity
  8
0
 62
7
100
AcDbBlockReference
  2
_ARCHTICK
 10
416.822
 20
332.0
 30
0.0
 41
2.5
 42
2.5
  0
LINE
  5
10096
330
1008D
100
AcDbEntity
  8
0
 62
7
100
AcDbLine
 10
466.822
 20
332.0
 30
0.0
 11
416.822
 21
332.0
 31
0.0
  0
MTEXT
  5
10097
330
1008D
100
AcDbEntity
  8
0
 62
7
100
AcDbMText
 10
441.822
 20
330.125
 30
0.0
 40
2.5
 71
5
  1
50
  0
POINT
  5
10098
330
1008D
100
AcDbEntity
  8
Defpoints
100
AcDbPoint
 10
466.822
 20
332.0
 30
0.0
  0
POINT
  5
10099
330
1008D
100
AcDbEntity
  8
Defpoints
100
AcDbPoint
 10
466.822
 20
347.0
 30
0.0
  0
POINT
  5
1009A
330
1008D
100
AcDbEntity
  8
Defpoints
100
AcDbPoint
 10
416.822
 20
347.0
 30
0.0
  0
ENDBLK
  5
1008F
330
1008D
100
AcDbEntity
  8
0
100
AcDbBlockEnd
  0
BLOCK
  5
1009D
330
1009C
100
AcDbEntity
  8
0
100
AcDbBlockBegin
  2
*D4
 70
1
 10
0.0
 20
0.0
 30
0.0
  3
*D4
  1

  0
LINE
  5
1009F
330
1009C
100
AcDbEntity
  8
0
 62
7
100
AcDbLine
 10
476.822
 20
311.375
 30
0.0
 11
476.822
 21
295.75
 31
0.0
  0
LINE
  5
100A0
330
1009C
100
AcDbEntity
  8
0
 62
7
100
AcDbLine
 10
471.822
 20
311.375
 30
0.0
 11
471.822
 21
295.75
 31
0.0
  0
INSERT
  5
100A1
330
1009C
100
AcDbEntity
  8
0
 62
7
100
AcDbBlockReference
  2
_ARCHTICK
 10
476.822
 20
297.0
 30
0.0
 41
2.5
 42
2.5
  0
INSERT
  5
100A3
330
1009C
100
AcDbEntity
  8
0
 62
7
100
AcDbBlockReference
  2
_ARCHTICK
 10
471.822
 20
297.0
 30
0.0
 41
2.5
 42
2.5
 50
180.0
  0
LINE
  5
100A5
330
1009C
100
AcDbEntity
  8
0
 62
7
100
AcDbLine
 10
476.822
 20
297.0
 30
0.0
 11
471.822
 21
297.0
 31
0.0
  0
MTEXT
  5
100A6
330
1009C
100
AcDbEntity
  8
0
 62
7
100
AcDbMText
 10
474.322
 20
295.125
 30
0.0
 40
2.5
 71
5
  1
5
  0
POINT
  5
100A7
330
1009C
100
AcDbEntity
  8
Defpoints
100
AcDbPoint
 10
476.822
 20
297.0
 30
0.0
  0
POINT
  5
100A8
330
1009C
100
AcDbEntity
  8
Defpoints
100
AcDbPoint
 10
476.822
 20
312.0
 30
0.0
  0
POINT
  5
100A9
330
1009C
100
AcDbEntity
  8
Defpoints
100
AcDbPoint
 10
471.822
 20
312.0
 30
0.0
  0
ENDBLK
  5
1009E
330
1009C
100
AcDbEntity
  8
0
100
AcDbBlockEnd
  0
BLOCK
  5
100AC
330
100AB
100
AcDbEntity
  8
0
100
AcDbBlockBegin
  2
*D5
 70
1
 10
0.0
 20
0.0
 30
0.0
  3
*D5
  1

  0
LINE
  5
100AE
330
100AB
100
AcDbEntity
  8
0
 62
7
100
AcDbLine
 10
412.822
 20
339.375
 30
0.0
 11
412.822
 21
323.75
 31
0.0
  0
LINE
  5
100AF
330
100AB
100
AcDbEntity
  8
0
 62
7
100
AcDbLine
 10
407.283
 20
339.375
 30
0.0
 11
407.283
 21
323.75
 31
0.0
  0
INSERT
  5
100B0
330
100AB
100
AcDbEntity
  8
0
 62
7
100
AcDbBlockReference
  2
_ARCHTICK
 10
412.822
 20
325.0
 30
0.0
 41
2.5
 42
2.5
  0
INSERT
  5
100B2
330
100AB
100
AcDbEntity
  8
0
 62
7
100
AcDbBlockReference
  2
_ARCHTICK
 10
407.283
 20
325.0
 30
0.0
 41
2.5
 42
2.5
 50
180.0
  0
LINE
  5
100B4
330
100AB
100
AcDbEntity
  8
0
 62
7
100
AcDbLine
 10
412.822
 20
325.0
 30
0.0
 11
407.283
 21
325.0
 31
0.0
  0
MTEXT
  5
100B5
330
100AB
100
AcDbEntity
  8
0
 62
7
100
AcDbMText
 10
410.0525
 20
321.875
 30
0.0
 40
2.5
 71
5
  1
5.5
  0
POINT
  5
100B6
330
100AB
100
AcDbEntity
  8
Defpoints
100
AcDbPoint
 10
412.822
 20
325.0
 30
0.0
  0
POINT
  5
100B7
330
100AB
100
AcDbEntity
  8
Defpoints
100
AcDbPoint
 10
412.822
 20
340.0
 30
0.0
  0
POINT
  5
100B8
330
100AB
100
AcDbEntity
  8
Defpoints
100
AcDbPoint
 10
407.283
 20
340.0
 30
0.0
  0
ENDBLK
  5
100AD
330
100AB
100
AcDbEntity
  8
0
100
AcDbBlockEnd
  0
BLOCK
  5
100BB
330
100BA
100
AcDbEntity
  8
0
100
AcDbBlockBegin
  2
*D6
 70
1
 10
0.0
 20
0.0
 30
0.0
  3
*D6
  1

  0
LINE
  5
100BD
330
100BA
100
AcDbEntity
  8
0
 62
7
100
AcDbLine
 10
146.197
 20
312.0
 30
0.0
 11
130.572
 21
312.0
 31
0.0
  0
LINE
  5
100BE
330
100BA
100
AcDbEntity
  8
0
 62
7
100
AcDbLine
 10
146.197
 20
337.0
 30
0.0
 11
130.572
 21
337.0
 31
0.0
  0
INSERT
  5
100BF
330
100BA
100
AcDbEntity
  8
0
 62
7
100
AcDbBlockReference
  2
_ARCHTICK
 10
131.822
 20
312.0
 30
0.0
 41
2.5
 42
2.5
 50
270.0
  0
INSERT
  5
100C1
330
100BA
100
AcDbEntity
  8
0
 62
7
100
AcDbBlockReference
  2
_ARCHTICK
 10
131.822
 20
337.0
 30
0.0
 41
2.5
 42
2.5
 50
90.0
  0
LINE
  5
100C3
330
100BA
100
AcDbEntity
  8
0
 62
7
100
AcDbLine
 10
131.822
 20
312.0
 30
0.0
 11
131.822
 21
337.0
 31
0.0
  0
MTEXT
  5
100C4
330
100BA
100
AcDbEntity
  8
0
 62
7
100
AcDbMText
 10
129.947
 20
324.5
 30
0.0
 40
2.5
 71
5
  1
25
 50
90.0
  0
POINT
  5
100C5
330
100BA
100
AcDbEntity
  8
Defpoints
100
AcDbPoint
 10
131.822
 20
312.0
 30
0.0
  0
POINT
  5
100C6
330
100BA
100
AcDbEntity
  8
Defpoints
100
AcDbPoint
 10
146.822
 20
312.0
 30
0.0
  0
POINT
  5
100C7
330
100BA
100
AcDbEntity
  8
Defpoints
100
AcDbPoint
 10
146.822
 20
337.0
 30
0.0
  0
ENDBLK
  5
100BC
330
100BA
100
AcDbEntity
  8
0
100
AcDbBlockEnd
  0
BLOCK
  5
100CA
330
100C9
100
AcDbEntity
  8
0
100
AcDbBlockBegin
  2
*D7
 70
1
 10
0.0
 20
0.0
 30
0.0
  3
*D7
  1

  0
LINE
  5
100CC
330
100C9
100
AcDbEntity
  8
0
 62
7
100
AcDbLine
 10
146.197
 20
282.0
 30
0.0
 11
130.572
 21
282.0
 31
0.0
  0
LINE
  5
100CD
330
100C9
100
AcDbEntity
  8
0
 62
7
100
AcDbLine
 10
146.197
 20
277.0
 30
0.0
 11
130.572
 21
277.0
 31
0.0
  0
INSERT
  5
100CE
330
100C9
100
AcDbEntity
  8
0
 62
7
100
AcDbBlockReference
  2
_ARCHTICK
 10
131.822
 20
282.0
 30
0.0
 41
2.5
 42
2.5
 50
90.0
  0
INSERT
  5
100D0
330
100C9
100
AcDbEntity
  8
0
 62
7
100
AcDbBlockReference
  2
_ARCHTICK
 10
131.822
 20
277.0
 30
0.0
 41
2.5
 42
2.5
 50
270.0
  0
LINE
  5
100D2
330
100C9
100
AcDbEntity
  8
0
 62
7
100
AcDbLine
 10
131.822
 20
282.0
 30
0.0
 11
131.822
 21
277.0
 31
0.0
  0
MTEXT
  5
100D3
330
100C9
100
AcDbEntity
  8
0
 62
7
100
AcDbMText
 10
133.697
 20
279.5
 30
0.0
 40
2.5
 71
5
  1
5
 50
90.0
  0
POINT
  5
100D4
330
100C9
100
AcDbEntity
  8
Defpoints
100
AcDbPoint
 10
131.822
 20
282.0
 30
0.0
  0
POINT
  5
100D5
330
100C9
100
AcDbEntity
  8
Defpoints
100
AcDbPoint
 10
146.822
 20
282.0
 30
0.0
  0
POINT
  5
100D6
330
100C9
100
AcDbEntity
  8
Defpoints
100
AcDbPoint
 10
146.822
 20
277.0
 30
0.0
  0
ENDBLK
  5
100CB
330
100C9
100
AcDbEntity
  8
0
100
AcDbBlockEnd
  0
BLOCK
  5
100D9
330
100D8
100
AcDbEntity
  8
0
100
AcDbBlockBegin
  2
*D8
 70
1
 10
0.0
 20
0.0
 30
0.0
  3
*D8
  1

  0
LINE
  5
100DB
330
100D8
100
AcDbEntity
  8
0
 62
7
100
AcDbLine
 10
146.197
 20
272.0
 30
0.0
 11
130.572
 21
272.0
 31
0.0
  0
LINE
  5
100DC
330
100D8
100
AcDbEntity
  8
0
 62
7
100
AcDbLine
 10
146.197
 20
222.0
 30
0.0
 11
130.572
 21
222.0
 31
0.0
  0
INSERT
  5
100DD
330
100D8
100
AcDbEntity
  8
0
 62
7
100
AcDbBlockReference
  2
_ARCHTICK
 10
131.822
 20
272.0
 30
0.0
 41
2.5
 42
2.5
 50
270.0
  0
INSERT
  5
100DF
330
100D8
100
AcDbEntity
  8
0
 62
7
100
AcDbBlockReference
  2
_ARCHTICK
 10
131.822
 20
222.0
 30
0.0
 41
2.5
 42
2.5
 50
90.0
  0
LINE
  5
100E1
330
100D8
100
AcDbEntity
  8
0
 62
7
100
AcDbLine
 10
131.822
 20
272.0
 30
0.0
 11
131.822
 21
222.0
 31
0.0
  0
MTEXT
  5
100E2
330
100D8
100
AcDbEntity
  8
0
 62
7
100
AcDbMText
 10
133.697
 20
247.0
 30
0.0
 40
2.5
 71
5
  1
50
 50
90.0
  0
POINT
  5
100E3
330
100D8
100
AcDbEntity
  8
Defpoints
100
AcDbPoint
 10
131.822
 20
272.0
 30
0.0
  0
POINT
  5
100E4
330
100D8
100
AcDbEntity
  8
Defpoints
100
AcDbPoint
 10
146.822
 20
272.0
 30
0.0
  0
POINT
  5
100E5
330
100D8
100
AcDbEntity
  8
Defpoints
100
AcDbPoint
 10
146.822
 20
222.0
 30
0.0
  0
ENDBLK
  5
100DA
330
100D8
100
AcDbEntity
  8
0
100
AcDbBlockEnd
  0
BLOCK
  5
100E8
330
100E7
100
AcDbEntity
  8
0
100
AcDbBlockBegin
  2
*D9
 70
1
 10
0.0
 20
0.0
 30
0.0
  3
*D9
  1

  0
LINE
  5
100EA
330
100E7
100
AcDbEntity
  8
0
 62
7
100
AcDbLine
 10
376.197
 20
218.0
 30
0.0
 11
360.572
 21
218.0
 31
0.0
  0
LINE
  5
100EB
330
100E7
100
AcDbEntity
  8
0
 62
7
100
AcDbLine
 10
376.197
 20
212.461
 30
0.0
 11
360.572
 21
212.461
 31
0.0
  0
INSERT
  5
100EC
330
100E7
100
AcDbEntity
  8
0
 62
7
100
AcDbBlockReference
  2
_ARCHTICK
 10
361.822
 20
218.0
 30
0.0
 41
2.5
 42
2.5
 50
90.0
  0
INSERT
  5
100EE
330
100E7
100
AcDbEntity
  8
0
 62
7
100
AcDbBlockReference
  2
_ARCHTICK
 10
361.822
 20
212.461
 30
0.0
 41
2.5
 42
2.5
 50
270.0
  0
LINE
  5
100F0
330
100E7
100
AcDbEntity
  8
0
 62
7
100
AcDbLine
 10
361.822
 20
218.0
 30
0.0
 11
361.822
 21
212.461
 31
0.0
  0
MTEXT
  5
100F1
330
100E7
100
AcDbEntity
  8
0
 62
7
100
AcDbMText
 10
364.947
 20
215.2305
 30
0.0
 40
2.5
 71
5
  1
5.5
 50
90.0
  0
POINT
  5
100F2
330
100E7
100
AcDbEntity
  8
Defpoints
100
AcDbPoint
 10
361.822
 20
218.0
 30
0.0
  0
POINT
  5
100F3
330
100E7
100
AcDbEntity
  8
Defpoints
100
AcDbPoint
 10
376.822
 20
218.0
 30
0.0
  0
POINT
  5
100F4
330
100E7
100
AcDbEntity
  8
Defpoints
100
AcDbPoint
 10
376.822
 20
212.461
 30
0.0
  0
ENDBLK
  5
100E9
330
100E7
100
AcDbEntity
  8
0
100
AcDbBlockEnd
  0
BLOCK
  5
100F7
330
100F6
100
AcDbEntity
  8
0
100
AcDbBlockBegin
  2
*D10
 70
1
 10
0.0
 20
0.0
 30
0.0
  3
*D10
  1

  0
INSERT
  5
100F9
330
100F6
100
AcDbEntity
  8
0
 62
7
100
AcDbBlockReference
  2
_ARCHTICK
 10
179.04382540694797
 20
239.22182540694797
 30
0.0
 41
2.5
 42
2.5
 50
45.0
  0
INSERT
  5
100FB
330
100F6
100
AcDbEntity
  8
0
 62
7
100
AcDbBlockReference
  2
_ARCHTICK
 10
194.60017459305203
 20
254.77817459305203
 30
0.0
 41
2.5
 42
2.5
 50
45.0
  0
LINE
  5
100FD
330
100F6
100
AcDbEntity
  8
0
 62
7
100
AcDbLine
 10
179.04382540694797
 20
239.22182540694797
 30
0.0
 11
194.60017459305203
 21
254.77817459305203
 31
0.0
  0
LINE
  5
100FE
330
100F6
100
AcDbEntity
  8
0
 62
7
100
AcDbLine
 10
179.04382540694797
 20
239.22182540694797
 30
0.0
 11
173.29858280980727
 21
233.47658280980727
 31
0.0
  0
MTEXT
  5
100FF
330
100F6
100
AcDbEntity
  8
0
 62
7
100
AcDbMText
 10
172.8566410715657
 20
235.68629150101523
 30
0.0
 40
2.5
 71
5
  1
%%c22
 50
45.0
  0
POINT
  5
10100
330
100F6
100
AcDbEntity
  8
Defpoints
100
AcDbPoint
 10
186.822
 20
247.0
 30
0.0
  0
POINT
  5
10101
330
100F6
100
AcDbEntity
  8
Defpoints
100
AcDbPoint
 10
179.04382540694797
 20
239.22182540694797
 30
0.0
  0
ENDBLK
  5
100F8
330
100F6
100
AcDbEntity
  8
0
100
AcDbBlockEnd
  0
BLOCK
  5
10104
330
10103
100
AcDbEntity
  8
0
100
AcDbBlockBegin
  2
*D11
 70
1
 10
0.0
 20
0.0
 30
0.0
  3
*D11
  1

  0
LINE
  5
10106
330
10103
100
AcDbEntity
  8
0
 62
7
100
AcDbLine
 10
147.447
 20
282.0
 30
0.0
 11
170.572
 21
282.0
 31
0.0
  0
LINE
  5
10107
330
10103
100
AcDbEntity
  8
0
 62
7
100
AcDbLine
 10
147.447
 20
277.0
 30
0.0
 11
170.572
 21
277.0
 31
0.0
  0
INSERT
  5
10108
330
10103
100
AcDbEntity
  8
0
 62
7
100
AcDbBlockReference
  2
_ARCHTICK
 10
169.322
 20
282.0
 30
0.0
 41
2.5
 42
2.5
 50
90.0
  0
INSERT
  5
1010A
330
10103
100
AcDbEntity
  8
0
 62
7
100
AcDbBlockReference
  2
_ARCHTICK
 10
169.322
 20
277.0
 30
0.0
 41
2.5
 42
2.5
 50
270.0
  0
LINE
  5
1010C
330
10103
100
AcDbEntity
  8
0
 62
7
100
AcDbLine
 10
169.322
 20
282.0
 30
0.0
 11
169.322
 21
277.0
 31
0.0
  0
MTEXT
  5
1010D
330
10103
100
AcDbEntity
  8
0
 62
7
100
AcDbMText
 10
171.197
 20
279.5
 30
0.0
 40
2.5
 71
5
  1
5
 50
90.0
  0
POINT
  5
1010E
330
10103
100
AcDbEntity
  8
Defpoints
100
AcDbPoint
 10
169.322
 20
282.0
 30
0.0
  0
POINT
  5
1010F
330
10103
100
AcDbEntity
  8
Defpoints
100
AcDbPoint
 10
146.822
 20
282.0
 30
0.0
  0
POINT
  5
10110
330
10103
100
AcDbEntity
  8
Defpoints
100
AcDbPoint
 10
146.822
 20
277.0
 30
0.0
  0
ENDBLK
  5
10105
330
10103
100
AcDbEntity
  8
0
100
AcDbBlockEnd
  0
BLOCK
  5
10113
330
10112
100
AcDbEntity
  8
0
100
AcDbBlockBegin
  2
*D12
 70
1
 10
0.0
 20
0.0
 30
0.0
  3
*D12
  1

  0
LINE
  5
10115
330
10112
100
AcDbEntity
  8
0
 62
7
100
AcDbLine
 10
146.197
 20
217.0
 30
0.0
 11
130.572
 21
217.0
 31
0.0
  0
LINE
  5
10116
330
10112
100
AcDbEntity
  8
0
 62
7
100
AcDbLine
 10
146.197
 20
212.0
 30
0.0
 11
130.572
 21
212.0
 31
0.0
  0
INSERT
  5
10117
330
10112
100
AcDbEntity
  8
0
 62
7
100
AcDbBlockReference
  2
_ARCHTICK
 10
131.822
 20
217.0
 30
0.0
 41
2.5
 42
2.5
 50
90.0
  0
INSERT
  5
10119
330
10112
100
AcDbEntity
  8
0
 62
7
100
AcDbBlockReference
  2
_ARCHTICK
 10
131.822
 20
212.0
 30
0.0
 41
2.5
 42
2.5
 50
270.0
  0
LINE
  5
1011B
330
10112
100
AcDbEntity
  8
0
 62
7
100
AcDbLine
 10
131.822
 20
217.0
 30
0.0
 11
131.822
 21
212.0
 31
0.0
  0
MTEXT
  5
1011C
330
10112
100
AcDbEntity
  8
0
 62
7
100
AcDbMText
 10
133.697
 20
214.5
 30
0.0
 40
2.5
 71
5
  1
5
 50
90.0
  0
POINT
  5
1011D
330
10112
100
AcDbEntity
  8
Defpoints
100
AcDbPoint
 10
131.822
 20
217.0
 30
0.0
  0
POINT
  5
1011E
330
10112
100
AcDbEntity
  8
Defpoints
100
AcDbPoint
 10
146.822
 20
217.0
 30
0.0
  0
POINT
  5
1011F
330
10112
100
AcDbEntity
  8
Defpoints
100
AcDbPoint
 10
146.822
 20
212.0
 30
0.0
  0
ENDBLK
  5
10114
330
10112
100
AcDbEntity
  8
0
100
AcDbBlockEnd
  0
BLOCK
  5
10122
330
10121
100
AcDbEntity
  8
0
100
AcDbBlockBegin
  2
*D13
 70
1
 10
0.0
 20
0.0
 30
0.0
  3
*D13
  1

  0
LINE
  5
10124
330
10121
100
AcDbEntity
  8
0
 62
7
100
AcDbLine
 10
377.447
 20
217.0
 30
0.0
 11
400.572
 21
217.0
 31
0.0
  0
LINE
  5
10125
330
10121
100
AcDbEntity
  8
0
 62
7
100
AcDbLine
 10
377.447
 20
212.0
 30
0.0
 11
400.572
 21
212.0
 31
0.0
  0
INSERT
  5
10126
330
10121
100
AcDbEntity
  8
0
 62
7
100
AcDbBlockReference
  2
_ARCHTICK
 10
399.322
 20
217.0
 30
0.0
 41
2.5
 42
2.5
 50
90.0
  0
INSERT
  5
10128
330
10121
100
AcDbEntity
  8
0
 62
7
100
AcDbBlockReference
  2
_ARCHTICK
 10
399.322
 20
212.0
 30
0.0
 41
2.5
 42
2.5
 50
270.0
  0
LINE
  5
1012A
330
10121
100
AcDbEntity
  8
0
 62
7
100
AcDbLine
 10
399.322
 20
217.0
 30
0.0
 11
399.322
 21
212.0
 31
0.0
  0
MTEXT
  5
1012B
330
10121
100
AcDbEntity
  8
0
 62
7
100
AcDbMText
 10
401.197
 20
214.5
 30
0.0
 40
2.5
 71
5
  1
5
 50
90.0
  0
POINT
  5
1012C
330
10121
100
AcDbEntity
  8
Defpoints
100
AcDbPoint
 10
399.322
 20
217.0
 30
0.0
  0
POINT
  5
1012D
330
10121
100
AcDbEntity
  8
Defpoints
100
AcDbPoint
 10
376.822
 20
217.0
 30
0.0
  0
POINT
  5
1012E
330
10121
100
AcDbEntity
  8
Defpoints
100
AcDbPoint
 10
376.822
 20
212.0
 30
0.0
  0
ENDBLK
  5
10123
330
10121
100
AcDbEntity
  8
0
100
AcDbBlockEnd
  0
BLOCK
  5
10131
330
10130
100
AcDbEntity
  8
0
100
AcDbBlockBegin
  2
*D14
 70
1
 10
0.0
 20
0.0
 30
0.0
  3
*D14
  1

  0
LINE
  5
10133
330
10130
100
AcDbEntity
  8
0
 62
7
100
AcDbLine
 10
376.197
 20
282.0
 30
0.0
 11
360.572
 21
282.0
 31
0.0
  0
LINE
  5
10134
330
10130
100
AcDbEntity
  8
0
 62
7
100
AcDbLine
 10
376.197
 20
277.0
 30
0.0
 11
360.572
 21
277.0
 31
0.0
  0
INSERT
  5
10135
330
10130
100
AcDbEntity
  8
0
 62
7
100
AcDbBlockReference
  2
_ARCHTICK
 10
361.822
 20
282.0
 30
0.0
 41
2.5
 42
2.5
 50
90.0
  0
INSERT
  5
10137
330
10130
100
AcDbEntity
  8
0
 62
7
100
AcDbBlockReference
  2
_ARCHTICK
 10
361.822
 20
277.0
 30
0.0
 41
2.5
 42
2.5
 50
270.0
  0
LINE
  5
10139
330
10130
100
AcDbEntity
  8
0
 62
7
100
AcDbLine
 10
361.822
 20
282.0
 30
0.0
 11
361.822
 21
277.0
 31
0.0
  0
MTEXT
  5
1013A
330
10130
100
AcDbEntity
  8
0
 62
7
100
AcDbMText
 10
363.697
 20
279.5
 30
0.0
 40
2.5
 71
5
  1
5
 50
90.0
  0
POINT
  5
1013B
330
10130
100
AcDbEntity
  8
Defpoints
100
AcDbPoint
 10
361.822
 20
282.0
 30
0.0
  0
POINT
  5
1013C
330
10130
100
AcDbEntity
  8
Defpoints
100
AcDbPoint
 10
376.822
 20
282.0
 30
0.0
  0
POINT
  5
1013D
330
10130
100
AcDbEntity
  8
Defpoints
100
AcDbPoint
 10
376.822
 20
277.0
 30
0.0
  0
ENDBLK
  5
10132
330
10130
100
AcDbEntity
  8
0
100
AcDbBlockEnd
  0
BLOCK
  5
10140
330
1013F
100
AcDbEntity
  8
0
100
AcDbBlockBegin
  2
*D15
 70
1
 10
0.0
 20
0.0
 30
0.0
  3
*D15
  1

  0
LINE
  5
10142
330
1013F
100
AcDbEntity
  8
0
 62
7
100
AcDbLine
 10
376.197
 20
218.0
 30
0.0
 11
360.572
 21
218.0
 31
0.0
  0
LINE
  5
10143
330
1013F
100
AcDbEntity
  8
0
 62
7
100
AcDbLine
 10
376.197
 20
212.461
 30
0.0
 11
360.572
 21
212.461
 31
0.0
  0
INSERT
  5
10144
330
1013F
100
AcDbEntity
  8
0
 62
7
100
AcDbBlockReference
  2
_ARCHTICK
 10
361.822
 20
218.0
 30
0.0
 41
2.5
 42
2.5
 50
90.0
  0
INSERT
  5
10146
330
1013F
100
AcDbEntity
  8
0
 62
7
100
AcDbBlockReference
  2
_ARCHTICK
 10
361.822
 20
212.461
 30
0.0
 41
2.5
 42
2.5
 50
270.0
  0
LINE
  5
10148
330
1013F
100
AcDbEntity
  8
0
 62
7
100
AcDbLine
 10
361.822
 20
218.0
 30
0.0
 11
361.822
 21
212.461
 31
0.0
  0
MTEXT
  5
10149
330
1013F
100
AcDbEntity
  8
0
 62
7
100
AcDbMText
 10
364.947
 20
215.2305
 30
0.0
 40
2.5
 71
5
  1
5.5
 50
90.0
  0
POINT
  5
1014A
330
1013F
100
AcDbEntity
  8
Defpoints
100
AcDbPoint
 10
361.822
 20
218.0
 30
0.0
  0
POINT
  5
1014B
330
1013F
100
AcDbEntity
  8
Defpoints
100
AcDbPoint
 10
376.822
 20
218.0
 30
0.0
  0
POINT
  5
1014C
330
1013F
100
AcDbEntity
  8
Defpoints
100
AcDbPoint
 10
376.822
 20
212.461
 30
0.0
  0
ENDBLK
  5
10141
330
1013F
100
AcDbEntity
  8
0
100
AcDbBlockEnd
  0
BLOCK
  5
1014F
330
1014E
100
AcDbEntity
  8
0
100
AcDbBlockBegin
  2
*D16
 70
1
 10
0.0
 20
0.0
 30
0.0
  3
*D16
  1

  0
LINE
  5
10151
330
1014E
100
AcDbEntity
  8
0
 62
7
100
AcDbLine
 10
374.197
 20
218.0
 30
0.0
 11
358.572
 21
218.0
 31
0.0
  0
LINE
  5
10152
330
1014E
100
AcDbEntity
  8
0
 62
7
100
AcDbLine
 10
374.197
 20
212.461
 30
0.0
 11
358.572
 21
212.461
 31
0.0
  0
INSERT
  5
10153
330
1014E
100
AcDbEntity
  8
0
 62
7
100
AcDbBlockReference
  2
_ARCHTICK
 10
359.822
 20
218.0
 30
0.0
 41
2.5
 42
2.5
 50
90.0
  0
INSERT
  5
10155
330
1014E
100
AcDbEntity
  8
0
 62
7
100
AcDbBlockReference
  2
_ARCHTICK
 10
359.822
 20
212.461
 30
0.0
 41
2.5
 42
2.5
 50
270.0
  0
LINE
  5
10157
330
1014E
100
AcDbEntity
  8
0
 62
7
100
AcDbLine
 10
359.822
 20
218.0
 30
0.0
 11
359.822
 21
212.461
 31
0.0
  0
MTEXT
  5
10158
330
1014E
100
AcDbEntity
  8
0
 62
7
100
AcDbMText
 10
362.947
 20
215.2305
 30
0.0
 40
2.5
 71
5
  1
5.5
 50
90.0
  0
POINT
  5
10159
330
1014E
100
AcDbEntity
  8
Defpoints
100
AcDbPoint
 10
359.822
 20
218.0
 30
0.0
  0
POINT
  5
1015A
330
1014E
100
AcDbEntity
  8
Defpoints
100
AcDbPoint
 10
374.822
 20
218.0
 30
0.0
  0
POINT
  5
1015B
330
1014E
100
AcDbEntity
  8
Defpoints
100
AcDbPoint
 10
374.822
 20
212.461
 30
0.0
  0
ENDBLK
  5
10150
330
1014E
100
AcDbEntity
  8
0
100
AcDbBlockEnd
  0
BLOCK
  5
1015E
330
1015D
100
AcDbEntity
  8
0
100
AcDbBlockBegin
  2
*D17
 70
1
 10
0.0
 20
0.0
 30
0.0
  3
*D17
  1

  0
LINE
  5
10160
330
1015D
100
AcDbEntity
  8
0
 62
7
100
AcDbLine
 10
375.447
 20
281.539
 30
0.0
 11
398.572
 21
281.539
 31
0.0
  0
LINE
  5
10161
330
1015D
100
AcDbEntity
  8
0
 62
7
100
AcDbLine
 10
375.447
 20
276.0
 30
0.0
 11
398.572
 21
276.0
 31
0.0
  0
INSERT
  5
10162
330
1015D
100
AcDbEntity
  8
0
 62
7
100
AcDbBlockReference
  2
_ARCHTICK
 10
397.322
 20
281.539
 30
0.0
 41
2.5
 42
2.5
 50
90.0
  0
INSERT
  5
10164
330
1015D
100
AcDbEntity
  8
0
 62
7
100
AcDbBlockReference
  2
_ARCHTICK
 10
397.322
 20
276.0
 30
0.0
 41
2.5
 42
2.5
 50
270.0
  0
LINE
  5
10166
330
1015D
100
AcDbEntity
  8
0
 62
7
100
AcDbLine
 10
397.322
 20
281.539
 30
0.0
 11
397.322
 21
276.0
 31
0.0
  0
MTEXT
  5
10167
330
1015D
100
AcDbEntity
  8
0
 62
7
100
AcDbMText
 10
400.447
 20
278.7695
 30
0.0
 40
2.5
 71
5
  1
5.5
 50
90.0
  0
POINT
  5
10168
330
1015D
100
AcDbEntity
  8
Defpoints
100
AcDbPoint
 10
397.322
 20
281.539
 30
0.0
  0
POINT
  5
10169
330
1015D
100
AcDbEntity
  8
Defpoints
100
AcDbPoint
 10
374.822
 20
281.539
 30
0.0
  0
POINT
  5
1016A
330
1015D
100
AcDbEntity
  8
Defpoints
100
AcDbPoint
 10
374.822
 20
276.0
 30
0.0
  0
ENDBLK
  5
1015F
330
1015D
100
AcDbEntity
  8
0
100
AcDbBlockEnd
  0
BLOCK
  5
1016D
330
1016C
100
AcDbEntity
  8
0
100
AcDbBlockBegin
  2
*D18
 70
1
 10
0.0
 20
0.0
 30
0.0
  3
*D18
  1

  0
LINE
  5
1016F
330
1016C
100
AcDbEntity
  8
0
 62
7
100
AcDbLine
 10
376.197
 20
281.539
 30
0.0
 11
360.572
 21
281.539
 31
0.0
  0
LINE
  5
10170
330
1016C
100
AcDbEntity
  8
0
 62
7
100
AcDbLine
 10
376.197
 20
276.0
 30
0.0
 11
360.572
 21
276.0
 31
0.0
  0
INSERT
  5
10171
330
1016C
100
AcDbEntity
  8
0
 62
7
100
AcDbBlockReference
  2
_ARCHTICK
 10
361.822
 20
281.539
 30
0.0
 41
2.5
 42
2.5
 50
90.0
  0
INSERT
  5
10173
330
1016C
100
AcDbEntity
  8
0
 62
7
100
AcDbBlockReference
  2
_ARCHTICK
 10
361.822
 20
276.0
 30
0.0
 41
2.5
 42
2.5
 50
270.0
  0
LINE
  5
10175
330
1016C
100
AcDbEntity
  8
0
 62
7
100
AcDbLine
 10
361.822
 20
281.539
 30
0.0
 11
361.822
 21
276.0
 31
0.0
  0
MTEXT
  5
10176
330
1016C
100
AcDbEntity
  8
0
 62
7
100
AcDbMText
 10
364.947
 20
278.7695
 30
0.0
 40
2.5
 71
5
  1
5.5
 50
90.0
  0
POINT
  5
10177
330
1016C
100
AcDbEntity
  8
Defpoints
100
AcDbPoint
 10
361.822
 20
281.539
 30
0.0
  0
POINT
  5
10178
330
1016C
100
AcDbEntity
  8
Defpoints
100
AcDbPoint
 10
376.822
 20
281.539
 30
0.0
  0
POINT
  5
10179
330
1016C
100
AcDbEntity
  8
Defpoints
100
AcDbPoint
 10
376.822
 20
276.0
 30
0.0
  0
ENDBLK
  5
1016E
330
1016C
100
AcDbEntity
  8
0
100
AcDbBlockEnd
  0
BLOCK
  5
1017C
330
1017B
100
AcDbEntity
  8
0
100
AcDbBlockBegin
  2
*D19
 70
1
 10
0.0
 20
0.0
 30
0.0
  3
*D19
  1

  0
INSERT
  5
1017E
330
1017B
100
AcDbEntity
  8
0
 62
7
100
AcDbBlockReference
  2
_ARCHTICK
 10
473.8930678118655
 20
344.0710678118655
 30
0.0
 41
2.5
 42
2.5
 50
225.0
  0
LINE
  5
10180
330
1017B
100
AcDbEntity
  8
0
 62
7
100
AcDbLine
 10
466.822
 20
337.0
 30
0.0
 11
473.8930678118655
 21
344.0710678118655
 31
0.0
  0
LINE
  5
10181
330
1017B
100
AcDbEntity
  8
0
 62
7
100
AcDbLine
 10
473.8930678118655
 20
344.0710678118655
 30
0.0
 11
479.6383104090062
 21
349.8163104090062
 31
0.0
  0
MTEXT
  5
10182
330
1017B
100
AcDbEntity
  8
0
 62
7
100
AcDbMText
 10
477.42860171779824
 20
350.2582521472478
 30
0.0
 40
2.5
 71
5
  1
R10
 50
45.0
  0
POINT
  5
10183
330
1017B
100
AcDbEntity
  8
Defpoints
100
AcDbPoint
 10
466.822
 20
337.0
 30
0.0
  0
POINT
  5
10184
330
1017B
100
AcDbEntity
  8
Defpoints
100
AcDbPoint
 10
473.8930678118655
 20
344.0710678118655
 30
0.0
  0
ENDBLK
  5
1017D
330
1017B
100
AcDbEntity
  8
0
100
AcDbBlockEnd
  0
BLOCK
  5
10187
330
10186
100
AcDbEntity
  8
0
100
AcDbBlockBegin
  2
*D20
 70
1
 10
0.0
 20
0.0
 30
0.0
  3
*D20
  1

  0
LINE
  5
10189
330
10186
100
AcDbEntity
  8
0
 62
7
100
AcDbLine
 10
296.197
 20
247.0
 30
0.0
 11
280.572
 21
247.0
 31
0.0
  0
LINE
  5
1018A
330
10186
100
AcDbEntity
  8
0
 62
7
100
AcDbLine
 10
296.197
 20
272.0
 30
0.0
 11
280.572
 21
272.0
 31
0.0
  0
INSERT
  5
1018B
330
10186
100
AcDbEntity
  8
0
 62
7
100
AcDbBlockReference
  2
_ARCHTICK
 10
281.822
 20
247.0
 30
0.0
 41
2.5
 42
2.5
 50
270.0
  0
INSERT
  5
1018D
330
10186
100
AcDbEntity
  8
0
 62
7
100
AcDbBlockReference
  2
_ARCHTICK
 10
281.822
 20
272.0
 30
0.0
 41
2.5
 42
2.5
 50
90.0
  0
LINE
  5
1018F
330
10186
100
AcDbEntity
  8
0
 62
7
100
AcDbLine
 10
281.822
 20
247.0
 30
0.0
 11
281.822
 21
272.0
 31
0.0
  0
MTEXT
  5
10190
330
10186
100
AcDbEntity
  8
0
 62
7
100
AcDbMText
 10
279.947
 20
259.5
 30
0.0
 40
2.5
 71
5
  1
25
 50
90.0
  0
POINT
  5
10191
330
10186
100
AcDbEntity
  8
Defpoints
100
AcDbPoint
 10
281.822
 20
247.0
 30
0.0
  0
POINT
  5
10192
330
10186
100
AcDbEntity
  8
Defpoints
100
AcDbPoint
 10
296.822
 20
247.0
 30
0.0
  0
POINT
  5
10193
330
10186
100
AcDbEntity
  8
Defpoints
100
AcDbPoint
 10
296.822
 20
272.0
 30
0.0
  0
ENDBLK
  5
10188
330
10186
100
AcDbEntity
  8
0
100
AcDbBlockEnd
  0
BLOCK
  5
10196
330
10195
100
AcDbEntity
  8
0
100
AcDbBlockBegin
  2
*D21
 70
1
 10
0.0
 20
0.0
 30
0.0
  3
*D21
  1

  0
LINE
  5
10198
330
10195
100
AcDbEntity
  8
0
 62
7
100
AcDbLine
 10
296.822
 20
246.375
 30
0.0
 11
296.822
 21
230.75
 31
0.0
  0
LINE
  5
10199
330
10195
100
AcDbEntity
  8
0
 62
7
100
AcDbLine
 10
307.822
 20
246.375
 30
0.0
 11
307.822
 21
230.75
 31
0.0
  0
INSERT
  5
1019A
330
10195
100
AcDbEntity
  8
0
 62
7
100
AcDbBlockReference
  2
_ARCHTICK
 10
296.822
 20
232.0
 30
0.0
 41
2.5
 42
2.5
 50
180.0
  0
INSERT
  5
1019C
330
10195
100
AcDbEntity
  8
0
 62
7
100
AcDbBlockReference
  2
_ARCHTICK
 10
307.822
 20
232.0
 30
0.0
 41
2.5
 42
2.5
  0
LINE
  5
1019E
330
10195
100
AcDbEntity
  8
0
 62
7
100
AcDbLine
 10
296.822
 20
232.0
 30
0.0
 11
307.822
 21
232.0
 31
0.0
  0
MTEXT
  5
1019F
330
10195
100
AcDbEntity
  8
0
 62
7
100
AcDbMText
 10
302.322
 20
233.875
 30
0.0
 40
2.5
 71
5
  1
11
  0
POINT
  5
101A0
330
10195
100
AcDbEntity
  8
Defpoints
100
AcDbPoint
 10
296.822
 20
232.0
 30
0.0
  0
POINT
  5
101A1
330
10195
100
AcDbEntity
  8
Defpoints
100
AcDbPoint
 10
296.822
 20
247.0
 30
0.0
  0
POINT
  5
101A2
330
10195
100
AcDbEntity
  8
Defpoints
100
AcDbPoint
 10
307.822
 20
247.0
 30
0.0
  0
ENDBLK
  5
10197
330
10195
100
AcDbEntity
  8
0
100
AcDbBlockEnd
  0
ENDSEC
  0
SECTION
  2
ENTITIES
  0
SPLINE
  5
A08
330
A02
100
AcDbEntity
  8
FrontView
100
AcDbSpline
 70
8
 71
1
 72
17
 73
15
 74
0
 40
0.0
 40
0.0
 40
0.1122
 40
0.224399
 40
0.336599
 40
0.448799
 40
0.560999
 40
0.673198
 40
0.785398
 40
0.897598
 40
1.0098
 40
1.122
 40
1.2342
 40
1.3464
 40
1.4586
 40
1.5708
 40
1.5708
 10
146.822
 20
347.0
 30
0.0
 10
146.822
 20
346.937
 30
0.0
 10
146.822
 20
346.749
 30
0.0
 10
146.822
 20
346.439
 30
0.0
 10
146.822
 20
346.01
 30
0.0
 10
146.822
 20
345.467
 30
0.0
 10
146.822
 20
344.818
 30
0.0
 10
146.822
 20
344.071
 30
0.0
 10
146.822
 20
343.235
 30
0.0
 10
146.822
 20
342.32
 30
0.0
 10
146.822
 20
341.339
 30
0.0
 10
146.822
 20
340.303
 30
0.0
 10
146.822
 20
339.225
 30
0.0
 10
146.822
 20
338.12
 30
0.0
 10
146.822
 20
337.0
 30
0.0
  0
LINE
  5
A09
330
A02
100
AcDbEntity
  8
FrontView
100
AcDbLine
 10
146.822
 20
312.0
 30
0.0
 11
146.822
 21
337.0
 31
0.0
  0
LINE
  5
A0A
330
A02
100
AcDbEntity
  8
FrontView
100
AcDbLine
 10
146.822
 20
347.0
 30
0.0
 11
374.822
 21
347.0
 31
0.0
  0
LINE
  5
A0B
330
A02
100
AcDbEntity
  8
FrontView
100
AcDbLine
 10
374.822
 20
347.0
 30
0.0
 11
376.822
 21
347.0
 31
0.0
  0
SPLINE
  5
A0C
330
A02
100
AcDbEntity
  8
FrontView
100
AcDbSpline
 70
8
 71
1
 72
17
 73
15
 74
0
 40
0.0
 40
0.0
 40
0.090436
 40
0.180872
 40
0.271308
 40
0.361744
 40
0.45218
 40
0.542616
 40
0.633052
 40
0.723488
 40
0.813924
 40
0.90436
 40
0.994796
 40
1.08523
 40
1.17567
 40
1.2661
 40
1.2661
 10
374.822
 20
347.0
 30
0.0
 10
374.822
 20
346.959
 30
0.0
 10
374.822
 20
346.837
 30
0.0
 10
374.822
 20
346.634
 30
0.0
 10
374.822
 20
346.353
 30
0.0
 10
374.822
 20
345.995
 30
0.0
 10
374.822
 20
345.564
 30
0.0
 10
374.822
 20
345.062
 30
0.0
 10
374.822
 20
344.495
 30
0.0
 10
374.822
 20
343.867
 30
0.0
 10
374.822
 20
343.182
 30
0.0
 10
374.822
 20
342.447
 30
0.0
 10
374.822
 20
341.667
 30
0.0
 10
374.822
 20
340.849
 30
0.0
 10
374.822
 20
340.0
 30
0.0
  0
SPLINE
  5
A0D
330
A02
100
AcDbEntity
  8
FrontView
100
AcDbSpline
 70
8
 71
3
 72
8
 73
4
 74
0
 40
1.2661
 40
1.2661
 40
1.2661
 40
1.2661
 40
1.5708
 40
1.5708
 40
1.5708
 40
1.5708
 10
376.823
 20
340.0
 30
0.0
 10
376.822
 20
339.031
 30
0.0
 10
376.823
 20
338.016
 30
0.0
 10
376.822
 20
337.0
 30
0.0
  0
LINE
  5
A0E
330
A02
100
AcDbEntity
  8
FrontView
100
AcDbLine
 10
374.822
 20
340.0
 30
0.0
 11
376.822
 21
340.0
 31
0.0
  0
SPLINE
  5
A0F
330
A02
100
AcDbEntity
  8
FrontView
100
AcDbSpline
 70
8
 71
1
 72
17
 73
15
 74
0
 40
5.35589
 40
5.35589
 40
5.42213
 40
5.48836
 40
5.5546
 40
5.62083
 40
5.68707
 40
5.7533
 40
5.81954
 40
5.88577
 40
5.95201
 40
6.01824
 40
6.08448
 40
6.15071
 40
6.21695
 40
6.28319
 40
6.28319
 10
374.822
 20
340.0
 30
0.0
 10
374.822
 20
340.258
 30
0.0
 10
374.822
 20
340.502
 30
0.0
 10
374.822
 20
340.731
 30
0.0
 10
374.822
 20
340.943
 30
0.0
 10
374.822
 20
341.138
 30
0.0
 10
374.822
 20
341.314
 30
0.0
 10
374.822
 20
341.472
 30
0.0
 10
374.822
 20
341.61
 30
0.0
 10
374.822
 20
341.728
 30
0.0
 10
374.822
 20
341.826
 30
0.0
 10
374.822
 20
341.902
 30
0.0
 10
374.822
 20
341.956
 30
0.0
 10
374.822
 20
341.989
 30
0.0
 10
374.822
 20
342.0
 30
0.0
  0
LINE
  5
A10
330
A02
100
AcDbEntity
  8
FrontView
100
AcDbLine
 10
376.822
 20
312.0
 30
0.0
 11
376.822
 21
337.0
 31
0.0
  0
LINE
  5
A11
330
A02
100
AcDbEntity
  8
FrontView
100
AcDbLine
 10
146.822
 20
312.0
 30
0.0
 11
376.822
 21
312.0
 31
0.0
  0
LINE
  5
A12
330
A02
100
AcDbEntity
  8
FrontView
100
AcDbLine
 10
376.822
 20
342.0
 30
0.0
 11
374.822
 21
342.0
 31
0.0
  0
LINE
  5
A13
330
A02
100
AcDbEntity
  8
FrontView
100
AcDbLine
 10
376.822
 20
342.0
 30
0.0
 11
376.822
 21
347.0
 31
0.0
  0
LINE
  5
A14
330
A02
100
AcDbEntity
  8
FrontView
100
AcDbLine
 10
146.822
 20
337.0
 30
0.0
 11
376.822
 21
337.0
 31
0.0
  0
LINE
  5
A15
330
A02
100
AcDbEntity
  8
FrontView
100
AcDbLine
 10
146.822
 20
312.0
 30
0.0
 11
146.822
 21
337.0
 31
0.0
  0
SPLINE
  5
A16
330
A02
100
AcDbEntity
  8
FrontView
100
AcDbSpline
 70
8
 71
1
 72
17
 73
15
 74
0
 40
4.71239
 40
4.71239
 40
4.82459
 40
4.93679
 40
5.04899
 40
5.16119
 40
5.27339
 40
5.38559
 40
5.49779
 40
5.60999
 40
5.72219
 40
5.83439
 40
5.94659
 40
6.05879
 40
6.17099
 40
6.28319
 40
6.28319
 10
146.822
 20
337.0
 30
0.0
 10
146.822
 20
338.12
 30
0.0
 10
146.822
 20
339.225
 30
0.0
 10
146.822
 20
340.303
 30
0.0
 10
146.822
 20
341.339
 30
0.0
 10
146.822
 20
342.32
 30
0.0
 10
146.822
 20
343.235
 30
0.0
 10
146.822
 20
344.071
 30
0.0
 10
146.822
 20
344.818
 30
0.0
 10
146.822
 20
345.467
 30
0.0
 10
146.822
 20
346.01
 30
0.0
 10
146.822
 20
346.439
 30
0.0
 10
146.822
 20
346.749
 30
0.0
 10
146.822
 20
346.937
 30
0.0
 10
146.822
 20
347.0
 30
0.0
  0
LINE
  5
A17
330
A02
100
AcDbEntity
  8
FrontView
100
AcDbLine
 10
146.822
 20
312.0
 30
0.0
 11
146.822
 21
337.0
 31
0.0
  0
SPLINE
  5
A18
330
A02
100
AcDbEntity
  8
FrontView
100
AcDbSpline
 70
8
 71
2
 72
30
 73
27
 74
0
 40
0.0
 40
0.0
 40
0.0
 40
0.1122
 40
0.1122
 40
0.224399
 40
0.224399
 40
0.336599
 40
0.336599
 40
0.448799
 40
0.448799
 40
0.560999
 40
0.560999
 40
0.673198
 40
0.673198
 40
0.785398
 40
0.785398
 40
0.897598
 40
0.897598
 40
1.0098
 40
1.0098
 40
1.122
 40
1.122
 40
1.2342
 40
1.2342
 40
1.3464
 40
1.3464
 40
1.5708
 40
1.5708
 40
1.5708
 10
146.822
 20
342.0
 30
0.0
 10
146.822
 20
341.984
 30
0.0
 10
146.822
 20
341.969
 30
0.0
 10
146.822
 20
341.922
 30
0.0
 10
146.822
 20
341.875
 30
0.0
 10
146.822
 20
341.797
 30
0.0
 10
146.822
 20
341.719
 30
0.0
 10
146.822
 20
341.612
 30
0.0
 10
146.822
 20
341.505
 30
0.0
 10
146.822
 20
341.369
 30
0.0
 10
146.822
 20
341.234
 30
0.0
 10
146.822
 20
341.071
 30
0.0
 10
146.822
 20
340.909
 30
0.0
 10
146.822
 20
340.722
 30
0.0
 10
146.822
 20
340.536
 30
0.0
 10
146.822
 20
340.326
 30
0.0
 10
146.822
 20
340.117
 30
0.0
 10
146.822
 20
339.889
 30
0.0
 10
146.822
 20
339.66
 30
0.0
 10
146.822
 20
339.415
 30
0.0
 10
146.822
 20
339.169
 30
0.0
 10
146.822
 20
338.91
 30
0.0
 10
146.822
 20
338.651
 30
0.0
 10
146.822
 20
338.382
 30
0.0
 10
146.822
 20
338.113
 30
0.0
 10
146.822
 20
337.562
 30
0.0
 10
146.822
 20
337.0
 30
0.0
  0
SPLINE
  5
A19
330
A02
100
AcDbEntity
  8
FrontView
100
AcDbSpline
 70
8
 71
1
 72
17
 73
15
 74
0
 40
4.71239
 40
4.71239
 40
4.82459
 40
4.93679
 40
5.04899
 40
5.16119
 40
5.27339
 40
5.38559
 40
5.49779
 40
5.60999
 40
5.72219
 40
5.83439
 40
5.94659
 40
6.05879
 40
6.17099
 40
6.28319
 40
6.28319
 10
146.822
 20
337.0
 30
0.0
 10
146.822
 20
337.56
 30
0.0
 10
146.822
 20
338.113
 30
0.0
 10
146.822
 20
338.651
 30
0.0
 10
146.822
 20
339.169
 30
0.0
 10
146.822
 20
339.66
 30
0.0
 10
146.822
 20
340.117
 30
0.0
 10
146.822
 20
340.536
 30
0.0
 10
146.822
 20
340.909
 30
0.0
 10
146.822
 20
341.234
 30
0.0
 10
146.822
 20
341.505
 30
0.0
 10
146.822
 20
341.719
 30
0.0
 10
146.822
 20
341.875
 30
0.0
 10
146.822
 20
341.969
 30
0.0
 10
146.822
 20
342.0
 30
0.0
  0
LINE
  5
A1A
330
A02
100
AcDbEntity
  8
FrontView
100
AcDbLine
 10
146.822
 20
312.0
 30
0.0
 11
146.822
 21
337.0
 31
0.0
  0
LINE
  5
A1B
330
A02
100
AcDbEntity
  8
FrontView
100
AcDbLine
 10
376.822
 20
312.0
 30
0.0
 11
376.822
 21
337.0
 31
0.0
  0
LINE
  5
A1C
330
A02
100
AcDbEntity
  8
FrontView
100
AcDbLine
 10
146.822
 20
312.0
 30
0.0
 11
376.822
 21
312.0
 31
0.0
  0
SPLINE
  5
A1D
330
A02
100
AcDbEntity
  8
FrontView
100
AcDbSpline
 70
8
 71
3
 72
8
 73
4
 74
0
 40
4.71239
 40
4.71239
 40
4.71239
 40
4.71239
 40
5.01708
 40
5.01708
 40
5.01708
 40
5.01708
 10
376.822
 20
337.0
 30
0.0
 10
376.823
 20
338.016
 30
0.0
 10
376.822
 20
339.031
 30
0.0
 10
376.822
 20
340.0
 30
0.0
  0
LINE
  5
A1E
330
A02
100
AcDbEntity
  8
FrontView
100
AcDbLine
 10
146.822
 20
347.0
 30
0.0
 11
374.822
 21
347.0
 31
0.0
  0
SPLINE
  5
A1F
330
A02
100
AcDbEntity
  8
FrontView
100
AcDbSpline
 70
8
 71
1
 72
17
 73
15
 74
0
 40
5.01708
 40
5.01708
 40
5.10752
 40
5.19795
 40
5.28839
 40
5.37883
 40
5.46926
 40
5.5597
 40
5.65013
 40
5.74057
 40
5.83101
 40
5.92144
 40
6.01188
 40
6.10231
 40
6.19275
 40
6.28319
 40
6.28319
 10
374.822
 20
340.0
 30
0.0
 10
374.822
 20
340.849
 30
0.0
 10
374.822
 20
341.667
 30
0.0
 10
374.822
 20
342.447
 30
0.0
 10
374.822
 20
343.182
 30
0.0
 10
374.822
 20
343.867
 30
0.0
 10
374.822
 20
344.495
 30
0.0
 10
374.822
 20
345.062
 30
0.0
 10
374.822
 20
345.564
 30
0.0
 10
374.822
 20
345.995
 30
0.0
 10
374.822
 20
346.353
 30
0.0
 10
374.822
 20
346.634
 30
0.0
 10
374.822
 20
346.837
 30
0.0
 10
374.822
 20
346.959
 30
0.0
 10
374.822
 20
347.0
 30
0.0
  0
LINE
  5
A20
330
A02
100
AcDbEntity
  8
FrontView
100
AcDbLine
 10
376.822
 20
340.0
 30
0.0
 11
374.822
 21
340.0
 31
0.0
  0
LINE
  5
A21
330
A02
100
AcDbEntity
  8
FrontView
100
AcDbLine
 10
146.822
 20
312.0
 30
0.0
 11
376.822
 21
312.0
 31
0.0
  0
LINE
  5
A22
330
A02
100
AcDbEntity
  8
FrontView
100
AcDbLine
 10
374.822
 20
347.0
 30
0.0
 11
376.822
 21
347.0
 31
0.0
  0
SPLINE
  5
A23
330
A02
100
AcDbEntity
  8
FrontView
100
AcDbSpline
 70
8
 71
1
 72
17
 73
15
 74
0
 40
0.0
 40
0.0
 40
0.224399
 40
0.448799
 40
0.673198
 40
0.897598
 40
1.122
 40
1.3464
 40
1.5708
 40
1.7952
 40
2.0196
 40
2.24399
 40
2.46839
 40
2.69279
 40
2.91719
 40
3.14159
 40
3.14159
 10
197.822
 20
347.0
 30
0.0
 10
197.547
 20
347.0
 30
0.0
 10
196.733
 20
347.0
 30
0.0
 10
195.423
 20
347.0
 30
0.0
 10
193.681
 20
347.0
 30
0.0
 10
191.595
 20
347.0
 30
0.0
 10
189.27
 20
347.0
 30
0.0
 10
186.822
 20
347.0
 30
0.0
 10
184.375
 20
347.0
 30
0.0
 10
182.05
 20
347.0
 30
0.0
 10
179.964
 20
347.0
 30
0.0
 10
178.222
 20
347.0
 30
0.0
 10
176.912
 20
347.0
 30
0.0
 10
176.098
 20
347.0
 30
0.0
 10
175.822
 20
347.0
 30
0.0
  0
SPLINE
  5
A24
330
A02
100
AcDbEntity
  8
FrontView
100
AcDbSpline
 70
8
 71
1
 72
17
 73
15
 74
0
 40
3.14159
 40
3.14159
 40
3.36599
 40
3.59039
 40
3.81479
 40
4.03919
 40
4.26359
 40
4.48799
 40
4.71239
 40
4.93679
 40
5.16119
 40
5.38559
 40
5.60999
 40
5.83439
 40
6.05879
 40
6.28319
 40
6.28319
 10
175.822
 20
347.0
 30
0.0
 10
176.098
 20
347.0
 30
0.0
 10
176.912
 20
347.0
 30
0.0
 10
178.222
 20
347.0
 30
0.0
 10
179.964
 20
347.0
 30
0.0
 10
182.05
 20
347.0
 30
0.0
 10
184.375
 20
347.0
 30
0.0
 10
186.822
 20
347.0
 30
0.0
 10
189.27
 20
347.0
 30
0.0
 10
191.595
 20
347.0
 30
0.0
 10
193.681
 20
347.0
 30
0.0
 10
195.423
 20
347.0
 30
0.0
 10
196.733
 20
347.0
 30
0.0
 10
197.547
 20
347.0
 30
0.0
 10
197.822
 20
347.0
 30
0.0
  0
SPLINE
  5
A25
330
A02
100
AcDbEntity
  8
FrontView
100
AcDbSpline
 70
8
 71
1
 72
17
 73
15
 74
0
 40
0.0
 40
0.0
 40
0.224399
 40
0.448799
 40
0.673198
 40
0.897598
 40
1.122
 40
1.3464
 40
1.5708
 40
1.7952
 40
2.0196
 40
2.24399
 40
2.46839
 40
2.69279
 40
2.91719
 40
3.14159
 40
3.14159
 10
307.822
 20
347.0
 30
0.0
 10
307.547
 20
347.0
 30
0.0
 10
306.733
 20
347.0
 30
0.0
 10
305.423
 20
347.0
 30
0.0
 10
303.681
 20
347.0
 30
0.0
 10
301.595
 20
347.0
 30
0.0
 10
299.27
 20
347.0
 30
0.0
 10
296.822
 20
347.0
 30
0.0
 10
294.375
 20
347.0
 30
0.0
 10
292.05
 20
347.0
 30
0.0
 10
289.964
 20
347.0
 30
0.0
 10
288.222
 20
347.0
 30
0.0
 10
286.912
 20
347.0
 30
0.0
 10
286.098
 20
347.0
 30
0.0
 10
285.822
 20
347.0
 30
0.0
  0
SPLINE
  5
A26
330
A02
100
AcDbEntity
  8
FrontView
100
AcDbSpline
 70
8
 71
1
 72
17
 73
15
 74
0
 40
3.14159
 40
3.14159
 40
3.36599
 40
3.59039
 40
3.81479
 40
4.03919
 40
4.26359
 40
4.48799
 40
4.71239
 40
4.93679
 40
5.16119
 40
5.38559
 40
5.60999
 40
5.83439
 40
6.05879
 40
6.28319
 40
6.28319
 10
285.822
 20
347.0
 30
0.0
 10
286.098
 20
347.0
 30
0.0
 10
286.912
 20
347.0
 30
0.0
 10
288.222
 20
347.0
 30
0.0
 10
289.964
 20
347.0
 30
0.0
 10
292.05
 20
347.0
 30
0.0
 10
294.375
 20
347.0
 30
0.0
 10
296.822
 20
347.0
 30
0.0
 10
299.27
 20
347.0
 30
0.0
 10
301.595
 20
347.0
 30
0.0
 10
303.681
 20
347.0
 30
0.0
 10
305.423
 20
347.0
 30
0.0
 10
306.733
 20
347.0
 30
0.0
 10
307.547
 20
347.0
 30
0.0
 10
307.822
 20
347.0
 30
0.0
  0
LINE
  5
A27
330
A02
100
AcDbEntity
  8
FrontView
100
AcDbLine
 10
376.822
 20
312.0
 30
0.0
 11
376.822
 21
337.0
 31
0.0
  0
SPLINE
  5
A28
330
A02
100
AcDbEntity
  8
FrontView
100
AcDbSpline
 70
8
 71
3
 72
8
 73
4
 74
0
 40
4.71239
 40
4.71239
 40
4.71239
 40
4.71239
 40
5.35589
 40
5.35589
 40
5.35589
 40
5.35589
 10
376.822
 20
337.0
 30
0.0
 10
376.822
 20
338.073
 30
0.0
 10
376.822
 20
339.142
 30
0.0
 10
376.822
 20
340.0
 30
0.0
  0
LINE
  5
A29
330
A02
100
AcDbEntity
  8
FrontView
100
AcDbLine
 10
146.822
 20
342.0
 30
0.0
 11
374.822
 21
342.0
 31
0.0
  0
LINE
  5
A2A
330
A02
100
AcDbEntity
  8
FrontView
100
AcDbLine
 10
376.822
 20
340.0
 30
0.0
 11
374.822
 21
340.0
 31
0.0
  0
LINE
  5
A2B
330
A02
100
AcDbEntity
  8
FrontView
100
AcDbLine
 10
146.822
 20
342.0
 30
0.0
 11
374.822
 21
342.0
 31
0.0
  0
LINE
  5
A2C
330
A02
100
AcDbEntity
  8
FrontView
100
AcDbLine
 10
376.822
 20
342.0
 30
0.0
 11
374.822
 21
342.0
 31
0.0
  0
SPLINE
  5
A2D
330
A02
100
AcDbEntity
  8
FrontView
100
AcDbSpline
 70
8
 71
1
 72
17
 73
15
 74
0
 40
0.0
 40
0.0
 40
0.224399
 40
0.448799
 40
0.673198
 40
0.897598
 40
1.122
 40
1.3464
 40
1.5708
 40
1.7952
 40
2.0196
 40
2.24399
 40
2.46839
 40
2.69279
 40
2.91719
 40
3.14159
 40
3.14159
 10
197.822
 20
342.0
 30
0.0
 10
197.547
 20
342.0
 30
0.0
 10
196.733
 20
342.0
 30
0.0
 10
195.423
 20
342.0
 30
0.0
 10
193.681
 20
342.0
 30
0.0
 10
191.595
 20
342.0
 30
0.0
 10
189.27
 20
342.0
 30
0.0
 10
186.822
 20
342.0
 30
0.0
 10
184.375
 20
342.0
 30
0.0
 10
182.05
 20
342.0
 30
0.0
 10
179.964
 20
342.0
 30
0.0
 10
178.222
 20
342.0
 30
0.0
 10
176.912
 20
342.0
 30
0.0
 10
176.098
 20
342.0
 30
0.0
 10
175.822
 20
342.0
 30
0.0
  0
SPLINE
  5
A2E
330
A02
100
AcDbEntity
  8
FrontView
100
AcDbSpline
 70
8
 71
1
 72
17
 73
15
 74
0
 40
3.14159
 40
3.14159
 40
3.36599
 40
3.59039
 40
3.81479
 40
4.03919
 40
4.26359
 40
4.48799
 40
4.71239
 40
4.93679
 40
5.16119
 40
5.38559
 40
5.60999
 40
5.83439
 40
6.05879
 40
6.28319
 40
6.28319
 10
175.822
 20
342.0
 30
0.0
 10
176.098
 20
342.0
 30
0.0
 10
176.912
 20
342.0
 30
0.0
 10
178.222
 20
342.0
 30
0.0
 10
179.964
 20
342.0
 30
0.0
 10
182.05
 20
342.0
 30
0.0
 10
184.375
 20
342.0
 30
0.0
 10
186.822
 20
342.0
 30
0.0
 10
189.27
 20
342.0
 30
0.0
 10
191.595
 20
342.0
 30
0.0
 10
193.681
 20
342.0
 30
0.0
 10
195.423
 20
342.0
 30
0.0
 10
196.733
 20
342.0
 30
0.0
 10
197.547
 20
342.0
 30
0.0
 10
197.822
 20
342.0
 30
0.0
  0
SPLINE
  5
A2F
330
A02
100
AcDbEntity
  8
FrontView
100
AcDbSpline
 70
8
 71
1
 72
17
 73
15
 74
0
 40
0.0
 40
0.0
 40
0.224399
 40
0.448799
 40
0.673198
 40
0.897598
 40
1.122
 40
1.3464
 40
1.5708
 40
1.7952
 40
2.0196
 40
2.24399
 40
2.46839
 40
2.69279
 40
2.91719
 40
3.14159
 40
3.14159
 10
307.822
 20
342.0
 30
0.0
 10
307.547
 20
342.0
 30
0.0
 10
306.733
 20
342.0
 30
0.0
 10
305.423
 20
342.0
 30
0.0
 10
303.681
 20
342.0
 30
0.0
 10
301.595
 20
342.0
 30
0.0
 10
299.27
 20
342.0
 30
0.0
 10
296.822
 20
342.0
 30
0.0
 10
294.375
 20
342.0
 30
0.0
 10
292.05
 20
342.0
 30
0.0
 10
289.964
 20
342.0
 30
0.0
 10
288.222
 20
342.0
 30
0.0
 10
286.912
 20
342.0
 30
0.0
 10
286.098
 20
342.0
 30
0.0
 10
285.822
 20
342.0
 30
0.0
  0
SPLINE
  5
A30
330
A02
100
AcDbEntity
  8
FrontView
100
AcDbSpline
 70
8
 71
1
 72
17
 73
15
 74
0
 40
3.14159
 40
3.14159
 40
3.36599
 40
3.59039
 40
3.81479
 40
4.03919
 40
4.26359
 40
4.48799
 40
4.71239
 40
4.93679
 40
5.16119
 40
5.38559
 40
5.60999
 40
5.83439
 40
6.05879
 40
6.28319
 40
6.28319
 10
285.822
 20
342.0
 30
0.0
 10
286.098
 20
342.0
 30
0.0
 10
286.912
 20
342.0
 30
0.0
 10
288.222
 20
342.0
 30
0.0
 10
289.964
 20
342.0
 30
0.0
 10
292.05
 20
342.0
 30
0.0
 10
294.375
 20
342.0
 30
0.0
 10
296.822
 20
342.0
 30
0.0
 10
299.27
 20
342.0
 30
0.0
 10
301.595
 20
342.0
 30
0.0
 10
303.681
 20
342.0
 30
0.0
 10
305.423
 20
342.0
 30
0.0
 10
306.733
 20
342.0
 30
0.0
 10
307.547
 20
342.0
 30
0.0
 10
307.822
 20
342.0
 30
0.0
  0
LINE
  5
A31
330
A02
100
AcDbEntity
  8
FrontView
100
AcDbLine
 10
146.822
 20
312.0
 30
0.0
 11
376.822
 21
312.0
 31
0.0
  0
SPLINE
  5
A32
330
A02
100
AcDbEntity
  8
FrontView
100
AcDbSpline
 70
8
 71
1
 72
17
 73
15
 74
0
 40
0.0
 40
0.0
 40
0.0662354
 40
0.132471
 40
0.198706
 40
0.264941
 40
0.331177
 40
0.397412
 40
0.463648
 40
0.529883
 40
0.596118
 40
0.662354
 40
0.728589
 40
0.794824
 40
0.86106
 40
0.927295
 40
0.927295
 10
374.822
 20
342.0
 30
0.0
 10
374.822
 20
341.989
 30
0.0
 10
374.822
 20
341.956
 30
0.0
 10
374.822
 20
341.902
 30
0.0
 10
374.822
 20
341.826
 30
0.0
 10
374.822
 20
341.728
 30
0.0
 10
374.822
 20
341.61
 30
0.0
 10
374.822
 20
341.472
 30
0.0
 10
374.822
 20
341.314
 30
0.0
 10
374.822
 20
341.138
 30
0.0
 10
374.822
 20
340.943
 30
0.0
 10
374.822
 20
340.731
 30
0.0
 10
374.822
 20
340.502
 30
0.0
 10
374.822
 20
340.258
 30
0.0
 10
374.822
 20
340.0
 30
0.0
  0
SPLINE
  5
A33
330
A02
100
AcDbEntity
  8
FrontView
100
AcDbSpline
 70
8
 71
3
 72
8
 73
4
 74
0
 40
0.927295
 40
0.927295
 40
0.927295
 40
0.927295
 40
1.5708
 40
1.5708
 40
1.5708
 40
1.5708
 10
376.822
 20
340.0
 30
0.0
 10
376.822
 20
339.142
 30
0.0
 10
376.822
 20
338.073
 30
0.0
 10
376.822
 20
337.0
 30
0.0
  0
LINE
  5
A34
330
A02
100
AcDbEntity
  8
FrontView
100
AcDbLine
 10
374.822
 20
340.0
 30
0.0
 11
376.822
 21
340.0
 31
0.0
  0
LINE
  5
A35
330
A02
100
AcDbEntity
  8
FrontView
100
AcDbLine
 10
376.822
 20
312.0
 30
0.0
 11
376.822
 21
337.0
 31
0.0
  0
LINE
  5
A36
330
A02
100
AcDbEntity
  8
FrontView
100
AcDbLine
 10
374.822
 20
342.0
 30
0.0
 11
374.822
 21
347.0
 31
0.0
  0
LINE
  5
A37
330
A02
100
AcDbEntity
  8
FrontView
100
AcDbLine
 10
374.822
 20
342.0
 30
0.0
 11
374.822
 21
347.0
 31
0.0
  0
LINE
  5
A38
330
A02
100
AcDbEntity
  8
FrontView
100
AcDbLine
 10
376.822
 20
342.0
 30
0.0
 11
376.822
 21
347.0
 31
0.0
  0
LINE
  5
A39
330
A02
100
AcDbEntity
  8
FrontView
100
AcDbLine
 10
197.822
 20
342.0
 30
0.0
 11
197.822
 21
347.0
 31
0.0
  0
LINE
  5
A3A
330
A02
100
AcDbEntity
  8
FrontView
100
AcDbLine
 10
307.822
 20
342.0
 30
0.0
 11
307.822
 21
347.0
 31
0.0
  0
LINE
  5
A3B
330
A02
100
AcDbEntity
  8
FrontView
100
AcDbLine
 10
175.822
 20
342.0
 30
0.0
 11
175.822
 21
347.0
 31
0.0
  0
LINE
  5
A3C
330
A02
100
AcDbEntity
  8
FrontView
100
AcDbLine
 10
285.822
 20
342.0
 30
0.0
 11
285.822
 21
347.0
 31
0.0
  0
LINE
  5
A3D
330
A02
100
AcDbEntity
  8
TopView
100
AcDbLine
 10
146.822
 20
282.0
 30
0.0
 11
146.822
 21
277.0
 31
0.0
  0
SPLINE
  5
A3E
330
A02
100
AcDbEntity
  8
TopView
100
AcDbSpline
 70
8
 71
1
 72
17
 73
15
 74
0
 40
0.0
 40
0.0
 40
0.1122
 40
0.224399
 40
0.336599
 40
0.448799
 40
0.560999
 40
0.673198
 40
0.785398
 40
0.897598
 40
1.0098
 40
1.122
 40
1.2342
 40
1.3464
 40
1.4586
 40
1.5708
 40
1.5708
 10
146.822
 20
272.0
 30
0.0
 10
146.822
 20
272.56
 30
0.0
 10
146.822
 20
273.113
 30
0.0
 10
146.822
 20
273.651
 30
0.0
 10
146.822
 20
274.169
 30
0.0
 10
146.822
 20
274.66
 30
0.0
 10
146.822
 20
275.117
 30
0.0
 10
146.822
 20
275.536
 30
0.0
 10
146.822
 20
275.909
 30
0.0
 10
146.822
 20
276.234
 30
0.0
 10
146.822
 20
276.505
 30
0.0
 10
146.822
 20
276.719
 30
0.0
 10
146.822
 20
276.875
 30
0.0
 10
146.822
 20
276.969
 30
0.0
 10
146.822
 20
277.0
 30
0.0
  0
LINE
  5
A3F
330
A02
100
AcDbEntity
  8
TopView
100
AcDbLine
 10
146.822
 20
272.0
 30
0.0
 11
146.822
 21
222.0
 31
0.0
  0
SPLINE
  5
A40
330
A02
100
AcDbEntity
  8
TopView
100
AcDbSpline
 70
8
 71
2
 72
30
 73
27
 74
0
 40
4.71239
 40
4.71239
 40
4.71239
 40
4.82459
 40
4.82459
 40
4.93679
 40
4.93679
 40
5.04899
 40
5.04899
 40
5.16119
 40
5.16119
 40
5.27339
 40
5.27339
 40
5.38559
 40
5.38559
 40
5.49779
 40
5.49779
 40
5.60999
 40
5.60999
 40
5.72219
 40
5.72219
 40
5.83439
 40
5.83439
 40
5.94659
 40
5.94659
 40
6.05879
 40
6.05879
 40
6.28319
 40
6.28319
 40
6.28319
 10
146.822
 20
217.0
 30
0.0
 10
146.822
 20
217.016
 30
0.0
 10
146.822
 20
217.031
 30
0.0
 10
146.822
 20
217.078
 30
0.0
 10
146.822
 20
217.125
 30
0.0
 10
146.822
 20
217.203
 30
0.0
 10
146.822
 20
217.281
 30
0.0
 10
146.822
 20
217.388
 30
0.0
 10
146.822
 20
217.495
 30
0.0
 10
146.822
 20
217.631
 30
0.0
 10
146.822
 20
217.766
 30
0.0
 10
146.822
 20
217.929
 30
0.0
 10
146.822
 20
218.091
 30
0.0
 10
146.822
 20
218.278
 30
0.0
 10
146.822
 20
218.464
 30
0.0
 10
146.822
 20
218.674
 30
0.0
 10
146.822
 20
218.883
 30
0.0
 10
146.822
 20
219.111
 30
0.0
 10
146.822
 20
219.34
 30
0.0
 10
146.822
 20
219.585
 30
0.0
 10
146.822
 20
219.831
 30
0.0
 10
146.822
 20
220.09
 30
0.0
 10
146.822
 20
220.349
 30
0.0
 10
146.822
 20
220.618
 30
0.0
 10
146.822
 20
220.887
 30
0.0
 10
146.822
 20
221.438
 30
0.0
 10
146.822
 20
222.0
 30
0.0
  0
LINE
  5
A41
330
A02
100
AcDbEntity
  8
TopView
100
AcDbLine
 10
146.822
 20
217.0
 30
0.0
 11
146.822
 21
212.0
 31
0.0
  0
LINE
  5
A42
330
A02
100
AcDbEntity
  8
TopView
100
AcDbLine
 10
146.822
 20
212.0
 30
0.0
 11
376.822
 21
212.0
 31
0.0
  0
SPLINE
  5
A43
330
A02
100
AcDbEntity
  8
TopView
100
AcDbSpline
 70
8
 71
3
 72
8
 73
4
 74
0
 40
5.87167
 40
5.87167
 40
5.87167
 40
5.87167
 40
6.28319
 40
6.28319
 40
6.28319
 40
6.28319
 10
374.822
 20
218.0
 30
0.0
 10
374.822
 20
219.258
 30
0.0
 10
374.823
 20
220.628
 30
0.0
 10
374.822
 20
222.0
 30
0.0
  0
LINE
  5
A44
330
A02
100
AcDbEntity
  8
TopView
100
AcDbLine
 10
146.822
 20
217.0
 30
0.0
 11
376.822
 21
217.0
 31
0.0
  0
LINE
  5
A45
330
A02
100
AcDbEntity
  8
TopView
100
AcDbLine
 10
376.822
 20
217.0
 30
0.0
 11
376.822
 21
212.0
 31
0.0
  0
SPLINE
  5
A46
330
A02
100
AcDbEntity
  8
TopView
100
AcDbSpline
 70
8
 71
3
 72
8
 73
4
 74
0
 40
0.0
 40
0.0
 40
0.0
 40
0.0
 40
0.411517
 40
0.411517
 40
0.411517
 40
0.411517
 10
374.822
 20
272.0
 30
0.0
 10
374.822
 20
273.372
 30
0.0
 10
374.822
 20
274.742
 30
0.0
 10
374.822
 20
276.0
 30
0.0
  0
SPLINE
  5
A47
330
A02
100
AcDbEntity
  8
TopView
100
AcDbSpline
 70
8
 71
1
 72
17
 73
15
 74
0
 40
4.71239
 40
4.71239
 40
4.75835
 40
4.80432
 40
4.85028
 40
4.89625
 40
4.94221
 40
4.98818
 40
5.03414
 40
5.0801
 40
5.12607
 40
5.17203
 40
5.218
 40
5.26396
 40
5.30993
 40
5.35589
 40
5.35589
 10
376.822
 20
217.0
 30
0.0
 10
376.822
 20
217.005
 30
0.0
 10
376.822
 20
217.021
 30
0.0
 10
376.822
 20
217.047
 30
0.0
 10
376.822
 20
217.084
 30
0.0
 10
376.822
 20
217.131
 30
0.0
 10
376.822
 20
217.189
 30
0.0
 10
376.822
 20
217.257
 30
0.0
 10
376.822
 20
217.334
 30
0.0
 10
376.822
 20
217.422
 30
0.0
 10
376.822
 20
217.519
 30
0.0
 10
376.822
 20
217.626
 30
0.0
 10
376.822
 20
217.741
 30
0.0
 10
376.822
 20
217.866
 30
0.0
 10
376.822
 20
218.0
 30
0.0
  0
SPLINE
  5
A48
330
A02
100
AcDbEntity
  8
TopView
100
AcDbSpline
 70
8
 71
3
 72
35
 73
31
 74
0
 40
5.35589
 40
5.35589
 40
5.35589
 40
5.35589
 40
5.42213
 40
5.42213
 40
5.42213
 40
5.48836
 40
5.48836
 40
5.48836
 40
5.5546
 40
5.5546
 40
5.5546
 40
5.62083
 40
5.62083
 40
5.62083
 40
5.68707
 40
5.68707
 40
5.68707
 40
5.7533
 40
5.7533
 40
5.7533
 40
5.81954
 40
5.81954
 40
5.81954
 40
5.88577
 40
5.88577
 40
5.88577
 40
6.01824
 40
6.01824
 40
6.01824
 40
6.28319
 40
6.28319
 40
6.28319
 40
6.28319
 10
374.823
 20
218.0
 30
0.0
 10
374.822
 20
218.069
 30
0.0
 10
374.823
 20
218.138
 30
0.0
 10
374.822
 20
218.207
 30
0.0
 10
374.823
 20
218.282
 30
0.0
 10
374.822
 20
218.357
 30
0.0
 10
374.822
 20
218.431
 30
0.0
 10
374.822
 20
218.511
 30
0.0
 10
374.823
 20
218.591
 30
0.0
 10
374.822
 20
218.671
 30
0.0
 10
374.822
 20
218.756
 30
0.0
 10
374.822
 20
218.84
 30
0.0
 10
374.823
 20
218.925
 30
0.0
 10
374.822
 20
219.014
 30
0.0
 10
374.823
 20
219.104
 30
0.0
 10
374.822
 20
219.193
 30
0.0
 10
374.823
 20
219.286
 30
0.0
 10
374.822
 20
219.38
 30
0.0
 10
374.822
 20
219.473
 30
0.0
 10
374.822
 20
219.57
 30
0.0
 10
374.823
 20
219.667
 30
0.0
 10
374.822
 20
219.764
 30
0.0
 10
374.822
 20
219.864
 30
0.0
 10
374.822
 20
219.965
 30
0.0
 10
374.823
 20
220.065
 30
0.0
 10
374.823
 20
220.27
 30
0.0
 10
374.822
 20
220.478
 30
0.0
 10
374.822
 20
220.691
 30
0.0
 10
374.822
 20
221.118
 30
0.0
 10
374.823
 20
221.558
 30
0.0
 10
374.822
 20
222.0
 30
0.0
  0
LINE
  5
A49
330
A02
100
AcDbEntity
  8
TopView
100
AcDbLine
 10
376.822
 20
218.0
 30
0.0
 11
374.822
 21
218.0
 31
0.0
  0
LINE
  5
A4A
330
A02
100
AcDbEntity
  8
TopView
100
AcDbLine
 10
146.822
 20
282.0
 30
0.0
 11
376.822
 21
282.0
 31
0.0
  0
LINE
  5
A4B
330
A02
100
AcDbEntity
  8
TopView
100
AcDbLine
 10
376.822
 20
272.0
 30
0.0
 11
374.822
 21
272.0
 31
0.0
  0
LINE
  5
A4C
330
A02
100
AcDbEntity
  8
TopView
100
AcDbLine
 10
376.822
 20
222.0
 30
0.0
 11
376.822
 21
272.0
 31
0.0
  0
LINE
  5
A4D
330
A02
100
AcDbEntity
  8
TopView
100
AcDbLine
 10
376.822
 20
222.0
 30
0.0
 11
374.822
 21
222.0
 31
0.0
  0
CIRCLE
  5
A4E
330
A02
100
AcDbEntity
  8
TopView
100
AcDbCircle
 10
186.822
 20
247.0
 30
0.0
 40
11.0
  0
CIRCLE
  5
A4F
330
A02
100
AcDbEntity
  8
TopView
100
AcDbCircle
 10
296.822
 20
247.0
 30
0.0
 40
11.0
  0
LINE
  5
A50
330
A02
100
AcDbEntity
  8
TopView
100
AcDbLine
 10
376.822
 20
282.0
 30
0.0
 11
376.822
 21
277.0
 31
0.0
  0
LINE
  5
A51
330
A02
100
AcDbEntity
  8
TopView
100
AcDbLine
 10
146.822
 20
277.0
 30
0.0
 11
376.822
 21
277.0
 31
0.0
  0
SPLINE
  5
A52
330
A02
100
AcDbEntity
  8
TopView
100
AcDbSpline
 70
8
 71
2
 72
26
 73
23
 74
0
 40
0.0
 40
0.0
 40
0.0
 40
0.198706
 40
0.198706
 40
0.331177
 40
0.331177
 40
0.397412
 40
0.397412
 40
0.463648
 40
0.463648
 40
0.529883
 40
0.529883
 40
0.596118
 40
0.596118
 40
0.662354
 40
0.662354
 40
0.728589
 40
0.728589
 40
0.794824
 40
0.794824
 40
0.86106
 40
0.86106
 40
0.927295
 40
0.927295
 40
0.927295
 10
374.822
 20
272.0
 30
0.0
 10
374.822
 20
272.498
 30
0.0
 10
374.822
 20
272.987
 30
0.0
 10
374.822
 20
273.311
 30
0.0
 10
374.822
 20
273.626
 30
0.0
 10
374.822
 20
273.78
 30
0.0
 10
374.822
 20
273.935
 30
0.0
 10
374.822
 20
274.086
 30
0.0
 10
374.822
 20
274.236
 30
0.0
 10
374.822
 20
274.382
 30
0.0
 10
374.822
 20
274.527
 30
0.0
 10
374.822
 20
274.667
 30
0.0
 10
374.822
 20
274.807
 30
0.0
 10
374.822
 20
274.941
 30
0.0
 10
374.822
 20
275.075
 30
0.0
 10
374.822
 20
275.202
 30
0.0
 10
374.822
 20
275.329
 30
0.0
 10
374.822
 20
275.449
 30
0.0
 10
374.822
 20
275.569
 30
0.0
 10
374.822
 20
275.681
 30
0.0
 10
374.822
 20
275.793
 30
0.0
 10
374.822
 20
275.896
 30
0.0
 10
374.822
 20
276.0
 30
0.0
  0
SPLINE
  5
A53
330
A02
100
AcDbEntity
  8
TopView
100
AcDbSpline
 70
8
 71
1
 72
17
 73
15
 74
0
 40
0.927295
 40
0.927295
 40
0.97326
 40
1.01922
 40
1.06519
 40
1.11115
 40
1.15712
 40
1.20308
 40
1.24905
 40
1.29501
 40
1.34097
 40
1.38694
 40
1.4329
 40
1.47887
 40
1.52483
 40
1.5708
 40
1.5708
 10
376.822
 20
276.0
 30
0.0
 10
376.822
 20
276.134
 30
0.0
 10
376.822
 20
276.259
 30
0.0
 10
376.822
 20
276.374
 30
0.0
 10
376.822
 20
276.481
 30
0.0
 10
376.822
 20
276.578
 30
0.0
 10
376.822
 20
276.666
 30
0.0
 10
376.822
 20
276.743
 30
0.0
 10
376.822
 20
276.811
 30
0.0
 10
376.822
 20
276.869
 30
0.0
 10
376.822
 20
276.916
 30
0.0
 10
376.822
 20
276.953
 30
0.0
 10
376.822
 20
276.979
 30
0.0
 10
376.822
 20
276.995
 30
0.0
 10
376.822
 20
277.0
 30
0.0
  0
LINE
  5
A54
330
A02
100
AcDbEntity
  8
TopView
100
AcDbLine
 10
374.822
 20
276.0
 30
0.0
 11
376.822
 21
276.0
 31
0.0
  0
LINE
  5
A55
330
A02
100
AcDbEntity
  8
TopView
100
AcDbLine
 10
146.822
 20
222.0
 30
0.0
 11
374.822
 21
222.0
 31
0.0
  0
LINE
  5
A56
330
A02
100
AcDbEntity
  8
TopView
100
AcDbLine
 10
146.822
 20
272.0
 30
0.0
 11
374.822
 21
272.0
 31
0.0
  0
SPLINE
  5
A57
330
A02
100
AcDbEntity
  8
TopView
100
AcDbSpline
 70
8
 71
1
 72
17
 73
15
 74
0
 40
4.71239
 40
4.71239
 40
4.82459
 40
4.93679
 40
5.04899
 40
5.16119
 40
5.27339
 40
5.38559
 40
5.49779
 40
5.60999
 40
5.72219
 40
5.83439
 40
5.94659
 40
6.05879
 40
6.17099
 40
6.28319
 40
6.28319
 10
146.822
 20
212.0
 30
0.0
 10
146.822
 20
212.063
 30
0.0
 10
146.822
 20
212.251
 30
0.0
 10
146.822
 20
212.561
 30
0.0
 10
146.822
 20
212.99
 30
0.0
 10
146.822
 20
213.533
 30
0.0
 10
146.822
 20
214.182
 30
0.0
 10
146.822
 20
214.929
 30
0.0
 10
146.822
 20
215.765
 30
0.0
 10
146.822
 20
216.68
 30
0.0
 10
146.822
 20
217.661
 30
0.0
 10
146.822
 20
218.697
 30
0.0
 10
146.822
 20
219.775
 30
0.0
 10
146.822
 20
220.88
 30
0.0
 10
146.822
 20
222.0
 30
0.0
  0
LINE
  5
A58
330
A02
100
AcDbEntity
  8
TopView
100
AcDbLine
 10
146.822
 20
272.0
 30
0.0
 11
146.822
 21
222.0
 31
0.0
  0
SPLINE
  5
A59
330
A02
100
AcDbEntity
  8
TopView
100
AcDbSpline
 70
8
 71
1
 72
17
 73
15
 74
0
 40
0.0
 40
0.0
 40
0.1122
 40
0.224399
 40
0.336599
 40
0.448799
 40
0.560999
 40
0.673198
 40
0.785398
 40
0.897598
 40
1.0098
 40
1.122
 40
1.2342
 40
1.3464
 40
1.4586
 40
1.5708
 40
1.5708
 10
146.822
 20
272.0
 30
0.0
 10
146.822
 20
273.12
 30
0.0
 10
146.822
 20
274.225
 30
0.0
 10
146.822
 20
275.303
 30
0.0
 10
146.822
 20
276.339
 30
0.0
 10
146.822
 20
277.32
 30
0.0
 10
146.822
 20
278.235
 30
0.0
 10
146.822
 20
279.071
 30
0.0
 10
146.822
 20
279.818
 30
0.0
 10
146.822
 20
280.467
 30
0.0
 10
146.822
 20
281.01
 30
0.0
 10
146.822
 20
281.439
 30
0.0
 10
146.822
 20
281.749
 30
0.0
 10
146.822
 20
281.937
 30
0.0
 10
146.822
 20
282.0
 30
0.0
  0
LINE
  5
A5A
330
A02
100
AcDbEntity
  8
TopView
100
AcDbLine
 10
146.822
 20
212.0
 30
0.0
 11
376.822
 21
212.0
 31
0.0
  0
SPLINE
  5
A5B
330
A02
100
AcDbEntity
  8
TopView
100
AcDbSpline
 70
8
 71
2
 72
6
 73
3
 74
0
 40
4.71239
 40
4.71239
 40
4.71239
 40
5.01708
 40
5.01708
 40
5.01708
 10
376.822
 20
212.0
 30
0.0
 10
376.822
 20
212.002
 30
0.0
 10
376.822
 20
212.461
 30
0.0
  0
SPLINE
  5
A5C
330
A02
100
AcDbEntity
  8
TopView
100
AcDbSpline
 70
8
 71
1
 72
17
 73
15
 74
0
 40
5.01708
 40
5.01708
 40
5.07812
 40
5.13917
 40
5.20021
 40
5.26125
 40
5.32229
 40
5.38333
 40
5.44438
 40
5.50542
 40
5.56646
 40
5.6275
 40
5.68854
 40
5.74958
 40
5.81063
 40
5.87167
 40
5.87167
 10
374.822
 20
212.461
 30
0.0
 10
374.822
 20
212.661
 30
0.0
 10
374.822
 20
212.897
 30
0.0
 10
374.822
 20
213.166
 30
0.0
 10
374.822
 20
213.469
 30
0.0
 10
374.822
 20
213.803
 30
0.0
 10
374.822
 20
214.168
 30
0.0
 10
374.822
 20
214.562
 30
0.0
 10
374.822
 20
214.983
 30
0.0
 10
374.822
 20
215.431
 30
0.0
 10
374.822
 20
215.903
 30
0.0
 10
374.822
 20
216.398
 30
0.0
 10
374.822
 20
216.914
 30
0.0
 10
374.822
 20
217.448
 30
0.0
 10
374.822
 20
218.0
 30
0.0
  0
LINE
  5
A5D
330
A02
100
AcDbEntity
  8
TopView
100
AcDbLine
 10
376.822
 20
212.461
 30
0.0
 11
374.822
 21
212.461
 31
0.0
  0
LINE
  5
A5E
330
A02
100
AcDbEntity
  8
TopView
100
AcDbLine
 10
374.822
 20
272.0
 30
0.0
 11
376.822
 21
272.0
 31
0.0
  0
LINE
  5
A5F
330
A02
100
AcDbEntity
  8
TopView
100
AcDbLine
 10
376.822
 20
272.0
 30
0.0
 11
376.822
 21
222.0
 31
0.0
  0
LINE
  5
A60
330
A02
100
AcDbEntity
  8
TopView
100
AcDbLine
 10
374.822
 20
222.0
 30
0.0
 11
376.822
 21
222.0
 31
0.0
  0
CIRCLE
  5
A61
330
A02
100
AcDbEntity
  8
TopView
100
AcDbCircle
 10
186.822
 20
247.0
 30
0.0
 40
11.0
  0
CIRCLE
  5
A62
330
A02
100
AcDbEntity
  8
TopView
100
AcDbCircle
 10
296.822
 20
247.0
 30
0.0
 40
11.0
  0
LINE
  5
A63
330
A02
100
AcDbEntity
  8
TopView
100
AcDbLine
 10
146.822
 20
217.0
 30
0.0
 11
376.822
 21
217.0
 31
0.0
  0
SPLINE
  5
A64
330
A02
100
AcDbEntity
  8
TopView
100
AcDbSpline
 70
8
 71
1
 72
17
 73
15
 74
0
 40
0.411517
 40
0.411517
 40
0.472559
 40
0.533601
 40
0.594643
 40
0.655685
 40
0.716726
 40
0.777768
 40
0.83881
 40
0.899852
 40
0.960894
 40
1.02194
 40
1.08298
 40
1.14402
 40
1.20506
 40
1.2661
 40
1.2661
 10
374.822
 20
276.0
 30
0.0
 10
374.822
 20
276.552
 30
0.0
 10
374.822
 20
277.086
 30
0.0
 10
374.822
 20
277.602
 30
0.0
 10
374.822
 20
278.097
 30
0.0
 10
374.822
 20
278.569
 30
0.0
 10
374.822
 20
279.017
 30
0.0
 10
374.822
 20
279.438
 30
0.0
 10
374.822
 20
279.832
 30
0.0
 10
374.822
 20
280.197
 30
0.0
 10
374.822
 20
280.531
 30
0.0
 10
374.822
 20
280.834
 30
0.0
 10
374.822
 20
281.103
 30
0.0
 10
374.822
 20
281.339
 30
0.0
 10
374.822
 20
281.539
 30
0.0
  0
LINE
  5
A65
330
A02
100
AcDbEntity
  8
TopView
100
AcDbLine
 10
146.822
 20
282.0
 30
0.0
 11
376.822
 21
282.0
 31
0.0
  0
SPLINE
  5
A66
330
A02
100
AcDbEntity
  8
TopView
100
AcDbSpline
 70
8
 71
2
 72
6
 73
3
 74
0
 40
1.2661
 40
1.2661
 40
1.2661
 40
1.5708
 40
1.5708
 40
1.5708
 10
376.822
 20
281.539
 30
0.0
 10
376.822
 20
281.998
 30
0.0
 10
376.822
 20
282.0
 30
0.0
  0
LINE
  5
A67
330
A02
100
AcDbEntity
  8
TopView
100
AcDbLine
 10
374.822
 20
281.539
 30
0.0
 11
376.822
 21
281.539
 31
0.0
  0
LINE
  5
A68
330
A02
100
AcDbEntity
  8
TopView
100
AcDbLine
 10
146.822
 20
277.0
 30
0.0
 11
376.822
 21
277.0
 31
0.0
  0
LINE
  5
A69
330
A02
100
AcDbEntity
  8
TopView
100
AcDbLine
 10
376.822
 20
218.0
 30
0.0
 11
376.822
 21
212.461
 31
0.0
  0
LINE
  5
A6A
330
A02
100
AcDbEntity
  8
TopView
100
AcDbLine
 10
374.822
 20
218.0
 30
0.0
 11
374.822
 21
212.461
 31
0.0
  0
LINE
  5
A6B
330
A02
100
AcDbEntity
  8
TopView
100
AcDbLine
 10
374.822
 20
281.539
 30
0.0
 11
374.822
 21
276.0
 31
0.0
  0
LINE
  5
A6C
330
A02
100
AcDbEntity
  8
TopView
100
AcDbLine
 10
376.822
 20
281.539
 30
0.0
 11
376.822
 21
276.0
 31
0.0
  0
LINE
  5
A6D
330
A02
100
AcDbEntity
  8
RightView
100
AcDbLine
 10
406.822
 20
312.0
 30
0.0
 11
406.822
 21
337.0
 31
0.0
  0
ARC
  5
A6E
330
A02
100
AcDbEntity
  8
RightView
100
AcDbCircle
 10
416.822
 20
337.0
 30
0.0
 40
10.0
100
AcDbArc
 50
90.0
 51
180.0
  0
LINE
  5
A6F
330
A02
100
AcDbEntity
  8
RightView
100
AcDbLine
 10
466.822
 20
347.0
 30
0.0
 11
416.822
 21
347.0
 31
0.0
  0
ARC
  5
A70
330
A02
100
AcDbEntity
  8
RightView
100
AcDbCircle
 10
466.822
 20
337.0
 30
0.0
 40
10.0
100
AcDbArc
 50
0.0
 51
90.0
  0
LINE
  5
A71
330
A02
100
AcDbEntity
  8
RightView
100
AcDbLine
 10
476.822
 20
312.0
 30
0.0
 11
476.822
 21
337.0
 31
0.0
  0
LINE
  5
A72
330
A02
100
AcDbEntity
  8
RightView
100
AcDbLine
 10
476.822
 20
312.0
 30
0.0
 11
471.822
 21
312.0
 31
0.0
  0
LINE
  5
A73
330
A02
100
AcDbEntity
  8
RightView
100
AcDbLine
 10
471.822
 20
312.0
 30
0.0
 11
471.822
 21
337.0
 31
0.0
  0
ARC
  5
A74
330
A02
100
AcDbEntity
  8
RightView
100
AcDbCircle
 10
466.822
 20
337.0
 30
0.0
 40
5.0
100
AcDbArc
 50
0.0
 51
90.0
  0
LINE
  5
A75
330
A02
100
AcDbEntity
  8
RightView
100
AcDbLine
 10
466.822
 20
342.0
 30
0.0
 11
416.822
 21
342.0
 31
0.0
  0
ARC
  5
A76
330
A02
100
AcDbEntity
  8
RightView
100
AcDbCircle
 10
416.822
 20
337.0
 30
0.0
 40
5.0
100
AcDbArc
 50
90.0
 51
180.0
  0
LINE
  5
A77
330
A02
100
AcDbEntity
  8
RightView
100
AcDbLine
 10
411.822
 20
312.0
 30
0.0
 11
411.822
 21
337.0
 31
0.0
  0
LINE
  5
A78
330
A02
100
AcDbEntity
  8
RightView
100
AcDbLine
 10
411.822
 20
312.0
 30
0.0
 11
406.822
 21
312.0
 31
0.0
  0
LINE
  5
A79
330
A02
100
AcDbEntity
  8
RightView
100
AcDbLine
 10
406.822
 20
312.0
 30
0.0
 11
406.822
 21
337.0
 31
0.0
  0
ARC
  5
A7A
330
A02
100
AcDbEntity
  8
RightView
100
AcDbCircle
 10
416.822
 20
337.0
 30
0.0
 40
10.0
100
AcDbArc
 50
162.542
 51
180.0
  0
ARC
  5
A7B
330
A02
100
AcDbEntity
  8
RightView
100
AcDbCircle
 10
416.822
 20
337.0
 30
0.0
 40
10.0
100
AcDbArc
 50
90.0
 51
162.542
  0
LINE
  5
A7C
330
A02
100
AcDbEntity
  8
RightView
100
AcDbLine
 10
411.822
 20
312.0
 30
0.0
 11
406.822
 21
312.0
 31
0.0
  0
LINE
  5
A7D
330
A02
100
AcDbEntity
  8
RightView
100
AcDbLine
 10
466.822
 20
347.0
 30
0.0
 11
416.822
 21
347.0
 31
0.0
  0
SPLINE
  5
A7E
330
A02
100
AcDbEntity
  8
RightView
100
AcDbSpline
 70
8
 71
1
 72
17
 73
15
 74
0
 40
0.0
 40
0.0
 40
0.1122
 40
0.224399
 40
0.336599
 40
0.448799
 40
0.560999
 40
0.673198
 40
0.785398
 40
0.897598
 40
1.0098
 40
1.122
 40
1.2342
 40
1.3464
 40
1.4586
 40
1.5708
 40
1.5708
 10
441.822
 20
347.0
 30
0.0
 10
440.591
 20
347.0
 30
0.0
 10
439.375
 20
347.0
 30
0.0
 10
438.189
 20
347.0
 30
0.0
 10
437.05
 20
347.0
 30
0.0
 10
435.97
 20
347.0
 30
0.0
 10
434.964
 20
347.0
 30
0.0
 10
434.044
 20
347.0
 30
0.0
 10
433.222
 20
347.0
 30
0.0
 10
432.509
 20
347.0
 30
0.0
 10
431.912
 20
347.0
 30
0.0
 10
431.44
 20
347.0
 30
0.0
 10
431.098
 20
347.0
 30
0.0
 10
430.892
 20
347.0
 30
0.0
 10
430.822
 20
347.0
 30
0.0
  0
SPLINE
  5
A7F
330
A02
100
AcDbEntity
  8
RightView
100
AcDbSpline
 70
8
 71
1
 72
17
 73
15
 74
0
 40
1.5708
 40
1.5708
 40
1.7952
 40
2.0196
 40
2.24399
 40
2.46839
 40
2.69279
 40
2.91719
 40
3.14159
 40
3.36599
 40
3.59039
 40
3.81479
 40
4.03919
 40
4.26359
 40
4.48799
 40
4.71239
 40
4.71239
 10
430.822
 20
347.0
 30
0.0
 10
431.098
 20
347.0
 30
0.0
 10
431.912
 20
347.0
 30
0.0
 10
433.222
 20
347.0
 30
0.0
 10
434.964
 20
347.0
 30
0.0
 10
437.05
 20
347.0
 30
0.0
 10
439.375
 20
347.0
 30
0.0
 10
441.822
 20
347.0
 30
0.0
 10
444.27
 20
347.0
 30
0.0
 10
446.595
 20
347.0
 30
0.0
 10
448.681
 20
347.0
 30
0.0
 10
450.423
 20
347.0
 30
0.0
 10
451.733
 20
347.0
 30
0.0
 10
452.547
 20
347.0
 30
0.0
 10
452.822
 20
347.0
 30
0.0
  0
SPLINE
  5
A80
330
A02
100
AcDbEntity
  8
RightView
100
AcDbSpline
 70
8
 71
1
 72
17
 73
15
 74
0
 40
4.71239
 40
4.71239
 40
4.82459
 40
4.93679
 40
5.04899
 40
5.16119
 40
5.27339
 40
5.38559
 40
5.49779
 40
5.60999
 40
5.72219
 40
5.83439
 40
5.94659
 40
6.05879
 40
6.17099
 40
6.28319
 40
6.28319
 10
452.822
 20
347.0
 30
0.0
 10
452.753
 20
347.0
 30
0.0
 10
452.547
 20
347.0
 30
0.0
 10
452.205
 20
347.0
 30
0.0
 10
451.733
 20
347.0
 30
0.0
 10
451.136
 20
347.0
 30
0.0
 10
450.423
 20
347.0
 30
0.0
 10
449.601
 20
347.0
 30
0.0
 10
448.681
 20
347.0
 30
0.0
 10
447.675
 20
347.0
 30
0.0
 10
446.595
 20
347.0
 30
0.0
 10
445.456
 20
347.0
 30
0.0
 10
444.27
 20
347.0
 30
0.0
 10
443.054
 20
347.0
 30
0.0
 10
441.822
 20
347.0
 30
0.0
  0
SPLINE
  5
A81
330
A02
100
AcDbEntity
  8
RightView
100
AcDbSpline
 70
8
 71
1
 72
17
 73
15
 74
0
 40
0.0
 40
0.0
 40
0.1122
 40
0.224399
 40
0.336599
 40
0.448799
 40
0.560999
 40
0.673198
 40
0.785398
 40
0.897598
 40
1.0098
 40
1.122
 40
1.2342
 40
1.3464
 40
1.4586
 40
1.5708
 40
1.5708
 10
441.822
 20
347.0
 30
0.0
 10
440.591
 20
347.0
 30
0.0
 10
439.375
 20
347.0
 30
0.0
 10
438.189
 20
347.0
 30
0.0
 10
437.05
 20
347.0
 30
0.0
 10
435.97
 20
347.0
 30
0.0
 10
434.964
 20
347.0
 30
0.0
 10
434.044
 20
347.0
 30
0.0
 10
433.222
 20
347.0
 30
0.0
 10
432.509
 20
347.0
 30
0.0
 10
431.912
 20
347.0
 30
0.0
 10
431.44
 20
347.0
 30
0.0
 10
431.098
 20
347.0
 30
0.0
 10
430.892
 20
347.0
 30
0.0
 10
430.822
 20
347.0
 30
0.0
  0
SPLINE
  5
A82
330
A02
100
AcDbEntity
  8
RightView
100
AcDbSpline
 70
8
 71
1
 72
17
 73
15
 74
0
 40
1.5708
 40
1.5708
 40
1.7952
 40
2.0196
 40
2.24399
 40
2.46839
 40
2.69279
 40
2.91719
 40
3.14159
 40
3.36599
 40
3.59039
 40
3.81479
 40
4.03919
 40
4.26359
 40
4.48799
 40
4.71239
 40
4.71239
 10
430.822
 20
347.0
 30
0.0
 10
431.098
 20
347.0
 30
0.0
 10
431.912
 20
347.0
 30
0.0
 10
433.222
 20
347.0
 30
0.0
 10
434.964
 20
347.0
 30
0.0
 10
437.05
 20
347.0
 30
0.0
 10
439.375
 20
347.0
 30
0.0
 10
441.822
 20
347.0
 30
0.0
 10
444.27
 20
347.0
 30
0.0
 10
446.595
 20
347.0
 30
0.0
 10
448.681
 20
347.0
 30
0.0
 10
450.423
 20
347.0
 30
0.0
 10
451.733
 20
347.0
 30
0.0
 10
452.547
 20
347.0
 30
0.0
 10
452.822
 20
347.0
 30
0.0
  0
SPLINE
  5
A83
330
A02
100
AcDbEntity
  8
RightView
100
AcDbSpline
 70
8
 71
1
 72
17
 73
15
 74
0
 40
4.71239
 40
4.71239
 40
4.82459
 40
4.93679
 40
5.04899
 40
5.16119
 40
5.27339
 40
5.38559
 40
5.49779
 40
5.60999
 40
5.72219
 40
5.83439
 40
5.94659
 40
6.05879
 40
6.17099
 40
6.28319
 40
6.28319
 10
452.822
 20
347.0
 30
0.0
 10
452.753
 20
347.0
 30
0.0
 10
452.547
 20
347.0
 30
0.0
 10
452.205
 20
347.0
 30
0.0
 10
451.733
 20
347.0
 30
0.0
 10
451.136
 20
347.0
 30
0.0
 10
450.423
 20
347.0
 30
0.0
 10
449.601
 20
347.0
 30
0.0
 10
448.681
 20
347.0
 30
0.0
 10
447.675
 20
347.0
 30
0.0
 10
446.595
 20
347.0
 30
0.0
 10
445.456
 20
347.0
 30
0.0
 10
444.27
 20
347.0
 30
0.0
 10
443.054
 20
347.0
 30
0.0
 10
441.822
 20
347.0
 30
0.0
  0
LINE
  5
A84
330
A02
100
AcDbEntity
  8
RightView
100
AcDbLine
 10
411.822
 20
312.0
 30
0.0
 11
411.822
 21
337.0
 31
0.0
  0
ARC
  5
A85
330
A02
100
AcDbEntity
  8
RightView
100
AcDbCircle
 10
466.822
 20
337.0
 30
0.0
 40
10.0
100
AcDbArc
 50
17.4576
 51
90.0
  0
ARC
  5
A86
330
A02
100
AcDbEntity
  8
RightView
100
AcDbCircle
 10
466.822
 20
337.0
 30
0.0
 40
10.0
100
AcDbArc
 50
0.0
 51
17.4576
  0
ARC
  5
A87
330
A02
100
AcDbEntity
  8
RightView
100
AcDbCircle
 10
416.822
 20
337.0
 30
0.0
 40
5.0
100
AcDbArc
 50
143.13
 51
180.0
  0
ARC
  5
A88
330
A02
100
AcDbEntity
  8
RightView
100
AcDbCircle
 10
416.822
 20
337.0
 30
0.0
 40
5.0
100
AcDbArc
 50
90.0
 51
143.13
  0
LINE
  5
A89
330
A02
100
AcDbEntity
  8
RightView
100
AcDbLine
 10
476.822
 20
312.0
 30
0.0
 11
476.822
 21
337.0
 31
0.0
  0
LINE
  5
A8A
330
A02
100
AcDbEntity
  8
RightView
100
AcDbLine
 10
416.822
 20
342.0
 30
0.0
 11
466.822
 21
342.0
 31
0.0
  0
SPLINE
  5
A8B
330
A02
100
AcDbEntity
  8
RightView
100
AcDbSpline
 70
8
 71
1
 72
17
 73
15
 74
0
 40
0.0
 40
0.0
 40
0.1122
 40
0.224399
 40
0.336599
 40
0.448799
 40
0.560999
 40
0.673198
 40
0.785398
 40
0.897598
 40
1.0098
 40
1.122
 40
1.2342
 40
1.3464
 40
1.4586
 40
1.5708
 40
1.5708
 10
441.822
 20
342.0
 30
0.0
 10
440.591
 20
342.0
 30
0.0
 10
439.375
 20
342.0
 30
0.0
 10
438.189
 20
342.0
 30
0.0
 10
437.05
 20
342.0
 30
0.0
 10
435.97
 20
342.0
 30
0.0
 10
434.964
 20
342.0
 30
0.0
 10
434.044
 20
342.0
 30
0.0
 10
433.222
 20
342.0
 30
0.0
 10
432.509
 20
342.0
 30
0.0
 10
431.912
 20
342.0
 30
0.0
 10
431.44
 20
342.0
 30
0.0
 10
431.098
 20
342.0
 30
0.0
 10
430.892
 20
342.0
 30
0.0
 10
430.822
 20
342.0
 30
0.0
  0
SPLINE
  5
A8C
330
A02
100
AcDbEntity
  8
RightView
100
AcDbSpline
 70
8
 71
1
 72
17
 73
15
 74
0
 40
1.5708
 40
1.5708
 40
1.7952
 40
2.0196
 40
2.24399
 40
2.46839
 40
2.69279
 40
2.91719
 40
3.14159
 40
3.36599
 40
3.59039
 40
3.81479
 40
4.03919
 40
4.26359
 40
4.48799
 40
4.71239
 40
4.71239
 10
430.822
 20
342.0
 30
0.0
 10
431.098
 20
342.0
 30
0.0
 10
431.912
 20
342.0
 30
0.0
 10
433.222
 20
342.0
 30
0.0
 10
434.964
 20
342.0
 30
0.0
 10
437.05
 20
342.0
 30
0.0
 10
439.375
 20
342.0
 30
0.0
 10
441.822
 20
342.0
 30
0.0
 10
444.27
 20
342.0
 30
0.0
 10
446.595
 20
342.0
 30
0.0
 10
448.681
 20
342.0
 30
0.0
 10
450.423
 20
342.0
 30
0.0
 10
451.733
 20
342.0
 30
0.0
 10
452.547
 20
342.0
 30
0.0
 10
452.822
 20
342.0
 30
0.0
  0
SPLINE
  5
A8D
330
A02
100
AcDbEntity
  8
RightView
100
AcDbSpline
 70
8
 71
1
 72
17
 73
15
 74
0
 40
4.71239
 40
4.71239
 40
4.82459
 40
4.93679
 40
5.04899
 40
5.16119
 40
5.27339
 40
5.38559
 40
5.49779
 40
5.60999
 40
5.72219
 40
5.83439
 40
5.94659
 40
6.05879
 40
6.17099
 40
6.28319
 40
6.28319
 10
452.822
 20
342.0
 30
0.0
 10
452.753
 20
342.0
 30
0.0
 10
452.547
 20
342.0
 30
0.0
 10
452.205
 20
342.0
 30
0.0
 10
451.733
 20
342.0
 30
0.0
 10
451.136
 20
342.0
 30
0.0
 10
450.423
 20
342.0
 30
0.0
 10
449.601
 20
342.0
 30
0.0
 10
448.681
 20
342.0
 30
0.0
 10
447.675
 20
342.0
 30
0.0
 10
446.595
 20
342.0
 30
0.0
 10
445.456
 20
342.0
 30
0.0
 10
444.27
 20
342.0
 30
0.0
 10
443.054
 20
342.0
 30
0.0
 10
441.822
 20
342.0
 30
0.0
  0
SPLINE
  5
A8E
330
A02
100
AcDbEntity
  8
RightView
100
AcDbSpline
 70
8
 71
1
 72
17
 73
15
 74
0
 40
0.0
 40
0.0
 40
0.1122
 40
0.224399
 40
0.336599
 40
0.448799
 40
0.560999
 40
0.673198
 40
0.785398
 40
0.897598
 40
1.0098
 40
1.122
 40
1.2342
 40
1.3464
 40
1.4586
 40
1.5708
 40
1.5708
 10
441.822
 20
342.0
 30
0.0
 10
440.591
 20
342.0
 30
0.0
 10
439.375
 20
342.0
 30
0.0
 10
438.189
 20
342.0
 30
0.0
 10
437.05
 20
342.0
 30
0.0
 10
435.97
 20
342.0
 30
0.0
 10
434.964
 20
342.0
 30
0.0
 10
434.044
 20
342.0
 30
0.0
 10
433.222
 20
342.0
 30
0.0
 10
432.509
 20
342.0
 30
0.0
 10
431.912
 20
342.0
 30
0.0
 10
431.44
 20
342.0
 30
0.0
 10
431.098
 20
342.0
 30
0.0
 10
430.892
 20
342.0
 30
0.0
 10
430.822
 20
342.0
 30
0.0
  0
SPLINE
  5
A8F
330
A02
100
AcDbEntity
  8
RightView
100
AcDbSpline
 70
8
 71
1
 72
17
 73
15
 74
0
 40
1.5708
 40
1.5708
 40
1.7952
 40
2.0196
 40
2.24399
 40
2.46839
 40
2.69279
 40
2.91719
 40
3.14159
 40
3.36599
 40
3.59039
 40
3.81479
 40
4.03919
 40
4.26359
 40
4.48799
 40
4.71239
 40
4.71239
 10
430.822
 20
342.0
 30
0.0
 10
431.098
 20
342.0
 30
0.0
 10
431.912
 20
342.0
 30
0.0
 10
433.222
 20
342.0
 30
0.0
 10
434.964
 20
342.0
 30
0.0
 10
437.05
 20
342.0
 30
0.0
 10
439.375
 20
342.0
 30
0.0
 10
441.822
 20
342.0
 30
0.0
 10
444.27
 20
342.0
 30
0.0
 10
446.595
 20
342.0
 30
0.0
 10
448.681
 20
342.0
 30
0.0
 10
450.423
 20
342.0
 30
0.0
 10
451.733
 20
342.0
 30
0.0
 10
452.547
 20
342.0
 30
0.0
 10
452.822
 20
342.0
 30
0.0
  0
SPLINE
  5
A90
330
A02
100
AcDbEntity
  8
RightView
100
AcDbSpline
 70
8
 71
1
 72
17
 73
15
 74
0
 40
4.71239
 40
4.71239
 40
4.82459
 40
4.93679
 40
5.04899
 40
5.16119
 40
5.27339
 40
5.38559
 40
5.49779
 40
5.60999
 40
5.72219
 40
5.83439
 40
5.94659
 40
6.05879
 40
6.17099
 40
6.28319
 40
6.28319
 10
452.822
 20
342.0
 30
0.0
 10
452.753
 20
342.0
 30
0.0
 10
452.547
 20
342.0
 30
0.0
 10
452.205
 20
342.0
 30
0.0
 10
451.733
 20
342.0
 30
0.0
 10
451.136
 20
342.0
 30
0.0
 10
450.423
 20
342.0
 30
0.0
 10
449.601
 20
342.0
 30
0.0
 10
448.681
 20
342.0
 30
0.0
 10
447.675
 20
342.0
 30
0.0
 10
446.595
 20
342.0
 30
0.0
 10
445.456
 20
342.0
 30
0.0
 10
444.27
 20
342.0
 30
0.0
 10
443.054
 20
342.0
 30
0.0
 10
441.822
 20
342.0
 30
0.0
  0
LINE
  5
A91
330
A02
100
AcDbEntity
  8
RightView
100
AcDbLine
 10
476.822
 20
312.0
 30
0.0
 11
471.822
 21
312.0
 31
0.0
  0
ARC
  5
A92
330
A02
100
AcDbEntity
  8
RightView
100
AcDbCircle
 10
466.822
 20
337.0
 30
0.0
 40
5.0
100
AcDbArc
 50
36.8699
 51
90.0
  0
ARC
  5
A93
330
A02
100
AcDbEntity
  8
RightView
100
AcDbCircle
 10
466.822
 20
337.0
 30
0.0
 40
5.0
100
AcDbArc
 50
0.0
 51
36.8699
  0
LINE
  5
A94
330
A02
100
AcDbEntity
  8
RightView
100
AcDbLine
 10
471.822
 20
312.0
 30
0.0
 11
471.822
 21
337.0
 31
0.0
  0
LINE
  5
A95
330
A02
100
AcDbEntity
  8
RightView
100
AcDbLine
 10
412.822
 20
340.0
 30
0.0
 11
407.283
 21
340.0
 31
0.0
  0
LINE
  5
A96
330
A02
100
AcDbEntity
  8
RightView
100
AcDbLine
 10
412.822
 20
340.0
 30
0.0
 11
407.283
 21
340.0
 31
0.0
  0
LINE
  5
A97
330
A02
100
AcDbEntity
  8
RightView
100
AcDbLine
 10
416.822
 20
342.0
 30
0.0
 11
416.822
 21
347.0
 31
0.0
  0
LINE
  5
A98
330
A02
100
AcDbEntity
  8
RightView
100
AcDbLine
 10
466.822
 20
342.0
 30
0.0
 11
466.822
 21
347.0
 31
0.0
  0
LINE
  5
A99
330
A02
100
AcDbEntity
  8
RightView
100
AcDbLine
 10
466.822
 20
342.0
 30
0.0
 11
466.822
 21
347.0
 31
0.0
  0
LINE
  5
A9A
330
A02
100
AcDbEntity
  8
RightView
100
AcDbLine
 10
416.822
 20
342.0
 30
0.0
 11
416.822
 21
347.0
 31
0.0
  0
LINE
  5
A9B
330
A02
100
AcDbEntity
  8
RightView
100
AcDbLine
 10
476.362
 20
340.0
 30
0.0
 11
470.822
 21
340.0
 31
0.0
  0
LINE
  5
A9C
330
A02
100
AcDbEntity
  8
RightView
100
AcDbLine
 10
476.362
 20
340.0
 30
0.0
 11
470.822
 21
340.0
 31
0.0
  0
LINE
  5
A9D
330
A02
100
AcDbEntity
  8
RightView
100
AcDbLine
 10
452.822
 20
342.0
 30
0.0
 11
452.822
 21
347.0
 31
0.0
  0
LINE
  5
A9E
330
A02
100
AcDbEntity
  8
RightView
100
AcDbLine
 10
430.822
 20
342.0
 30
0.0
 11
430.822
 21
347.0
 31
0.0
  0
LINE
  5
A9F
330
A02
100
AcDbEntity
  8
RightView
100
AcDbLine
 10
452.822
 20
342.0
 30
0.0
 11
452.822
 21
347.0
 31
0.0
  0
LINE
  5
AA0
330
A02
100
AcDbEntity
  8
RightView
100
AcDbLine
 10
430.822
 20
342.0
 30
0.0
 11
430.822
 21
347.0
 31
0.0
  0
LINE
  5
AA1
330
A02
100
AcDbEntity
  8
IsoView
100
AcDbLine
 10
1197.05
 20
825.254
 30
0.0
 11
1197.05
 21
845.667
 31
0.0
  0
ELLIPSE
  5
AA2
330
A02
100
AcDbEntity
  8
IsoView
100
AcDbEllipse
 10
1189.98
 20
849.749
 30
0.0
 11
-5.0
 21
8.66025
 31
0.0
 40
0.57735
 41
3.92699
 42
5.49779
  0
LINE
  5
AA3
330
A02
100
AcDbEntity
  8
IsoView
100
AcDbLine
 10
1154.62
 20
878.327
 30
0.0
 11
1189.98
 21
857.914
 31
0.0
  0
ELLIPSE
  5
AA4
330
A02
100
AcDbEntity
  8
IsoView
100
AcDbEllipse
 10
1154.62
 20
870.162
 30
0.0
 11
-5.0
 21
8.66025
 31
0.0
 40
0.57735
 41
5.49779
 42
0.0
  0
LINE
  5
AA5
330
A02
100
AcDbEntity
  8
IsoView
100
AcDbLine
 10
1151.09
 20
851.79
 30
0.0
 11
1151.09
 21
852.573
 31
0.0
  0
LINE
  5
AA6
330
A02
100
AcDbEntity
  8
IsoView
100
AcDbLine
 10
1034.42
 20
731.357
 30
0.0
 11
1034.42
 21
751.77
 31
0.0
  0
LINE
  5
AA7
330
A02
100
AcDbEntity
  8
IsoView
100
AcDbLine
 10
1197.05
 20
825.254
 30
0.0
 11
1034.42
 21
731.357
 31
0.0
  0
ELLIPSE
  5
AA8
330
A02
100
AcDbEntity
  8
IsoView
100
AcDbEllipse
 10
1027.34
 20
755.852
 30
0.0
 11
-5.0
 21
8.66025
 31
0.0
 40
0.57735
 41
3.92699
 42
4.23168
  0
ELLIPSE
  5
AA9
330
A02
100
AcDbEntity
  8
IsoView
100
AcDbEllipse
 10
1028.76
 20
756.669
 30
0.0
 11
-5.0
 21
8.66025
 31
0.0
 40
0.57735
 41
4.23168
 42
5.49779
  0
LINE
  5
AAA
330
A02
100
AcDbEntity
  8
IsoView
100
AcDbLine
 10
1034.09
 20
754.407
 30
0.0
 11
1035.5
 21
755.224
 31
0.0
  0
LINE
  5
AAB
330
A02
100
AcDbEntity
  8
IsoView
100
AcDbLine
 10
1030.88
 20
733.398
 30
0.0
 11
1034.42
 21
731.357
 31
0.0
  0
LINE
  5
AAC
330
A02
100
AcDbEntity
  8
IsoView
100
AcDbLine
 10
993.403
 20
785.246
 30
0.0
 11
991.989
 21
784.429
 31
0.0
  0
LINE
  5
AAD
330
A02
100
AcDbEntity
  8
IsoView
100
AcDbLine
 10
991.989
 20
784.429
 30
0.0
 11
1027.34
 21
764.017
 31
0.0
  0
LINE
  5
AAE
330
A02
100
AcDbEntity
  8
IsoView
100
AcDbLine
 10
1028.76
 20
764.834
 30
0.0
 11
1027.34
 21
764.017
 31
0.0
  0
ELLIPSE
  5
AAF
330
A02
100
AcDbEntity
  8
IsoView
100
AcDbEllipse
 10
1144.02
 20
851.79
 30
0.0
 11
11.0
 21
6.73556e-16
 31
0.0
 40
0.57735
 41
3.92699
 42
0.0
  0
ELLIPSE
  5
AB0
330
A02
100
AcDbEntity
  8
IsoView
100
AcDbEllipse
 10
1144.02
 20
851.79
 30
0.0
 11
11.0
 21
6.73556e-16
 31
0.0
 40
0.57735
 41
0.0
 42
3.14159
  0
ELLIPSE
  5
AB1
330
A02
100
AcDbEntity
  8
IsoView
100
AcDbEllipse
 10
1144.02
 20
851.79
 30
0.0
 11
11.0
 21
6.73556e-16
 31
0.0
 40
0.57735
 41
3.14159
 42
3.92699
  0
ELLIPSE
  5
AB2
330
A02
100
AcDbEntity
  8
IsoView
100
AcDbEllipse
 10
1066.24
 20
806.883
 30
0.0
 11
11.0
 21
6.73556e-16
 31
0.0
 40
0.57735
 41
3.92699
 42
0.0
  0
ELLIPSE
  5
AB3
330
A02
100
AcDbEntity
  8
IsoView
100
AcDbEllipse
 10
1066.24
 20
806.883
 30
0.0
 11
11.0
 21
6.73556e-16
 31
0.0
 40
0.57735
 41
0.0
 42
3.14159
  0
ELLIPSE
  5
AB4
330
A02
100
AcDbEntity
  8
IsoView
100
AcDbEllipse
 10
1066.24
 20
806.883
 30
0.0
 11
11.0
 21
6.73556e-16
 31
0.0
 40
0.57735
 41
3.14159
 42
3.92699
  0
LINE
  5
AB5
330
A02
100
AcDbEntity
  8
IsoView
100
AcDbLine
 10
1030.88
 20
733.398
 30
0.0
 11
1030.88
 21
753.811
 31
0.0
  0
ELLIPSE
  5
AB6
330
A02
100
AcDbEntity
  8
IsoView
100
AcDbEllipse
 10
993.403
 20
777.081
 30
0.0
 11
-5.0
 21
8.66025
 31
0.0
 40
0.57735
 41
5.49779
 42
0.0
  0
ELLIPSE
  5
AB7
330
A02
100
AcDbEntity
  8
IsoView
100
AcDbEllipse
 10
993.403
 20
777.081
 30
0.0
 11
-5.0
 21
8.66025
 31
0.0
 40
0.57735
 41
0.0
 42
0.480706
  0
ELLIPSE
  5
AB8
330
A02
100
AcDbEntity
  8
IsoView
100
AcDbEllipse
 10
991.989
 20
776.264
 30
0.0
 11
-5.0
 21
8.66025
 31
0.0
 40
0.57735
 41
0.480706
 42
0.785398
  0
LINE
  5
AB9
330
A02
100
AcDbEntity
  8
IsoView
100
AcDbLine
 10
986.658
 20
783.425
 30
0.0
 11
985.243
 21
782.608
 31
0.0
  0
ELLIPSE
  5
ABA
330
A02
100
AcDbEntity
  8
IsoView
100
AcDbEllipse
 10
1027.34
 20
755.852
 30
0.0
 11
-2.5
 21
4.33013
 31
0.0
 40
0.57735
 41
3.92699
 42
4.57049
  0
ELLIPSE
  5
ABB
330
A02
100
AcDbEntity
  8
IsoView
100
AcDbEllipse
 10
1028.76
 20
756.669
 30
0.0
 11
-2.5
 21
4.33013
 31
0.0
 40
0.57735
 41
4.57049
 42
5.49779
  0
LINE
  5
ABC
330
A02
100
AcDbEntity
  8
IsoView
100
AcDbLine
 10
1030.17
 20
756.669
 30
0.0
 11
1031.59
 21
757.485
 31
0.0
  0
LINE
  5
ABD
330
A02
100
AcDbEntity
  8
IsoView
100
AcDbLine
 10
984.918
 20
759.935
 30
0.0
 11
984.918
 21
780.347
 31
0.0
  0
LINE
  5
ABE
330
A02
100
AcDbEntity
  8
IsoView
100
AcDbLine
 10
1027.34
 20
759.935
 30
0.0
 11
991.989
 21
780.347
 31
0.0
  0
LINE
  5
ABF
330
A02
100
AcDbEntity
  8
IsoView
100
AcDbLine
 10
1027.34
 20
759.935
 30
0.0
 11
1028.76
 21
760.751
 31
0.0
  0
ELLIPSE
  5
AC0
330
A02
100
AcDbEntity
  8
IsoView
100
AcDbEllipse
 10
1144.02
 20
847.708
 30
0.0
 11
11.0
 21
6.73556e-16
 31
0.0
 40
0.57735
 41
0.32722
 42
2.81437
  0
ELLIPSE
  5
AC1
330
A02
100
AcDbEntity
  8
IsoView
100
AcDbEllipse
 10
1066.24
 20
802.801
 30
0.0
 11
11.0
 21
6.73556e-16
 31
0.0
 40
0.57735
 41
0.32722
 42
2.81437
  0
LINE
  5
AC2
330
A02
100
AcDbEntity
  8
IsoView
100
AcDbLine
 10
984.918
 20
759.935
 30
0.0
 11
988.453
 21
757.893
 31
0.0
  0
LINE
  5
AC3
330
A02
100
AcDbEntity
  8
IsoView
100
AcDbLine
 10
1151.09
 20
851.79
 30
0.0
 11
1140.62
 21
845.749
 31
0.0
  0
LINE
  5
AC4
330
A02
100
AcDbEntity
  8
IsoView
100
AcDbLine
 10
1074.01
 20
807.291
 30
0.0
 11
1062.84
 21
800.842
 31
0.0
  0
LINE
  5
AC5
330
A02
100
AcDbEntity
  8
IsoView
100
AcDbLine
 10
1009.67
 20
770.141
 30
0.0
 11
988.453
 21
757.893
 31
0.0
  0
ELLIPSE
  5
AC6
330
A02
100
AcDbEntity
  8
IsoView
100
AcDbEllipse
 10
993.403
 20
777.081
 30
0.0
 11
-2.5
 21
4.33013
 31
0.0
 40
0.57735
 41
5.9093
 42
0.0
  0
ELLIPSE
  5
AC7
330
A02
100
AcDbEntity
  8
IsoView
100
AcDbEllipse
 10
993.403
 20
777.081
 30
0.0
 11
-2.5
 21
4.33013
 31
0.0
 40
0.57735
 41
0.0
 42
0.141897
  0
ELLIPSE
  5
AC8
330
A02
100
AcDbEntity
  8
IsoView
100
AcDbEllipse
 10
991.989
 20
776.264
 30
0.0
 11
-2.5
 21
4.33013
 31
0.0
 40
0.57735
 41
0.141897
 42
0.785398
  0
LINE
  5
AC9
330
A02
100
AcDbEntity
  8
IsoView
100
AcDbLine
 10
990.575
 20
781.163
 30
0.0
 11
989.16
 21
780.347
 31
0.0
  0
LINE
  5
ACA
330
A02
100
AcDbEntity
  8
IsoView
100
AcDbLine
 10
988.453
 20
757.893
 30
0.0
 11
988.453
 21
778.306
 31
0.0
  0
LINE
  5
ACB
330
A02
100
AcDbEntity
  8
IsoView
100
AcDbLine
 10
1030.17
 20
756.669
 30
0.0
 11
1034.09
 21
754.407
 31
0.0
  0
LINE
  5
ACC
330
A02
100
AcDbEntity
  8
IsoView
100
AcDbLine
 10
1031.59
 20
757.485
 30
0.0
 11
1035.5
 21
755.224
 31
0.0
  0
LINE
  5
ACD
330
A02
100
AcDbEntity
  8
IsoView
100
AcDbLine
 10
1028.76
 20
760.751
 30
0.0
 11
1028.76
 21
764.834
 31
0.0
  0
LINE
  5
ACE
330
A02
100
AcDbEntity
  8
IsoView
100
AcDbLine
 10
991.989
 20
780.347
 30
0.0
 11
991.989
 21
784.429
 31
0.0
  0
LINE
  5
ACF
330
A02
100
AcDbEntity
  8
IsoView
100
AcDbLine
 10
1027.34
 20
759.935
 30
0.0
 11
1027.34
 21
764.017
 31
0.0
  0
LINE
  5
AD0
330
A02
100
AcDbEntity
  8
IsoView
100
AcDbLine
 10
986.658
 20
783.425
 30
0.0
 11
990.575
 21
781.163
 31
0.0
  0
LINE
  5
AD1
330
A02
100
AcDbEntity
  8
IsoView
100
AcDbLine
 10
985.243
 20
782.608
 30
0.0
 11
989.16
 21
780.347
 31
0.0
  0
LINE
  5
AD2
330
A02
100
AcDbEntity
  8
IsoView
100
AcDbLine
 10
1149.62
 20
878.822
 30
0.0
 11
988.403
 21
785.741
 31
0.0
  0
LINE
  5
AD3
330
A02
100
AcDbEntity
  8
IsoView
100
AcDbLine
 10
1197.05
 20
845.667
 30
0.0
 11
1034.42
 21
751.77
 31
0.0
  0
LINE
  5
AD4
330
A02
100
AcDbEntity
  8
IsoView
100
AcDbLine
 10
1189.98
 20
857.914
 30
0.0
 11
1028.76
 21
764.834
 31
0.0
  0
LINE
  5
AD5
330
A02
100
AcDbEntity
  8
IsoView
100
AcDbLine
 10
1154.62
 20
878.327
 30
0.0
 11
993.403
 21
785.246
 31
0.0
  0
LINE
  5
AD6
330
A02
100
AcDbEntity
  8
IsoView
100
AcDbLine
 10
991.989
 20
780.347
 30
0.0
 11
988.453
 21
778.306
 31
0.0
  0
ELLIPSE
  5
AD7
330
A02
100
AcDbEntity
  8
IsoView
100
AcDbEllipse
 10
1154.62
 20
870.162
 30
0.0
 11
-5.0
 21
8.66025
 31
0.0
 40
0.57735
 41
1.11022e-16
 42
0.785398
  0
LINE
  5
AD8
330
A02
100
AcDbEntity
  8
IsoView
100
AcDbLine
 10
1147.55
 20
853.832
 30
0.0
 11
1147.55
 21
874.244
 31
0.0
  0
LINE
  5
AD9
330
A02
100
AcDbEntity
  8
IsoView
100
AcDbLine
 10
1147.55
 20
853.832
 30
0.0
 11
1151.09
 21
851.79
 31
0.0
  0
LINE
  5
ADA
330
A02
100
AcDbEntity
  8
IsoView
100
AcDbLine
 10
1151.09
 20
852.573
 30
0.0
 11
1151.09
 21
872.203
 31
0.0
  0
ELLIPSE
  5
ADB
330
A02
100
AcDbEntity
  8
IsoView
100
AcDbEllipse
 10
1154.62
 20
870.162
 30
0.0
 11
-2.5
 21
4.33013
 31
0.0
 40
0.57735
 41
5.49779
 42
0.0
  0
ELLIPSE
  5
ADC
330
A02
100
AcDbEntity
  8
IsoView
100
AcDbEllipse
 10
1154.62
 20
870.162
 30
0.0
 11
-2.5
 21
4.33013
 31
0.0
 40
0.57735
 41
1.11022e-16
 42
0.785398
  0
LINE
  5
ADD
330
A02
100
AcDbEntity
  8
IsoView
100
AcDbLine
 10
1154.62
 20
874.244
 30
0.0
 11
1189.98
 21
853.832
 31
0.0
  0
ELLIPSE
  5
ADE
330
A02
100
AcDbEntity
  8
IsoView
100
AcDbEllipse
 10
1189.98
 20
849.749
 30
0.0
 11
-2.5
 21
4.33013
 31
0.0
 40
0.57735
 41
3.92699
 42
5.49779
  0
LINE
  5
ADF
330
A02
100
AcDbEntity
  8
IsoView
100
AcDbLine
 10
1193.51
 20
827.296
 30
0.0
 11
1193.51
 21
847.708
 31
0.0
  0
LINE
  5
AE0
330
A02
100
AcDbEntity
  8
IsoView
100
AcDbLine
 10
1193.51
 20
827.296
 30
0.0
 11
1197.05
 21
825.254
 31
0.0
  0
LINE
  5
AE1
330
A02
100
AcDbEntity
  8
IsoView
100
AcDbLine
 10
1193.51
 20
827.296
 30
0.0
 11
1030.88
 21
733.398
 31
0.0
  0
LINE
  5
AE2
330
A02
100
AcDbEntity
  8
IsoView
100
AcDbLine
 10
1147.55
 20
853.832
 30
0.0
 11
984.918
 21
759.935
 31
0.0
  0
LINE
  5
AE3
330
A02
100
AcDbEntity
  8
IsoView
100
AcDbLine
 10
991.989
 20
780.347
 30
0.0
 11
993.403
 21
781.163
 31
0.0
  0
ELLIPSE
  5
AE4
330
A02
100
AcDbEntity
  8
IsoView
100
AcDbEllipse
 10
1144.02
 20
847.708
 30
0.0
 11
11.0
 21
6.73556e-16
 31
0.0
 40
0.57735
 41
3.92699
 42
0.0
  0
ELLIPSE
  5
AE5
330
A02
100
AcDbEntity
  8
IsoView
100
AcDbEllipse
 10
1144.02
 20
847.708
 30
0.0
 11
11.0
 21
6.73556e-16
 31
0.0
 40
0.57735
 41
0.0
 42
0.32722
  0
ELLIPSE
  5
AE6
330
A02
100
AcDbEntity
  8
IsoView
100
AcDbEllipse
 10
1144.02
 20
847.708
 30
0.0
 11
11.0
 21
6.73556e-16
 31
0.0
 40
0.57735
 41
2.81437
 42
3.14159
  0
ELLIPSE
  5
AE7
330
A02
100
AcDbEntity
  8
IsoView
100
AcDbEllipse
 10
1144.02
 20
847.708
 30
0.0
 11
11.0
 21
6.73556e-16
 31
0.0
 40
0.57735
 41
3.14159
 42
3.92699
  0
ELLIPSE
  5
AE8
330
A02
100
AcDbEntity
  8
IsoView
100
AcDbEllipse
 10
1066.24
 20
802.801
 30
0.0
 11
11.0
 21
6.73556e-16
 31
0.0
 40
0.57735
 41
3.92699
 42
0.0
  0
ELLIPSE
  5
AE9
330
A02
100
AcDbEntity
  8
IsoView
100
AcDbEllipse
 10
1066.24
 20
802.801
 30
0.0
 11
11.0
 21
6.73556e-16
 31
0.0
 40
0.57735
 41
0.0
 42
0.32722
  0
ELLIPSE
  5
AEA
330
A02
100
AcDbEntity
  8
IsoView
100
AcDbEllipse
 10
1066.24
 20
802.801
 30
0.0
 11
11.0
 21
6.73556e-16
 31
0.0
 40
0.57735
 41
2.81437
 42
3.14159
  0
ELLIPSE
  5
AEB
330
A02
100
AcDbEntity
  8
IsoView
100
AcDbEllipse
 10
1066.24
 20
802.801
 30
0.0
 11
11.0
 21
6.73556e-16
 31
0.0
 40
0.57735
 41
3.14159
 42
3.92699
  0
LINE
  5
AEC
330
A02
100
AcDbEntity
  8
IsoView
100
AcDbLine
 10
1140.62
 20
845.749
 30
0.0
 11
1074.01
 21
807.291
 31
0.0
  0
LINE
  5
AED
330
A02
100
AcDbEntity
  8
IsoView
100
AcDbLine
 10
1062.84
 20
800.842
 30
0.0
 11
1009.67
 21
770.141
 31
0.0
  0
ELLIPSE
  5
AEE
330
A02
100
AcDbEntity
  8
IsoView
100
AcDbEllipse
 10
993.403
 20
777.081
 30
0.0
 11
-2.5
 21
4.33013
 31
0.0
 40
0.57735
 41
5.49779
 42
5.9093
  0
LINE
  5
AEF
330
A02
100
AcDbEntity
  8
IsoView
100
AcDbLine
 10
993.403
 20
781.163
 30
0.0
 11
993.403
 21
785.246
 31
0.0
  0
LINE
  5
AF0
330
A02
100
AcDbEntity
  8
IsoView
100
AcDbLine
 10
1152.12
 20
874.492
 30
0.0
 11
990.903
 21
781.411
 31
0.0
  0
LINE
  5
AF1
330
A02
100
AcDbEntity
  8
IsoView
100
AcDbLine
 10
1155.02
 20
847.708
 30
0.0
 11
1155.02
 21
851.79
 31
0.0
  0
LINE
  5
AF2
330
A02
100
AcDbEntity
  8
IsoView
100
AcDbLine
 10
1133.02
 20
847.708
 30
0.0
 11
1133.02
 21
851.79
 31
0.0
  0
LINE
  5
AF3
330
A02
100
AcDbEntity
  8
IsoView
100
AcDbLine
 10
1077.24
 20
802.801
 30
0.0
 11
1077.24
 21
806.883
 31
0.0
  0
LINE
  5
AF4
330
A02
100
AcDbEntity
  8
IsoView
100
AcDbLine
 10
1055.24
 20
802.801
 30
0.0
 11
1055.24
 21
806.883
 31
0.0
  0
DIMENSION
  5
1006E
330
A02
100
AcDbEntity
  8
0
100
AcDbDimension
  2
*D1
  3
FUSION_STYLE
 10
146.822
 20
332.0
 30
0.0
 11
260.822
 21
333.875
 31
0.0
 70
32
 71
5
  1
<>
100
AcDbAlignedDimension
 13
146.822
 23
347.0
 33
0.0
 14
374.822
 24
347.0
 34
0.0
 50
0.0
100
AcDbRotatedDimension
  0
DIMENSION
  5
1007D
330
A02
100
AcDbEntity
  8
0
100
AcDbDimension
  2
*D2
  3
FUSION_STYLE
 10
146.822
 20
197.0
 30
0.0
 11
261.822
 21
198.875
 31
0.0
 70
32
 71
5
  1
<>
100
AcDbAlignedDimension
 13
146.822
 23
212.0
 33
0.0
 14
376.822
 24
212.0
 34
0.0
 50
0.0
100
AcDbRotatedDimension
  0
DIMENSION
  5
1008C
330
A02
100
AcDbEntity
  8
0
100
AcDbDimension
  2
*D3
  3
FUSION_STYLE
 10
466.822
 20
332.0
 30
0.0
 11
441.822
 21
330.125
 31
0.0
 70
32
 71
5
  1
<>
100
AcDbAlignedDimension
 13
466.822
 23
347.0
 33
0.0
 14
416.822
 24
347.0
 34
0.0
 50
0.0
100
AcDbRotatedDimension
  0
DIMENSION
  5
1009B
330
A02
100
AcDbEntity
  8
0
100
AcDbDimension
  2
*D4
  3
FUSION_STYLE
 10
476.822
 20
297.0
 30
0.0
 11
474.322
 21
295.125
 31
0.0
 70
32
 71
5
  1
<>
100
AcDbAlignedDimension
 13
476.822
 23
312.0
 33
0.0
 14
471.822
 24
312.0
 34
0.0
 50
0.0
100
AcDbRotatedDimension
  0
DIMENSION
  5
100AA
330
A02
100
AcDbEntity
  8
0
100
AcDbDimension
  2
*D5
  3
FUSION_STYLE
 10
412.822
 20
325.0
 30
0.0
 11
410.0525
 21
321.875
 31
0.0
 70
32
 71
5
  1
<>
100
AcDbAlignedDimension
 13
412.822
 23
340.0
 33
0.0
 14
407.283
 24
340.0
 34
0.0
 50
0.0
100
AcDbRotatedDimension
  0
DIMENSION
  5
100B9
330
A02
100
AcDbEntity
  8
0
100
AcDbDimension
  2
*D6
  3
FUSION_STYLE
 10
131.822
 20
312.0
 30
0.0
 11
129.947
 21
324.5
 31
0.0
 70
32
 71
5
  1
<>
100
AcDbAlignedDimension
 13
146.822
 23
312.0
 33
0.0
 14
146.822
 24
337.0
 34
0.0
 50
90.0
100
AcDbRotatedDimension
  0
DIMENSION
  5
100C8
330
A02
100
AcDbEntity
  8
0
100
AcDbDimension
  2
*D7
  3
FUSION_STYLE
 10
131.822
 20
282.0
 30
0.0
 11
133.697
 21
279.5
 31
0.0
 70
32
 71
5
  1
<>
100
AcDbAlignedDimension
 13
146.822
 23
282.0
 33
0.0
 14
146.822
 24
277.0
 34
0.0
 50
90.0
100
AcDbRotatedDimension
  0
DIMENSION
  5
100D7
330
A02
100
AcDbEntity
  8
0
100
AcDbDimension
  2
*D8
  3
FUSION_STYLE
 10
131.822
 20
272.0
 30
0.0
 11
133.697
 21
247.0
 31
0.0
 70
32
 71
5
  1
<>
100
AcDbAlignedDimension
 13
146.822
 23
272.0
 33
0.0
 14
146.822
 24
222.0
 34
0.0
 50
90.0
100
AcDbRotatedDimension
  0
DIMENSION
  5
100E6
330
A02
100
AcDbEntity
  8
0
100
AcDbDimension
  2
*D9
  3
FUSION_STYLE
 10
361.822
 20
218.0
 30
0.0
 11
364.947
 21
215.2305
 31
0.0
 70
32
 71
5
  1
<>
100
AcDbAlignedDimension
 13
376.822
 23
218.0
 33
0.0
 14
376.822
 24
212.461
 34
0.0
 50
90.0
100
AcDbRotatedDimension
  0
DIMENSION
  5
100F5
330
A02
100
AcDbEntity
  8
0
100
AcDbDimension
  2
*D10
  3
FUSION_STYLE
 10
194.60017459305203
 20
254.77817459305203
 30
0.0
 11
172.8566410715657
 21
235.68629150101523
 31
0.0
 70
35
 71
5
  1
<>
100
AcDbDiametricDimension
 15
179.04382540694797
 25
239.22182540694797
 35
0.0
  0
DIMENSION
  5
10102
330
A02
100
AcDbEntity
  8
0
100
AcDbDimension
  2
*D11
  3
FUSION_STYLE
 10
169.322
 20
282.0
 30
0.0
 11
171.197
 21
279.5
 31
0.0
 70
32
 71
5
  1
<>
100
AcDbAlignedDimension
 13
146.822
 23
282.0
 33
0.0
 14
146.822
 24
277.0
 34
0.0
 50
90.0
100
AcDbRotatedDimension
  0
DIMENSION
  5
10111
330
A02
100
AcDbEntity
  8
0
100
AcDbDimension
  2
*D12
  3
FUSION_STYLE
 10
131.822
 20
217.0
 30
0.0
 11
133.697
 21
214.5
 31
0.0
 70
32
 71
5
  1
<>
100
AcDbAlignedDimension
 13
146.822
 23
217.0
 33
0.0
 14
146.822
 24
212.0
 34
0.0
 50
90.0
100
AcDbRotatedDimension
  0
DIMENSION
  5
10120
330
A02
100
AcDbEntity
  8
0
100
AcDbDimension
  2
*D13
  3
FUSION_STYLE
 10
399.322
 20
217.0
 30
0.0
 11
401.197
 21
214.5
 31
0.0
 70
32
 71
5
  1
<>
100
AcDbAlignedDimension
 13
376.822
 23
217.0
 33
0.0
 14
376.822
 24
212.0
 34
0.0
 50
90.0
100
AcDbRotatedDimension
  0
DIMENSION
  5
1012F
330
A02
100
AcDbEntity
  8
0
100
AcDbDimension
  2
*D14
  3
FUSION_STYLE
 10
361.822
 20
282.0
 30
0.0
 11
363.697
 21
279.5
 31
0.0
 70
32
 71
5
  1
<>
100
AcDbAlignedDimension
 13
376.822
 23
282.0
 33
0.0
 14
376.822
 24
277.0
 34
0.0
 50
90.0
100
AcDbRotatedDimension
  0
DIMENSION
  5
1013E
330
A02
100
AcDbEntity
  8
0
100
AcDbDimension
  2
*D15
  3
FUSION_STYLE
 10
361.822
 20
218.0
 30
0.0
 11
364.947
 21
215.2305
 31
0.0
 70
32
 71
5
  1
<>
100
AcDbAlignedDimension
 13
376.822
 23
218.0
 33
0.0
 14
376.822
 24
212.461
 34
0.0
 50
90.0
100
AcDbRotatedDimension
  0
DIMENSION
  5
1014D
330
A02
100
AcDbEntity
  8
0
100
AcDbDimension
  2
*D16
  3
FUSION_STYLE
 10
359.822
 20
218.0
 30
0.0
 11
362.947
 21
215.2305
 31
0.0
 70
32
 71
5
  1
<>
100
AcDbAlignedDimension
 13
374.822
 23
218.0
 33
0.0
 14
374.822
 24
212.461
 34
0.0
 50
90.0
100
AcDbRotatedDimension
  0
DIMENSION
  5
1015C
330
A02
100
AcDbEntity
  8
0
100
AcDbDimension
  2
*D17
  3
FUSION_STYLE
 10
397.322
 20
281.539
 30
0.0
 11
400.447
 21
278.7695
 31
0.0
 70
32
 71
5
  1
<>
100
AcDbAlignedDimension
 13
374.822
 23
281.539
 33
0.0
 14
374.822
 24
276.0
 34
0.0
 50
90.0
100
AcDbRotatedDimension
  0
DIMENSION
  5
1016B
330
A02
100
AcDbEntity
  8
0
100
AcDbDimension
  2
*D18
  3
FUSION_STYLE
 10
361.822
 20
281.539
 30
0.0
 11
364.947
 21
278.7695
 31
0.0
 70
32
 71
5
  1
<>
100
AcDbAlignedDimension
 13
376.822
 23
281.539
 33
0.0
 14
376.822
 24
276.0
 34
0.0
 50
90.0
100
AcDbRotatedDimension
  0
DIMENSION
  5
1017A
330
A02
100
AcDbEntity
  8
0
100
AcDbDimension
  2
*D19
  3
FUSION_STYLE
 10
466.822
 20
337.0
 30
0.0
 11
477.42860171779824
 21
350.2582521472478
 31
0.0
 70
36
 71
5
  1
<>
100
AcDbRadialDimension
 15
473.8930678118655
 25
344.0710678118655
 35
0.0
  0
DIMENSION
  5
10185
330
A02
100
AcDbEntity
  8
0
100
AcDbDimension
  2
*D20
  3
FUSION_STYLE
 10
281.822
 20
247.0
 30
0.0
 11
279.947
 21
259.5
 31
0.0
 70
32
 71
5
  1
<>
100
AcDbAlignedDimension
 13
296.822
 23
247.0
 33
0.0
 14
296.822
 24
272.0
 34
0.0
 50
90.0
100
AcDbRotatedDimension
  0
DIMENSION
  5
10194
330
A02
100
AcDbEntity
  8
0
100
AcDbDimension
  2
*D21
  3
FUSION_STYLE
 10
296.822
 20
232.0
 30
0.0
 11
302.322
 21
233.875
 31
0.0
 70
32
 71
5
  1
<>
100
AcDbAlignedDimension
 13
296.822
 23
247.0
 33
0.0
 14
307.822
 24
247.0
 34
0.0
 50
0.0
100
AcDbRotatedDimension
  0
ENDSEC
  0
SECTION
  2
OBJECTS
  0
DICTIONARY
  5
F000
330
0
100
AcDbDictionary
281
1
  3
ACAD_GROUP
350
F001
  3
ACAD_COLOR
350
1005A
  3
ACAD_LAYOUT
350
1005B
  3
ACAD_MATERIAL
350
1005C
  3
ACAD_MLEADERSTYLE
350
1005D
  3
ACAD_MLINESTYLE
350
1005E
  3
ACAD_PLOTSETTINGS
350
1005F
  3
ACAD_PLOTSTYLENAME
350
10060
  3
ACAD_SCALELIST
350
10062
  3
ACAD_TABLESTYLE
350
10063
  3
ACAD_VISUALSTYLE
350
10064
  3
EZDXF_META
350
101A5
  0
DICTIONARY
  5
F001
330
F000
100
AcDbDictionary
281
1
  0
DICTIONARY
  5
1005A
330
F000
100
AcDbDictionary
281
1
  0
DICTIONARY
  5
1005B
330
F000
100
AcDbDictionary
281
1
  3
Model
350
10065
  3
Layout1
350
10066
  0
DICTIONARY
  5
1005C
330
F000
100
AcDbDictionary
281
1
  3
ByBlock
350
10067
  3
ByLayer
350
10068
  3
Global
350
10069
  0
DICTIONARY
  5
1005D
330
F000
100
AcDbDictionary
281
1
  3
Standard
350
1006C
  0
DICTIONARY
  5
1005E
330
F000
100
AcDbDictionary
281
1
  3
Standard
350
1006A
  0
DICTIONARY
  5
1005F
330
F000
100
AcDbDictionary
281
1
  0
ACDBDICTIONARYWDFLT
  5
10060
330
F000
100
AcDbDictionary
281
1
  3
Normal
350
10061
100
AcDbDictionaryWithDefault
340
10061
  0
ACDBPLACEHOLDER
  5
10061
330
10060
  0
DICTIONARY
  5
10062
330
F000
100
AcDbDictionary
281
1
  0
DICTIONARY
  5
10063
330
F000
100
AcDbDictionary
281
1
  0
DICTIONARY
  5
10064
330
F000
100
AcDbDictionary
281
1
  0
LAYOUT
  5
10065
330
1005B
100
AcDbPlotSettings
  1

  4
A3
  6

 40
7.5
 41
20.0
 42
7.5
 43
20.0
 44
420.0
 45
297.0
 46
0.0
 47
0.0
 48
0.0
 49
0.0
140
0.0
141
0.0
142
1.0
143
1.0
 70
1024
 72
1
 73
0
 74
5
  7

 75
16
 76
0
 77
2
 78
300
147
1.0
148
0.0
149
0.0
100
AcDbLayout
  1
Model
 70
1
 71
0
 10
0.0
 20
0.0
 11
420.0
 21
297.0
 12
0.0
 22
0.0
 32
0.0
 14
1e+20
 24
1e+20
 34
1e+20
 15
-1e+20
 25
-1e+20
 35
-1e+20
146
0.0
 13
0.0
 23
0.0
 33
0.0
 16
1.0
 26
0.0
 36
0.0
 17
0.0
 27
1.0
 37
0.0
 76
1
330
A02
  0
LAYOUT
  5
10066
330
1005B
100
AcDbPlotSettings
  1

  4
A3
  6

 40
7.5
 41
20.0
 42
7.5
 43
20.0
 44
420.0
 45
297.0
 46
0.0
 47
0.0
 48
0.0
 49
0.0
140
0.0
141
0.0
142
1.0
143
1.0
 70
0
 72
1
 73
0
 74
5
  7

 75
16
 76
0
 77
2
 78
300
147
1.0
148
0.0
149
0.0
100
AcDbLayout
  1
Layout1
 70
1
 71
1
 10
0.0
 20
0.0
 11
420.0
 21
297.0
 12
0.0
 22
0.0
 32
0.0
 14
1e+20
 24
1e+20
 34
1e+20
 15
-1e+20
 25
-1e+20
 35
-1e+20
146
0.0
 13
0.0
 23
0.0
 33
0.0
 16
1.0
 26
0.0
 36
0.0
 17
0.0
 27
1.0
 37
0.0
 76
1
330
A03
  0
MATERIAL
  5
10067
102
{ACAD_REACTORS
330
1005C
102
}
330
1005C
100
AcDbMaterial
  1
ByBlock
  2

 70
0
 40
1.0
 71
1
 41
1.0
 91
-1023410177
 42
1.0
 72
1
  3

 73
1
 74
1
 75
1
 44
0.5
 73
0
 45
1.0
 46
1.0
 77
1
  4

 78
1
 79
1
170
1
 48
1.0
171
1
  6

172
1
173
1
174
1
140
1.0
141
1.0
175
1
  7

176
1
177
1
178
1
143
1.0
179
1
  8

270
1
271
1
272
1
145
1.0
146
1.0
273
1
  9

274
1
275
1
276
1
 42
1.0
 72
1
  3

 73
1
 74
1
 75
1
 94
63
  0
MATERIAL
  5
10068
102
{ACAD_REACTORS
330
1005C
102
}
330
1005C
100
AcDbMaterial
  1
ByLayer
  2

 70
0
 40
1.0
 71
1
 41
1.0
 91
-1023410177
 42
1.0
 72
1
  3

 73
1
 74
1
 75
1
 44
0.5
 73
0
 45
1.0
 46
1.0
 77
1
  4

 78
1
 79
1
170
1
 48
1.0
171
1
  6

172
1
173
1
174
1
140
1.0
141
1.0
175
1
  7

176
1
177
1
178
1
143
1.0
179
1
  8

270
1
271
1
272
1
145
1.0
146
1.0
273
1
  9

274
1
275
1
276
1
 42
1.0
 72
1
  3

 73
1
 74
1
 75
1
 94
63
  0
MATERIAL
  5
10069
102
{ACAD_REACTORS
330
1005C
102
}
330
1005C
100
AcDbMaterial
  1
Global
  2

 70
0
 40
1.0
 71
1
 41
1.0
 91
-1023410177
 42
1.0
 72
1
  3

 73
1
 74
1
 75
1
 44
0.5
 73
0
 45
1.0
 46
1.0
 77
1
  4

 78
1
 79
1
170
1
 48
1.0
171
1
  6

172
1
173
1
174
1
140
1.0
141
1.0
175
1
  7

176
1
177
1
178
1
143
1.0
179
1
  8

270
1
271
1
272
1
145
1.0
146
1.0
273
1
  9

274
1
275
1
276
1
 42
1.0
 72
1
  3

 73
1
 74
1
 75
1
 94
63
  0
MLINESTYLE
  5
1006A
102
{ACAD_REACTORS
330
1005E
102
}
330
1005E
100
AcDbMlineStyle
  2
Standard
 70
0
  3

 62
256
 51
90.0
 52
90.0
 71
2
 49
0.5
 62
256
  6
BYLAYER
 49
-0.5
 62
256
  6
BYLAYER
  0
MLEADERSTYLE
  5
1006C
102
{ACAD_REACTORS
330
1005D
102
}
330
1005D
100
AcDbMLeaderStyle
179
2
170
2
171
1
172
0
 90
2
 40
0.0
 41
0.0
173
1
 91
-1056964608
 92
-2
290
1
 42
2.0
291
1
 43
8.0
  3
Standard
 44
4.0
300

342
71
174
1
175
1
176
0
178
1
 93
-1056964608
 45
4.0
292
0
297
0
 46
4.0
 94
-1056964608
 47
1.0
 49
1.0
140
1.0
294
1
141
0.0
177
0
142
1.0
295
0
296
0
143
3.75
271
0
272
9
273
9
  0
DICTIONARY
  5
101A5
330
F000
100
AcDbDictionary
280
1
281
1
  3
WRITTEN_BY_EZDXF
350
101A6
  0
DICTIONARYVAR
  5
101A6
330
101A5
100
DictionaryVariables
280
0
  1
1.4.2 @ 2025-08-05T10:08:26.830813+00:00
  0
ENDSEC
  0
EOF
